  0
SECTION
  2
HEADER
  9
$ACADVER
  1
AC1024
  9
$ACADMAINTVER
 70
6
  9
$DWGCODEPAGE
  3
ANSI_1252
  9
$LASTSAVEDBY
  1
ezdxf
  9
$INSBASE
 10
0.0
 20
0.0
 30
0.0
  9
$EXTMIN
 10
1e+20
 20
1e+20
 30
1e+20
  9
$EXTMAX
 10
-1e+20
 20
-1e+20
 30
-1e+20
  9
$LIMMIN
 10
0.0
 20
0.0
  9
$LIMMAX
 10
420.0
 20
297.0
  9
$ORTHOMODE
 70
0
  9
$REGENMODE
 70
1
  9
$FILLMODE
 70
1
  9
$QTEXTMODE
 70
0
  9
$MIRRTEXT
 70
1
  9
$LTSCALE
 40
1.0
  9
$ATTMODE
 70
1
  9
$TEXTSIZE
 40
2.5
  9
$TRACEWID
 40
1.0
  9
$TEXTSTYLE
  7
Standard
  9
$CLAYER
  8
0
  9
$CELTYPE
  6
ByLayer
  9
$CECOLOR
 62
256
  9
$CELTSCALE
 40
1.0
  9
$DISPSILH
 70
0
  9
$DIMSCALE
 40
1.0
  9
$DIMASZ
 40
2.5
  9
$DIMEXO
 40
0.625
  9
$DIMDLI
 40
3.75
  9
$DIMRND
 40
0.0
  9
$DIMDLE
 40
0.0
  9
$DIMEXE
 40
1.25
  9
$DIMTP
 40
0.0
  9
$DIMTM
 40
0.0
  9
$DIMTXT
 40
2.5
  9
$DIMCEN
 40
2.5
  9
$DIMTSZ
 40
0.0
  9
$DIMTOL
 70
0
  9
$DIMLIM
 70
0
  9
$DIMTIH
 70
0
  9
$DIMTOH
 70
0
  9
$DIMSE1
 70
0
  9
$DIMSE2
 70
0
  9
$DIMTAD
 70
1
  9
$DIMZIN
 70
8
  9
$DIMBLK
  1

  9
$DIMASO
 70
1
  9
$DIMSHO
 70
1
  9
$DIMPOST
  1

  9
$DIMAPOST
  1

  9
$DIMALT
 70
0
  9
$DIMALTD
 70
3
  9
$DIMALTF
 40
0.03937007874
  9
$DIMLFAC
 40
1.0
  9
$DIMTOFL
 70
1
  9
$DIMTVP
 40
0.0
  9
$DIMTIX
 70
0
  9
$DIMSOXD
 70
0
  9
$DIMSAH
 70
0
  9
$DIMBLK1
  1

  9
$DIMBLK2
  1

  9
$DIMSTYLE
  2
ISO-25
  9
$DIMCLRD
 70
0
  9
$DIMCLRE
 70
0
  9
$DIMCLRT
 70
0
  9
$DIMTFAC
 40
1.0
  9
$DIMGAP
 40
0.625
  9
$DIMJUST
 70
0
  9
$DIMSD1
 70
0
  9
$DIMSD2
 70
0
  9
$DIMTOLJ
 70
0
  9
$DIMTZIN
 70
8
  9
$DIMALTZ
 70
0
  9
$DIMALTTZ
 70
0
  9
$DIMUPT
 70
0
  9
$DIMDEC
 70
2
  9
$DIMTDEC
 70
2
  9
$DIMALTU
 70
2
  9
$DIMALTTD
 70
3
  9
$DIMTXSTY
  7
Standard
  9
$DIMAUNIT
 70
0
  9
$DIMADEC
 70
0
  9
$DIMALTRND
 40
0.0
  9
$DIMAZIN
 70
0
  9
$DIMDSEP
 70
44
  9
$DIMATFIT
 70
3
  9
$DIMFRAC
 70
0
  9
$DIMLDRBLK
  1

  9
$DIMLUNIT
 70
2
  9
$DIMLWD
 70
-2
  9
$DIMLWE
 70
-2
  9
$DIMTMOVE
 70
0
  9
$DIMFXL
 40
1.0
  9
$DIMFXLON
 70
0
  9
$DIMJOGANG
 40
0.785398163397
  9
$DIMTFILL
 70
0
  9
$DIMTFILLCLR
 70
0
  9
$DIMARCSYM
 70
0
  9
$DIMLTYPE
  6

  9
$DIMLTEX1
  6

  9
$DIMLTEX2
  6

  9
$DIMTXTDIRECTION
 70
0
  9
$LUNITS
 70
2
  9
$LUPREC
 70
4
  9
$SKETCHINC
 40
1.0
  9
$FILLETRAD
 40
10.0
  9
$AUNITS
 70
0
  9
$AUPREC
 70
2
  9
$MENU
  1
.
  9
$ELEVATION
 40
0.0
  9
$PELEVATION
 40
0.0
  9
$THICKNESS
 40
0.0
  9
$LIMCHECK
 70
0
  9
$CHAMFERA
 40
0.0
  9
$CHAMFERB
 40
0.0
  9
$CHAMFERC
 40
0.0
  9
$CHAMFERD
 40
0.0
  9
$SKPOLY
 70
0
  9
$TDCREATE
 40
2461188.668622685
  9
$TDUCREATE
 40
2458532.153996898
  9
$TDUPDATE
 40
2461188.668622685
  9
$TDUUPDATE
 40
2458532.1544311
  9
$TDINDWG
 40
0.0
  9
$TDUSRTIMER
 40
0.0
  9
$USRTIMER
 70
1
  9
$ANGBASE
 50
0.0
  9
$ANGDIR
 70
0
  9
$PDMODE
 70
0
  9
$PDSIZE
 40
0.0
  9
$PLINEWID
 40
0.0
  9
$SPLFRAME
 70
0
  9
$SPLINETYPE
 70
6
  9
$SPLINESEGS
 70
8
  9
$HANDSEED
  5
19D
  9
$SURFTAB1
 70
6
  9
$SURFTAB2
 70
6
  9
$SURFTYPE
 70
6
  9
$SURFU
 70
6
  9
$SURFV
 70
6
  9
$UCSBASE
  2

  9
$UCSNAME
  2

  9
$UCSORG
 10
0.0
 20
0.0
 30
0.0
  9
$UCSXDIR
 10
1.0
 20
0.0
 30
0.0
  9
$UCSYDIR
 10
0.0
 20
1.0
 30
0.0
  9
$UCSORTHOREF
  2

  9
$UCSORTHOVIEW
 70
0
  9
$UCSORGTOP
 10
0.0
 20
0.0
 30
0.0
  9
$UCSORGBOTTOM
 10
0.0
 20
0.0
 30
0.0
  9
$UCSORGLEFT
 10
0.0
 20
0.0
 30
0.0
  9
$UCSORGRIGHT
 10
0.0
 20
0.0
 30
0.0
  9
$UCSORGFRONT
 10
0.0
 20
0.0
 30
0.0
  9
$UCSORGBACK
 10
0.0
 20
0.0
 30
0.0
  9
$PUCSBASE
  2

  9
$PUCSNAME
  2

  9
$PUCSORG
 10
0.0
 20
0.0
 30
0.0
  9
$PUCSXDIR
 10
1.0
 20
0.0
 30
0.0
  9
$PUCSYDIR
 10
0.0
 20
1.0
 30
0.0
  9
$PUCSORTHOREF
  2

  9
$PUCSORTHOVIEW
 70
0
  9
$PUCSORGTOP
 10
0.0
 20
0.0
 30
0.0
  9
$PUCSORGBOTTOM
 10
0.0
 20
0.0
 30
0.0
  9
$PUCSORGLEFT
 10
0.0
 20
0.0
 30
0.0
  9
$PUCSORGRIGHT
 10
0.0
 20
0.0
 30
0.0
  9
$PUCSORGFRONT
 10
0.0
 20
0.0
 30
0.0
  9
$PUCSORGBACK
 10
0.0
 20
0.0
 30
0.0
  9
$USERI1
 70
0
  9
$USERI2
 70
0
  9
$USERI3
 70
0
  9
$USERI4
 70
0
  9
$USERI5
 70
0
  9
$USERR1
 40
0.0
  9
$USERR2
 40
0.0
  9
$USERR3
 40
0.0
  9
$USERR4
 40
0.0
  9
$USERR5
 40
0.0
  9
$WORLDVIEW
 70
1
  9
$SHADEDGE
 70
3
  9
$SHADEDIF
 70
70
  9
$TILEMODE
 70
1
  9
$MAXACTVP
 70
64
  9
$PINSBASE
 10
0.0
 20
0.0
 30
0.0
  9
$PLIMCHECK
 70
0
  9
$PEXTMIN
 10
1e+20
 20
1e+20
 30
1e+20
  9
$PEXTMAX
 10
-1e+20
 20
-1e+20
 30
-1e+20
  9
$PLIMMIN
 10
0.0
 20
0.0
  9
$PLIMMAX
 10
420.0
 20
297.0
  9
$UNITMODE
 70
0
  9
$VISRETAIN
 70
1
  9
$PLINEGEN
 70
0
  9
$PSLTSCALE
 70
1
  9
$TREEDEPTH
 70
3020
  9
$CMLSTYLE
  2
Standard
  9
$CMLJUST
 70
0
  9
$CMLSCALE
 40
20.0
  9
$PROXYGRAPHICS
 70
1
  9
$MEASUREMENT
 70
1
  9
$CELWEIGHT
370
-1
  9
$ENDCAPS
280
0
  9
$JOINSTYLE
280
0
  9
$LWDISPLAY
290
0
  9
$INSUNITS
 70
4
  9
$HYPERLINKBASE
  1

  9
$STYLESHEET
  1

  9
$XEDIT
290
1
  9
$CEPSNTYPE
380
0
  9
$PSTYLEMODE
290
1
  9
$FINGERPRINTGUID
  2
{F7FB4650-EE49-4E6E-ACF9-EB6D50CC11F6}
  9
$VERSIONGUID
  2
{31D852C5-7481-4153-BDB4-1399F6E0F444}
  9
$EXTNAMES
290
1
  9
$PSVPSCALE
 40
0.0
  9
$OLESTARTUP
290
0
  9
$SORTENTS
280
127
  9
$INDEXCTL
280
0
  9
$HIDETEXT
280
1
  9
$XCLIPFRAME
280
1
  9
$HALOGAP
280
0
  9
$OBSCOLOR
 70
257
  9
$OBSLTYPE
280
0
  9
$INTERSECTIONDISPLAY
280
0
  9
$INTERSECTIONCOLOR
 70
257
  9
$DIMASSOC
280
2
  9
$PROJECTNAME
  1

  9
$CAMERADISPLAY
290
0
  9
$LENSLENGTH
 40
50.0
  9
$CAMERAHEIGHT
 40
0.0
  9
$STEPSPERSEC
 40
24.0
  9
$STEPSIZE
 40
100.0
  9
$3DDWFPREC
 40
2.0
  9
$PSOLWIDTH
 40
0.005
  9
$PSOLHEIGHT
 40
0.08
  9
$LOFTANG1
 40
1.570796326795
  9
$LOFTANG2
 40
1.570796326795
  9
$LOFTMAG1
 40
0.0
  9
$LOFTMAG2
 40
0.0
  9
$LOFTPARAM
 70
7
  9
$LOFTNORMALS
280
1
  9
$LATITUDE
 40
37.795
  9
$LONGITUDE
 40
-122.394
  9
$NORTHDIRECTION
 40
0.0
  9
$TIMEZONE
 70
-8000
  9
$LIGHTGLYPHDISPLAY
280
1
  9
$TILEMODELIGHTSYNCH
280
1
  9
$CMATERIAL
347
20
  9
$SOLIDHIST
280
0
  9
$SHOWHIST
280
1
  9
$DWFFRAME
280
2
  9
$DGNFRAME
280
2
  9
$REALWORLDSCALE
290
1
  9
$INTERFERECOLOR
 62
256
  9
$CSHADOW
280
0
  9
$SHADOWPLANELOCATION
 40
0.0
  0
ENDSEC
  0
SECTION
  2
CLASSES
  0
CLASS
  1
ACDBDICTIONARYWDFLT
  2
AcDbDictionaryWithDefault
  3
ObjectDBX Classes
 90
0
 91
0
280
0
281
0
  0
CLASS
  1
SUN
  2
AcDbSun
  3
SCENEOE
 90
1153
 91
0
280
0
281
0
  0
CLASS
  1
VISUALSTYLE
  2
AcDbVisualStyle
  3
ObjectDBX Classes
 90
4095
 91
0
280
0
281
0
  0
CLASS
  1
MATERIAL
  2
AcDbMaterial
  3
ObjectDBX Classes
 90
1153
 91
0
280
0
281
0
  0
CLASS
  1
SCALE
  2
AcDbScale
  3
ObjectDBX Classes
 90
1153
 91
0
280
0
281
0
  0
CLASS
  1
TABLESTYLE
  2
AcDbTableStyle
  3
ObjectDBX Classes
 90
4095
 91
0
280
0
281
0
  0
CLASS
  1
MLEADERSTYLE
  2
AcDbMLeaderStyle
  3
ACDB_MLEADERSTYLE_CLASS
 90
4095
 91
0
280
0
281
0
  0
CLASS
  1
DICTIONARYVAR
  2
AcDbDictionaryVar
  3
ObjectDBX Classes
 90
0
 91
0
280
0
281
0
  0
CLASS
  1
CELLSTYLEMAP
  2
AcDbCellStyleMap
  3
ObjectDBX Classes
 90
1152
 91
0
280
0
281
0
  0
CLASS
  1
MENTALRAYRENDERSETTINGS
  2
AcDbMentalRayRenderSettings
  3
SCENEOE
 90
1024
 91
0
280
0
281
0
  0
CLASS
  1
ACDBDETAILVIEWSTYLE
  2
AcDbDetailViewStyle
  3
ObjectDBX Classes
 90
1025
 91
0
280
0
281
0
  0
CLASS
  1
ACDBSECTIONVIEWSTYLE
  2
AcDbSectionViewStyle
  3
ObjectDBX Classes
 90
1025
 91
0
280
0
281
0
  0
CLASS
  1
RASTERVARIABLES
  2
AcDbRasterVariables
  3
ISM
 90
0
 91
0
280
0
281
0
  0
CLASS
  1
ACDBPLACEHOLDER
  2
AcDbPlaceHolder
  3
ObjectDBX Classes
 90
0
 91
0
280
0
281
0
  0
CLASS
  1
LAYOUT
  2
AcDbLayout
  3
ObjectDBX Classes
 90
0
 91
0
280
0
281
0
  0
ENDSEC
  0
SECTION
  2
TABLES
  0
TABLE
  2
VPORT
  5
8
330
0
100
AcDbSymbolTable
 70
1
  0
VPORT
  5
23
330
8
100
AcDbSymbolTableRecord
100
AcDbViewportTableRecord
  2
*Active
 70
0
 10
0.0
 20
0.0
 11
1.0
 21
1.0
 12
0.0
 22
0.0
 13
0.0
 23
0.0
 14
0.5
 24
0.5
 15
0.5
 25
0.5
 16
0.0
 26
0.0
 36
1.0
 17
0.0
 27
0.0
 37
0.0
 40
1000.0
 41
1.34
 42
50.0
 43
0.0
 44
0.0
 50
0.0
 51
0.0
 71
0
 72
1000
 73
1
 74
3
 75
0
 76
0
 77
0
 78
0
281
0
 65
0
146
0.0
  0
ENDTAB
  0
TABLE
  2
LTYPE
  5
2
330
0
100
AcDbSymbolTable
 70
3
  0
LTYPE
  5
24
330
2
100
AcDbSymbolTableRecord
100
AcDbLinetypeTableRecord
  2
ByBlock
 70
0
  3

 72
65
 73
0
 40
0.0
  0
LTYPE
  5
25
330
2
100
AcDbSymbolTableRecord
100
AcDbLinetypeTableRecord
  2
ByLayer
 70
0
  3

 72
65
 73
0
 40
0.0
  0
LTYPE
  5
26
330
2
100
AcDbSymbolTableRecord
100
AcDbLinetypeTableRecord
  2
Continuous
 70
0
  3

 72
65
 73
0
 40
0.0
  0
ENDTAB
  0
TABLE
  2
LAYER
  5
1
330
0
100
AcDbSymbolTable
 70
10
  0
LAYER
  5
27
330
1
100
AcDbSymbolTableRecord
100
AcDbLayerTableRecord
  2
0
 70
0
 62
7
  6
Continuous
370
-3
390
13
347
21
  0
LAYER
  5
28
330
1
100
AcDbSymbolTableRecord
100
AcDbLayerTableRecord
  2
Defpoints
 70
0
 62
7
  6
Continuous
290
0
370
-3
390
13
347
21
  0
LAYER
  5
2F
330
1
100
AcDbSymbolTableRecord
100
AcDbLayerTableRecord
  2
OUTLINE
 70
0
 62
7
  6
Continuous
370
-3
390
13
347
21
  0
LAYER
  5
30
330
1
100
AcDbSymbolTableRecord
100
AcDbLayerTableRecord
  2
BOARD
 70
0
 62
7
  6
Continuous
370
-3
390
13
347
21
  0
LAYER
  5
31
330
1
100
AcDbSymbolTableRecord
100
AcDbLayerTableRecord
  2
DOOR
 70
0
 62
1
  6
Continuous
370
-3
390
13
347
21
  0
LAYER
  5
32
330
1
100
AcDbSymbolTableRecord
100
AcDbLayerTableRecord
  2
DRAWER
 70
0
 62
3
  6
Continuous
370
-3
390
13
347
21
  0
LAYER
  5
33
330
1
100
AcDbSymbolTableRecord
100
AcDbLayerTableRecord
  2
TRIM
 70
0
 62
4
  6
Continuous
370
-3
390
13
347
21
  0
LAYER
  5
34
330
1
100
AcDbSymbolTableRecord
100
AcDbLayerTableRecord
  2
DIMENSION
 70
0
 62
2
  6
Continuous
370
-3
390
13
347
21
  0
LAYER
  5
35
330
1
100
AcDbSymbolTableRecord
100
AcDbLayerTableRecord
  2
TEXT
 70
0
 62
5
  6
Continuous
370
-3
390
13
347
21
  0
LAYER
  5
36
330
1
100
AcDbSymbolTableRecord
100
AcDbLayerTableRecord
  2
INNER
 70
0
 62
6
  6
Continuous
370
-3
390
13
347
21
  0
ENDTAB
  0
TABLE
  2
STYLE
  5
5
330
0
100
AcDbSymbolTable
 70
1
  0
STYLE
  5
29
330
5
100
AcDbSymbolTableRecord
100
AcDbTextStyleTableRecord
  2
Standard
 70
0
 40
0.0
 41
1.0
 50
0.0
 71
0
 42
2.5
  3
txt
  4

  0
ENDTAB
  0
TABLE
  2
VIEW
  5
7
330
0
100
AcDbSymbolTable
 70
0
  0
ENDTAB
  0
TABLE
  2
UCS
  5
6
330
0
100
AcDbSymbolTable
 70
0
  0
ENDTAB
  0
TABLE
  2
APPID
  5
3
330
0
100
AcDbSymbolTable
 70
3
  0
APPID
  5
2A
330
3
100
AcDbSymbolTableRecord
100
AcDbRegAppTableRecord
  2
ACAD
 70
0
  0
APPID
  5
19A
330
3
100
AcDbSymbolTableRecord
100
AcDbRegAppTableRecord
  2
HATCHBACKGROUNDCOLOR
 70
0
  0
APPID
  5
19B
330
3
100
AcDbSymbolTableRecord
100
AcDbRegAppTableRecord
  2
EZDXF
 70
0
  0
ENDTAB
  0
TABLE
  2
DIMSTYLE
  5
4
330
0
100
AcDbSymbolTable
 70
1
100
AcDbDimStyleTable
  0
DIMSTYLE
105
2B
330
4
100
AcDbSymbolTableRecord
100
AcDbDimStyleTableRecord
  2
Standard
 70
0
 40
1.0
 41
2.5
 42
0.625
 43
3.75
 44
1.25
 45
0.0
 46
0.0
 47
0.0
 48
0.0
 49
2.5
140
2.5
141
2.5
142
0.0
143
0.03937007874
144
1.0
145
0.0
146
1.0
147
0.625
148
0.0
 69
0
 70
0
 71
0
 72
0
 73
0
 74
0
 75
0
 76
0
 77
1
 78
8
 79
3
170
0
171
3
172
1
173
0
174
0
175
0
176
0
177
0
178
0
179
2
271
2
272
2
273
2
274
3
275
0
276
0
277
2
278
44
279
0
280
0
281
0
282
0
283
0
284
8
285
0
286
0
288
0
289
3
290
0
371
-2
372
-2
  0
ENDTAB
  0
TABLE
  2
BLOCK_RECORD
  5
9
330
0
100
AcDbSymbolTable
 70
20
  0
BLOCK_RECORD
  5
17
330
9
100
AcDbSymbolTableRecord
100
AcDbBlockTableRecord
  2
*Model_Space
340
1A
 70
0
280
1
281
0
  0
BLOCK_RECORD
  5
1B
330
9
100
AcDbSymbolTableRecord
100
AcDbBlockTableRecord
  2
*Paper_Space
340
1E
 70
0
280
1
281
0
  0
BLOCK_RECORD
  5
4D
330
9
100
AcDbSymbolTableRecord
100
AcDbBlockTableRecord
  2
*D1
340
0
 70
0
280
1
281
0
  0
BLOCK_RECORD
  5
52
330
9
100
AcDbSymbolTableRecord
100
AcDbBlockTableRecord
  2
_CLOSEDFILLED
340
0
 70
0
280
1
281
0
  0
BLOCK_RECORD
  5
61
330
9
100
AcDbSymbolTableRecord
100
AcDbBlockTableRecord
  2
*D2
340
0
 70
0
280
1
281
0
  0
BLOCK_RECORD
  5
71
330
9
100
AcDbSymbolTableRecord
100
AcDbBlockTableRecord
  2
*D3
340
0
 70
0
280
1
281
0
  0
BLOCK_RECORD
  5
80
330
9
100
AcDbSymbolTableRecord
100
AcDbBlockTableRecord
  2
*D4
340
0
 70
0
280
1
281
0
  0
BLOCK_RECORD
  5
91
330
9
100
AcDbSymbolTableRecord
100
AcDbBlockTableRecord
  2
*D5
340
0
 70
0
280
1
281
0
  0
BLOCK_RECORD
  5
A2
330
9
100
AcDbSymbolTableRecord
100
AcDbBlockTableRecord
  2
*D6
340
0
 70
0
280
1
281
0
  0
BLOCK_RECORD
  5
B3
330
9
100
AcDbSymbolTableRecord
100
AcDbBlockTableRecord
  2
*D7
340
0
 70
0
280
1
281
0
  0
BLOCK_RECORD
  5
C4
330
9
100
AcDbSymbolTableRecord
100
AcDbBlockTableRecord
  2
*D8
340
0
 70
0
280
1
281
0
  0
BLOCK_RECORD
  5
D5
330
9
100
AcDbSymbolTableRecord
100
AcDbBlockTableRecord
  2
*D9
340
0
 70
0
280
1
281
0
  0
BLOCK_RECORD
  5
EC
330
9
100
AcDbSymbolTableRecord
100
AcDbBlockTableRecord
  2
*D10
340
0
 70
0
280
1
281
0
  0
BLOCK_RECORD
  5
FC
330
9
100
AcDbSymbolTableRecord
100
AcDbBlockTableRecord
  2
*D11
340
0
 70
0
280
1
281
0
  0
BLOCK_RECORD
  5
10D
330
9
100
AcDbSymbolTableRecord
100
AcDbBlockTableRecord
  2
*D12
340
0
 70
0
280
1
281
0
  0
BLOCK_RECORD
  5
128
330
9
100
AcDbSymbolTableRecord
100
AcDbBlockTableRecord
  2
*D13
340
0
 70
0
280
1
281
0
  0
BLOCK_RECORD
  5
138
330
9
100
AcDbSymbolTableRecord
100
AcDbBlockTableRecord
  2
*D14
340
0
 70
0
280
1
281
0
  0
BLOCK_RECORD
  5
157
330
9
100
AcDbSymbolTableRecord
100
AcDbBlockTableRecord
  2
*D15
340
0
 70
0
280
1
281
0
  0
BLOCK_RECORD
  5
167
330
9
100
AcDbSymbolTableRecord
100
AcDbBlockTableRecord
  2
*D16
340
0
 70
0
280
1
281
0
  0
BLOCK_RECORD
  5
178
330
9
100
AcDbSymbolTableRecord
100
AcDbBlockTableRecord
  2
*D17
340
0
 70
0
280
1
281
0
  0
ENDTAB
  0
ENDSEC
  0
SECTION
  2
BLOCKS
  0
BLOCK
  5
18
330
17
100
AcDbEntity
  8
0
100
AcDbBlockBegin
  2
*Model_Space
 70
0
 10
0.0
 20
0.0
 30
0.0
  3
*Model_Space
  1

  0
ENDBLK
  5
19
330
17
100
AcDbEntity
  8
0
100
AcDbBlockEnd
  0
BLOCK
  5
1C
330
1B
100
AcDbEntity
  8
0
100
AcDbBlockBegin
  2
*Paper_Space
 70
0
 10
0.0
 20
0.0
 30
0.0
  3
*Paper_Space
  1

  0
ENDBLK
  5
1D
330
1B
100
AcDbEntity
  8
0
100
AcDbBlockEnd
  0
BLOCK
  5
4E
330
4D
100
AcDbEntity
  8
0
100
AcDbBlockBegin
  2
*D1
 70
1
 10
0.0
 20
0.0
 30
0.0
  3
*D1
  1

  0
LINE
  5
50
330
4D
100
AcDbEntity
  8
0
100
AcDbLine
 10
300.0
 20
220.0
 30
0.0
 11
300.0
 21
20.0
 31
0.0
  0
LINE
  5
51
330
4D
100
AcDbEntity
  8
0
100
AcDbLine
 10
1890.0
 20
220.0
 30
0.0
 11
1890.0
 21
20.0
 31
0.0
  0
INSERT
  5
56
330
4D
100
AcDbEntity
  8
0
100
AcDbBlockReference
  2
_CLOSEDFILLED
 10
300.0
 20
20.0
 30
0.0
 41
12.0
 42
12.0
 50
180.0
  0
INSERT
  5
58
330
4D
100
AcDbEntity
  8
0
100
AcDbBlockReference
  2
_CLOSEDFILLED
 10
1890.0
 20
20.0
 30
0.0
 41
12.0
 42
12.0
  0
LINE
  5
5A
330
4D
100
AcDbEntity
  8
0
100
AcDbLine
 10
312.0
 20
20.0
 30
0.0
 11
1055.0
 21
20.0
 31
0.0
  0
LINE
  5
5B
330
4D
100
AcDbEntity
  8
0
100
AcDbLine
 10
1135.0
 20
20.0
 30
0.0
 11
1878.0
 21
20.0
 31
0.0
  0
MTEXT
  5
5C
330
4D
100
AcDbEntity
  8
0
100
AcDbMText
 10
1095.0
 20
20.0
 30
0.0
 40
20.0
 71
5
  1
1590
  0
POINT
  5
5D
330
4D
100
AcDbEntity
  8
Defpoints
100
AcDbPoint
 10
300.0
 20
20.0
 30
0.0
  0
POINT
  5
5E
330
4D
100
AcDbEntity
  8
Defpoints
100
AcDbPoint
 10
300.0
 20
220.0
 30
0.0
  0
POINT
  5
5F
330
4D
100
AcDbEntity
  8
Defpoints
100
AcDbPoint
 10
1890.0
 20
220.0
 30
0.0
  0
ENDBLK
  5
4F
330
4D
100
AcDbEntity
  8
0
100
AcDbBlockEnd
  0
BLOCK
  5
53
330
52
100
AcDbEntity
  8
0
100
AcDbBlockBegin
  2
_CLOSEDFILLED
 70
0
 10
0.0
 20
0.0
 30
0.0
  3
_CLOSEDFILLED
  1

  0
SOLID
  5
55
330
52
100
AcDbEntity
  8
0
  6
BYBLOCK
 62
0
100
AcDbTrace
 10
-1.0
 20
0.16439898372402537
 30
0.0
 11
0.0
 21
0.0
 31
0.0
 12
-1.0
 22
-0.16439898372402537
 32
0.0
 13
-1.0
 23
-0.16439898372402537
 33
0.0
  0
ENDBLK
  5
54
330
52
100
AcDbEntity
  8
0
100
AcDbBlockEnd
  0
BLOCK
  5
62
330
61
100
AcDbEntity
  8
0
100
AcDbBlockBegin
  2
*D2
 70
1
 10
0.0
 20
0.0
 30
0.0
  3
*D2
  1

  0
LINE
  5
64
330
61
100
AcDbEntity
  8
0
100
AcDbLine
 10
350.0
 20
270.0
 30
0.0
 11
350.0
 21
120.0
 31
0.0
  0
LINE
  5
65
330
61
100
AcDbEntity
  8
0
100
AcDbLine
 10
1890.0
 20
270.0
 30
0.0
 11
1890.0
 21
120.0
 31
0.0
  0
INSERT
  5
66
330
61
100
AcDbEntity
  8
0
100
AcDbBlockReference
  2
_CLOSEDFILLED
 10
350.0
 20
120.0
 30
0.0
 41
12.0
 42
12.0
 50
180.0
  0
INSERT
  5
68
330
61
100
AcDbEntity
  8
0
100
AcDbBlockReference
  2
_CLOSEDFILLED
 10
1890.0
 20
120.0
 30
0.0
 41
12.0
 42
12.0
  0
LINE
  5
6A
330
61
100
AcDbEntity
  8
0
100
AcDbLine
 10
362.0
 20
120.0
 30
0.0
 11
1080.0
 21
120.0
 31
0.0
  0
LINE
  5
6B
330
61
100
AcDbEntity
  8
0
100
AcDbLine
 10
1160.0
 20
120.0
 30
0.0
 11
1878.0
 21
120.0
 31
0.0
  0
MTEXT
  5
6C
330
61
100
AcDbEntity
  8
0
100
AcDbMText
 10
1120.0
 20
120.0
 30
0.0
 40
20.0
 71
5
  1
1540
  0
POINT
  5
6D
330
61
100
AcDbEntity
  8
Defpoints
100
AcDbPoint
 10
350.0
 20
120.0
 30
0.0
  0
POINT
  5
6E
330
61
100
AcDbEntity
  8
Defpoints
100
AcDbPoint
 10
350.0
 20
270.0
 30
0.0
  0
POINT
  5
6F
330
61
100
AcDbEntity
  8
Defpoints
100
AcDbPoint
 10
1890.0
 20
270.0
 30
0.0
  0
ENDBLK
  5
63
330
61
100
AcDbEntity
  8
0
100
AcDbBlockEnd
  0
BLOCK
  5
72
330
71
100
AcDbEntity
  8
0
100
AcDbBlockBegin
  2
*D3
 70
1
 10
0.0
 20
0.0
 30
0.0
  3
*D3
  1

  0
LINE
  5
74
330
71
100
AcDbEntity
  8
0
100
AcDbLine
 10
300.0
 20
270.0
 30
0.0
 11
300.0
 21
170.0
 31
0.0
  0
LINE
  5
75
330
71
100
AcDbEntity
  8
0
100
AcDbLine
 10
350.0
 20
270.0
 30
0.0
 11
350.0
 21
170.0
 31
0.0
  0
INSERT
  5
76
330
71
100
AcDbEntity
  8
0
100
AcDbBlockReference
  2
_CLOSEDFILLED
 10
300.0
 20
170.0
 30
0.0
 41
12.0
 42
12.0
 50
180.0
  0
INSERT
  5
78
330
71
100
AcDbEntity
  8
0
100
AcDbBlockReference
  2
_CLOSEDFILLED
 10
350.0
 20
170.0
 30
0.0
 41
12.0
 42
12.0
  0
LINE
  5
7A
330
71
100
AcDbEntity
  8
0
100
AcDbLine
 10
312.0
 20
170.0
 30
0.0
 11
338.0
 21
170.0
 31
0.0
  0
MTEXT
  5
7B
330
71
100
AcDbEntity
  8
0
100
AcDbMText
 10
325.0
 20
180.625
 30
0.0
 40
20.0
 71
5
  1
50
  0
POINT
  5
7C
330
71
100
AcDbEntity
  8
Defpoints
100
AcDbPoint
 10
300.0
 20
170.0
 30
0.0
  0
POINT
  5
7D
330
71
100
AcDbEntity
  8
Defpoints
100
AcDbPoint
 10
300.0
 20
270.0
 30
0.0
  0
POINT
  5
7E
330
71
100
AcDbEntity
  8
Defpoints
100
AcDbPoint
 10
350.0
 20
270.0
 30
0.0
  0
ENDBLK
  5
73
330
71
100
AcDbEntity
  8
0
100
AcDbBlockEnd
  0
BLOCK
  5
81
330
80
100
AcDbEntity
  8
0
100
AcDbBlockBegin
  2
*D4
 70
1
 10
0.0
 20
0.0
 30
0.0
  3
*D4
  1

  0
LINE
  5
83
330
80
100
AcDbEntity
  8
0
100
AcDbLine
 10
1970.0
 20
300.0
 30
0.0
 11
1970.0
 21
500.0
 31
0.0
  0
LINE
  5
84
330
80
100
AcDbEntity
  8
0
100
AcDbLine
 10
1970.0
 20
3100.0
 30
0.0
 11
1970.0
 21
500.0
 31
0.0
  0
INSERT
  5
85
330
80
100
AcDbEntity
  8
0
100
AcDbBlockReference
  2
_CLOSEDFILLED
 10
1970.0
 20
500.0
 30
0.0
 41
12.0
 42
12.0
  0
INSERT
  5
87
330
80
100
AcDbEntity
  8
0
100
AcDbBlockReference
  2
_CLOSEDFILLED
 10
1970.0
 20
500.0
 30
0.0
 41
12.0
 42
12.0
 50
180.0
  0
LINE
  5
89
330
80
100
AcDbEntity
  8
0
100
AcDbLine
 10
1958.0
 20
500.0
 30
0.0
 11
1946.0
 21
500.0
 31
0.0
  0
LINE
  5
8A
330
80
100
AcDbEntity
  8
0
100
AcDbLine
 10
1982.0
 20
500.0
 30
0.0
 11
1994.0
 21
500.0
 31
0.0
  0
LINE
  5
8B
330
80
100
AcDbEntity
  8
0
100
AcDbLine
 10
1970.0
 20
500.0
 30
0.0
 11
1970.0
 21
500.0
 31
0.0
  0
MTEXT
  5
8C
330
80
100
AcDbEntity
  8
0
100
AcDbMText
 10
1970.0
 20
510.625
 30
0.0
 40
20.0
 71
5
  1
0
  0
POINT
  5
8D
330
80
100
AcDbEntity
  8
Defpoints
100
AcDbPoint
 10
1970.0
 20
500.0
 30
0.0
  0
POINT
  5
8E
330
80
100
AcDbEntity
  8
Defpoints
100
AcDbPoint
 10
1970.0
 20
300.0
 30
0.0
  0
POINT
  5
8F
330
80
100
AcDbEntity
  8
Defpoints
100
AcDbPoint
 10
1970.0
 20
3100.0
 30
0.0
  0
ENDBLK
  5
82
330
80
100
AcDbEntity
  8
0
100
AcDbBlockEnd
  0
BLOCK
  5
92
330
91
100
AcDbEntity
  8
0
100
AcDbBlockBegin
  2
*D5
 70
1
 10
0.0
 20
0.0
 30
0.0
  3
*D5
  1

  0
LINE
  5
94
330
91
100
AcDbEntity
  8
0
100
AcDbLine
 10
1920.0
 20
3050.0
 30
0.0
 11
1920.0
 21
3150.0
 31
0.0
  0
LINE
  5
95
330
91
100
AcDbEntity
  8
0
100
AcDbLine
 10
1920.0
 20
3100.0
 30
0.0
 11
1920.0
 21
3150.0
 31
0.0
  0
INSERT
  5
96
330
91
100
AcDbEntity
  8
0
100
AcDbBlockReference
  2
_CLOSEDFILLED
 10
1920.0
 20
3150.0
 30
0.0
 41
12.0
 42
12.0
  0
INSERT
  5
98
330
91
100
AcDbEntity
  8
0
100
AcDbBlockReference
  2
_CLOSEDFILLED
 10
1920.0
 20
3150.0
 30
0.0
 41
12.0
 42
12.0
 50
180.0
  0
LINE
  5
9A
330
91
100
AcDbEntity
  8
0
100
AcDbLine
 10
1908.0
 20
3150.0
 30
0.0
 11
1896.0
 21
3150.0
 31
0.0
  0
LINE
  5
9B
330
91
100
AcDbEntity
  8
0
100
AcDbLine
 10
1932.0
 20
3150.0
 30
0.0
 11
1944.0
 21
3150.0
 31
0.0
  0
LINE
  5
9C
330
91
100
AcDbEntity
  8
0
100
AcDbLine
 10
1920.0
 20
3150.0
 30
0.0
 11
1920.0
 21
3150.0
 31
0.0
  0
MTEXT
  5
9D
330
91
100
AcDbEntity
  8
0
100
AcDbMText
 10
1920.0
 20
3160.625
 30
0.0
 40
20.0
 71
5
  1
0
  0
POINT
  5
9E
330
91
100
AcDbEntity
  8
Defpoints
100
AcDbPoint
 10
1920.0
 20
3150.0
 30
0.0
  0
POINT
  5
9F
330
91
100
AcDbEntity
  8
Defpoints
100
AcDbPoint
 10
1920.0
 20
3050.0
 30
0.0
  0
POINT
  5
A0
330
91
100
AcDbEntity
  8
Defpoints
100
AcDbPoint
 10
1920.0
 20
3100.0
 30
0.0
  0
ENDBLK
  5
93
330
91
100
AcDbEntity
  8
0
100
AcDbBlockEnd
  0
BLOCK
  5
A3
330
A2
100
AcDbEntity
  8
0
100
AcDbBlockBegin
  2
*D6
 70
1
 10
0.0
 20
0.0
 30
0.0
  3
*D6
  1

  0
LINE
  5
A5
330
A2
100
AcDbEntity
  8
0
100
AcDbLine
 10
1920.0
 20
300.0
 30
0.0
 11
1920.0
 21
450.0
 31
0.0
  0
LINE
  5
A6
330
A2
100
AcDbEntity
  8
0
100
AcDbLine
 10
1920.0
 20
3050.0
 30
0.0
 11
1920.0
 21
450.0
 31
0.0
  0
INSERT
  5
A7
330
A2
100
AcDbEntity
  8
0
100
AcDbBlockReference
  2
_CLOSEDFILLED
 10
1920.0
 20
450.0
 30
0.0
 41
12.0
 42
12.0
  0
INSERT
  5
A9
330
A2
100
AcDbEntity
  8
0
100
AcDbBlockReference
  2
_CLOSEDFILLED
 10
1920.0
 20
450.0
 30
0.0
 41
12.0
 42
12.0
 50
180.0
  0
LINE
  5
AB
330
A2
100
AcDbEntity
  8
0
100
AcDbLine
 10
1908.0
 20
450.0
 30
0.0
 11
1896.0
 21
450.0
 31
0.0
  0
LINE
  5
AC
330
A2
100
AcDbEntity
  8
0
100
AcDbLine
 10
1932.0
 20
450.0
 30
0.0
 11
1944.0
 21
450.0
 31
0.0
  0
LINE
  5
AD
330
A2
100
AcDbEntity
  8
0
100
AcDbLine
 10
1920.0
 20
450.0
 30
0.0
 11
1920.0
 21
450.0
 31
0.0
  0
MTEXT
  5
AE
330
A2
100
AcDbEntity
  8
0
100
AcDbMText
 10
1920.0
 20
460.625
 30
0.0
 40
20.0
 71
5
  1
0
  0
POINT
  5
AF
330
A2
100
AcDbEntity
  8
Defpoints
100
AcDbPoint
 10
1920.0
 20
450.0
 30
0.0
  0
POINT
  5
B0
330
A2
100
AcDbEntity
  8
Defpoints
100
AcDbPoint
 10
1920.0
 20
300.0
 30
0.0
  0
POINT
  5
B1
330
A2
100
AcDbEntity
  8
Defpoints
100
AcDbPoint
 10
1920.0
 20
3050.0
 30
0.0
  0
ENDBLK
  5
A4
330
A2
100
AcDbEntity
  8
0
100
AcDbBlockEnd
  0
BLOCK
  5
B4
330
B3
100
AcDbEntity
  8
0
100
AcDbBlockBegin
  2
*D7
 70
1
 10
0.0
 20
0.0
 30
0.0
  3
*D7
  1

  0
LINE
  5
B6
330
B3
100
AcDbEntity
  8
0
100
AcDbLine
 10
300.0
 20
300.0
 30
0.0
 11
300.0
 21
200.0
 31
0.0
  0
LINE
  5
B7
330
B3
100
AcDbEntity
  8
0
100
AcDbLine
 10
300.0
 20
350.0
 30
0.0
 11
300.0
 21
200.0
 31
0.0
  0
INSERT
  5
B8
330
B3
100
AcDbEntity
  8
0
100
AcDbBlockReference
  2
_CLOSEDFILLED
 10
300.0
 20
200.0
 30
0.0
 41
12.0
 42
12.0
  0
INSERT
  5
BA
330
B3
100
AcDbEntity
  8
0
100
AcDbBlockReference
  2
_CLOSEDFILLED
 10
300.0
 20
200.0
 30
0.0
 41
12.0
 42
12.0
 50
180.0
  0
LINE
  5
BC
330
B3
100
AcDbEntity
  8
0
100
AcDbLine
 10
288.0
 20
200.0
 30
0.0
 11
276.0
 21
200.0
 31
0.0
  0
LINE
  5
BD
330
B3
100
AcDbEntity
  8
0
100
AcDbLine
 10
312.0
 20
200.0
 30
0.0
 11
324.0
 21
200.0
 31
0.0
  0
LINE
  5
BE
330
B3
100
AcDbEntity
  8
0
100
AcDbLine
 10
300.0
 20
200.0
 30
0.0
 11
300.0
 21
200.0
 31
0.0
  0
MTEXT
  5
BF
330
B3
100
AcDbEntity
  8
0
100
AcDbMText
 10
300.0
 20
210.625
 30
0.0
 40
20.0
 71
5
  1
0
  0
POINT
  5
C0
330
B3
100
AcDbEntity
  8
Defpoints
100
AcDbPoint
 10
300.0
 20
200.0
 30
0.0
  0
POINT
  5
C1
330
B3
100
AcDbEntity
  8
Defpoints
100
AcDbPoint
 10
300.0
 20
300.0
 30
0.0
  0
POINT
  5
C2
330
B3
100
AcDbEntity
  8
Defpoints
100
AcDbPoint
 10
300.0
 20
350.0
 30
0.0
  0
ENDBLK
  5
B5
330
B3
100
AcDbEntity
  8
0
100
AcDbBlockEnd
  0
BLOCK
  5
C5
330
C4
100
AcDbEntity
  8
0
100
AcDbBlockBegin
  2
*D8
 70
1
 10
0.0
 20
0.0
 30
0.0
  3
*D8
  1

  0
LINE
  5
C7
330
C4
100
AcDbEntity
  8
0
100
AcDbLine
 10
300.0
 20
350.0
 30
0.0
 11
300.0
 21
250.0
 31
0.0
  0
LINE
  5
C8
330
C4
100
AcDbEntity
  8
0
100
AcDbLine
 10
300.0
 20
2200.0
 30
0.0
 11
300.0
 21
250.0
 31
0.0
  0
INSERT
  5
C9
330
C4
100
AcDbEntity
  8
0
100
AcDbBlockReference
  2
_CLOSEDFILLED
 10
300.0
 20
250.0
 30
0.0
 41
12.0
 42
12.0
  0
INSERT
  5
CB
330
C4
100
AcDbEntity
  8
0
100
AcDbBlockReference
  2
_CLOSEDFILLED
 10
300.0
 20
250.0
 30
0.0
 41
12.0
 42
12.0
 50
180.0
  0
LINE
  5
CD
330
C4
100
AcDbEntity
  8
0
100
AcDbLine
 10
288.0
 20
250.0
 30
0.0
 11
276.0
 21
250.0
 31
0.0
  0
LINE
  5
CE
330
C4
100
AcDbEntity
  8
0
100
AcDbLine
 10
312.0
 20
250.0
 30
0.0
 11
324.0
 21
250.0
 31
0.0
  0
LINE
  5
CF
330
C4
100
AcDbEntity
  8
0
100
AcDbLine
 10
300.0
 20
250.0
 30
0.0
 11
300.0
 21
250.0
 31
0.0
  0
MTEXT
  5
D0
330
C4
100
AcDbEntity
  8
0
100
AcDbMText
 10
300.0
 20
260.625
 30
0.0
 40
20.0
 71
5
  1
0
  0
POINT
  5
D1
330
C4
100
AcDbEntity
  8
Defpoints
100
AcDbPoint
 10
300.0
 20
250.0
 30
0.0
  0
POINT
  5
D2
330
C4
100
AcDbEntity
  8
Defpoints
100
AcDbPoint
 10
300.0
 20
350.0
 30
0.0
  0
POINT
  5
D3
330
C4
100
AcDbEntity
  8
Defpoints
100
AcDbPoint
 10
300.0
 20
2200.0
 30
0.0
  0
ENDBLK
  5
C6
330
C4
100
AcDbEntity
  8
0
100
AcDbBlockEnd
  0
BLOCK
  5
D6
330
D5
100
AcDbEntity
  8
0
100
AcDbBlockBegin
  2
*D9
 70
1
 10
0.0
 20
0.0
 30
0.0
  3
*D9
  1

  0
LINE
  5
D8
330
D5
100
AcDbEntity
  8
0
100
AcDbLine
 10
370.0
 20
3072.0
 30
0.0
 11
370.0
 21
3192.0
 31
0.0
  0
LINE
  5
D9
330
D5
100
AcDbEntity
  8
0
100
AcDbLine
 10
744.5
 20
3072.0
 30
0.0
 11
744.5
 21
3192.0
 31
0.0
  0
INSERT
  5
DA
330
D5
100
AcDbEntity
  8
0
100
AcDbBlockReference
  2
_CLOSEDFILLED
 10
370.0
 20
3192.0
 30
0.0
 41
12.0
 42
12.0
 50
180.0
  0
INSERT
  5
DC
330
D5
100
AcDbEntity
  8
0
100
AcDbBlockReference
  2
_CLOSEDFILLED
 10
744.5
 20
3192.0
 30
0.0
 41
12.0
 42
12.0
  0
LINE
  5
DE
330
D5
100
AcDbEntity
  8
0
100
AcDbLine
 10
382.0
 20
3192.0
 30
0.0
 11
507.25
 21
3192.0
 31
0.0
  0
LINE
  5
DF
330
D5
100
AcDbEntity
  8
0
100
AcDbLine
 10
607.25
 20
3192.0
 30
0.0
 11
732.5
 21
3192.0
 31
0.0
  0
MTEXT
  5
E0
330
D5
100
AcDbEntity
  8
0
100
AcDbMText
 10
557.25
 20
3192.0
 30
0.0
 40
20.0
 71
5
  1
374,5
  0
POINT
  5
E1
330
D5
100
AcDbEntity
  8
Defpoints
100
AcDbPoint
 10
370.0
 20
3192.0
 30
0.0
  0
POINT
  5
E2
330
D5
100
AcDbEntity
  8
Defpoints
100
AcDbPoint
 10
370.0
 20
3072.0
 30
0.0
  0
POINT
  5
E3
330
D5
100
AcDbEntity
  8
Defpoints
100
AcDbPoint
 10
744.5
 20
3072.0
 30
0.0
  0
ENDBLK
  5
D7
330
D5
100
AcDbEntity
  8
0
100
AcDbBlockEnd
  0
BLOCK
  5
ED
330
EC
100
AcDbEntity
  8
0
100
AcDbBlockBegin
  2
*D10
 70
1
 10
0.0
 20
0.0
 30
0.0
  3
*D10
  1

  0
LINE
  5
EF
330
EC
100
AcDbEntity
  8
0
100
AcDbLine
 10
2390.0
 20
220.0
 30
0.0
 11
2390.0
 21
20.0
 31
0.0
  0
LINE
  5
F0
330
EC
100
AcDbEntity
  8
0
100
AcDbLine
 10
2990.0
 20
220.0
 30
0.0
 11
2990.0
 21
20.0
 31
0.0
  0
INSERT
  5
F1
330
EC
100
AcDbEntity
  8
0
100
AcDbBlockReference
  2
_CLOSEDFILLED
 10
2390.0
 20
20.0
 30
0.0
 41
12.0
 42
12.0
 50
180.0
  0
INSERT
  5
F3
330
EC
100
AcDbEntity
  8
0
100
AcDbBlockReference
  2
_CLOSEDFILLED
 10
2990.0
 20
20.0
 30
0.0
 41
12.0
 42
12.0
  0
LINE
  5
F5
330
EC
100
AcDbEntity
  8
0
100
AcDbLine
 10
2402.0
 20
20.0
 30
0.0
 11
2660.0
 21
20.0
 31
0.0
  0
LINE
  5
F6
330
EC
100
AcDbEntity
  8
0
100
AcDbLine
 10
2720.0
 20
20.0
 30
0.0
 11
2978.0
 21
20.0
 31
0.0
  0
MTEXT
  5
F7
330
EC
100
AcDbEntity
  8
0
100
AcDbMText
 10
2690.0
 20
20.0
 30
0.0
 40
20.0
 71
5
  1
600
  0
POINT
  5
F8
330
EC
100
AcDbEntity
  8
Defpoints
100
AcDbPoint
 10
2390.0
 20
20.0
 30
0.0
  0
POINT
  5
F9
330
EC
100
AcDbEntity
  8
Defpoints
100
AcDbPoint
 10
2390.0
 20
220.0
 30
0.0
  0
POINT
  5
FA
330
EC
100
AcDbEntity
  8
Defpoints
100
AcDbPoint
 10
2990.0
 20
220.0
 30
0.0
  0
ENDBLK
  5
EE
330
EC
100
AcDbEntity
  8
0
100
AcDbBlockEnd
  0
BLOCK
  5
FD
330
FC
100
AcDbEntity
  8
0
100
AcDbBlockBegin
  2
*D11
 70
1
 10
0.0
 20
0.0
 30
0.0
  3
*D11
  1

  0
LINE
  5
FF
330
FC
100
AcDbEntity
  8
0
100
AcDbLine
 10
3040.0
 20
300.0
 30
0.0
 11
3040.0
 21
500.0
 31
0.0
  0
LINE
  5
100
330
FC
100
AcDbEntity
  8
0
100
AcDbLine
 10
3040.0
 20
3100.0
 30
0.0
 11
3040.0
 21
500.0
 31
0.0
  0
INSERT
  5
101
330
FC
100
AcDbEntity
  8
0
100
AcDbBlockReference
  2
_CLOSEDFILLED
 10
3040.0
 20
500.0
 30
0.0
 41
12.0
 42
12.0
  0
INSERT
  5
103
330
FC
100
AcDbEntity
  8
0
100
AcDbBlockReference
  2
_CLOSEDFILLED
 10
3040.0
 20
500.0
 30
0.0
 41
12.0
 42
12.0
 50
180.0
  0
LINE
  5
105
330
FC
100
AcDbEntity
  8
0
100
AcDbLine
 10
3028.0
 20
500.0
 30
0.0
 11
3016.0
 21
500.0
 31
0.0
  0
LINE
  5
106
330
FC
100
AcDbEntity
  8
0
100
AcDbLine
 10
3052.0
 20
500.0
 30
0.0
 11
3064.0
 21
500.0
 31
0.0
  0
LINE
  5
107
330
FC
100
AcDbEntity
  8
0
100
AcDbLine
 10
3040.0
 20
500.0
 30
0.0
 11
3040.0
 21
500.0
 31
0.0
  0
MTEXT
  5
108
330
FC
100
AcDbEntity
  8
0
100
AcDbMText
 10
3040.0
 20
510.625
 30
0.0
 40
20.0
 71
5
  1
0
  0
POINT
  5
109
330
FC
100
AcDbEntity
  8
Defpoints
100
AcDbPoint
 10
3040.0
 20
500.0
 30
0.0
  0
POINT
  5
10A
330
FC
100
AcDbEntity
  8
Defpoints
100
AcDbPoint
 10
3040.0
 20
300.0
 30
0.0
  0
POINT
  5
10B
330
FC
100
AcDbEntity
  8
Defpoints
100
AcDbPoint
 10
3040.0
 20
3100.0
 30
0.0
  0
ENDBLK
  5
FE
330
FC
100
AcDbEntity
  8
0
100
AcDbBlockEnd
  0
BLOCK
  5
10E
330
10D
100
AcDbEntity
  8
0
100
AcDbBlockBegin
  2
*D12
 70
1
 10
0.0
 20
0.0
 30
0.0
  3
*D12
  1

  0
LINE
  5
110
330
10D
100
AcDbEntity
  8
0
100
AcDbLine
 10
3020.0
 20
3050.0
 30
0.0
 11
3020.0
 21
3130.0
 31
0.0
  0
LINE
  5
111
330
10D
100
AcDbEntity
  8
0
100
AcDbLine
 10
3020.0
 20
3100.0
 30
0.0
 11
3020.0
 21
3130.0
 31
0.0
  0
INSERT
  5
112
330
10D
100
AcDbEntity
  8
0
100
AcDbBlockReference
  2
_CLOSEDFILLED
 10
3020.0
 20
3130.0
 30
0.0
 41
12.0
 42
12.0
  0
INSERT
  5
114
330
10D
100
AcDbEntity
  8
0
100
AcDbBlockReference
  2
_CLOSEDFILLED
 10
3020.0
 20
3130.0
 30
0.0
 41
12.0
 42
12.0
 50
180.0
  0
LINE
  5
116
330
10D
100
AcDbEntity
  8
0
100
AcDbLine
 10
3008.0
 20
3130.0
 30
0.0
 11
2996.0
 21
3130.0
 31
0.0
  0
LINE
  5
117
330
10D
100
AcDbEntity
  8
0
100
AcDbLine
 10
3032.0
 20
3130.0
 30
0.0
 11
3044.0
 21
3130.0
 31
0.0
  0
LINE
  5
118
330
10D
100
AcDbEntity
  8
0
100
AcDbLine
 10
3020.0
 20
3130.0
 30
0.0
 11
3020.0
 21
3130.0
 31
0.0
  0
MTEXT
  5
119
330
10D
100
AcDbEntity
  8
0
100
AcDbMText
 10
3020.0
 20
3140.625
 30
0.0
 40
20.0
 71
5
  1
0
  0
POINT
  5
11A
330
10D
100
AcDbEntity
  8
Defpoints
100
AcDbPoint
 10
3020.0
 20
3130.0
 30
0.0
  0
POINT
  5
11B
330
10D
100
AcDbEntity
  8
Defpoints
100
AcDbPoint
 10
3020.0
 20
3050.0
 30
0.0
  0
POINT
  5
11C
330
10D
100
AcDbEntity
  8
Defpoints
100
AcDbPoint
 10
3020.0
 20
3100.0
 30
0.0
  0
ENDBLK
  5
10F
330
10D
100
AcDbEntity
  8
0
100
AcDbBlockEnd
  0
BLOCK
  5
129
330
128
100
AcDbEntity
  8
0
100
AcDbBlockBegin
  2
*D13
 70
1
 10
0.0
 20
0.0
 30
0.0
  3
*D13
  1

  0
LINE
  5
12B
330
128
100
AcDbEntity
  8
0
100
AcDbLine
 10
300.0
 20
3320.0
 30
0.0
 11
300.0
 21
3120.0
 31
0.0
  0
LINE
  5
12C
330
128
100
AcDbEntity
  8
0
100
AcDbLine
 10
1890.0
 20
3320.0
 30
0.0
 11
1890.0
 21
3120.0
 31
0.0
  0
INSERT
  5
12D
330
128
100
AcDbEntity
  8
0
100
AcDbBlockReference
  2
_CLOSEDFILLED
 10
300.0
 20
3120.0
 30
0.0
 41
12.0
 42
12.0
 50
180.0
  0
INSERT
  5
12F
330
128
100
AcDbEntity
  8
0
100
AcDbBlockReference
  2
_CLOSEDFILLED
 10
1890.0
 20
3120.0
 30
0.0
 41
12.0
 42
12.0
  0
LINE
  5
131
330
128
100
AcDbEntity
  8
0
100
AcDbLine
 10
312.0
 20
3120.0
 30
0.0
 11
1055.0
 21
3120.0
 31
0.0
  0
LINE
  5
132
330
128
100
AcDbEntity
  8
0
100
AcDbLine
 10
1135.0
 20
3120.0
 30
0.0
 11
1878.0
 21
3120.0
 31
0.0
  0
MTEXT
  5
133
330
128
100
AcDbEntity
  8
0
100
AcDbMText
 10
1095.0
 20
3120.0
 30
0.0
 40
20.0
 71
5
  1
1590
  0
POINT
  5
134
330
128
100
AcDbEntity
  8
Defpoints
100
AcDbPoint
 10
300.0
 20
3120.0
 30
0.0
  0
POINT
  5
135
330
128
100
AcDbEntity
  8
Defpoints
100
AcDbPoint
 10
300.0
 20
3320.0
 30
0.0
  0
POINT
  5
136
330
128
100
AcDbEntity
  8
Defpoints
100
AcDbPoint
 10
1890.0
 20
3320.0
 30
0.0
  0
ENDBLK
  5
12A
330
128
100
AcDbEntity
  8
0
100
AcDbBlockEnd
  0
BLOCK
  5
139
330
138
100
AcDbEntity
  8
0
100
AcDbBlockBegin
  2
*D14
 70
1
 10
0.0
 20
0.0
 30
0.0
  3
*D14
  1

  0
LINE
  5
13B
330
138
100
AcDbEntity
  8
0
100
AcDbLine
 10
1940.0
 20
3400.0
 30
0.0
 11
1940.0
 21
3600.0
 31
0.0
  0
LINE
  5
13C
330
138
100
AcDbEntity
  8
0
100
AcDbLine
 10
1940.0
 20
4000.0
 30
0.0
 11
1940.0
 21
3600.0
 31
0.0
  0
INSERT
  5
13D
330
138
100
AcDbEntity
  8
0
100
AcDbBlockReference
  2
_CLOSEDFILLED
 10
1940.0
 20
3600.0
 30
0.0
 41
12.0
 42
12.0
  0
INSERT
  5
13F
330
138
100
AcDbEntity
  8
0
100
AcDbBlockReference
  2
_CLOSEDFILLED
 10
1940.0
 20
3600.0
 30
0.0
 41
12.0
 42
12.0
 50
180.0
  0
LINE
  5
141
330
138
100
AcDbEntity
  8
0
100
AcDbLine
 10
1928.0
 20
3600.0
 30
0.0
 11
1916.0
 21
3600.0
 31
0.0
  0
LINE
  5
142
330
138
100
AcDbEntity
  8
0
100
AcDbLine
 10
1952.0
 20
3600.0
 30
0.0
 11
1964.0
 21
3600.0
 31
0.0
  0
LINE
  5
143
330
138
100
AcDbEntity
  8
0
100
AcDbLine
 10
1940.0
 20
3600.0
 30
0.0
 11
1940.0
 21
3600.0
 31
0.0
  0
MTEXT
  5
144
330
138
100
AcDbEntity
  8
0
100
AcDbMText
 10
1940.0
 20
3610.625
 30
0.0
 40
20.0
 71
5
  1
0
  0
POINT
  5
145
330
138
100
AcDbEntity
  8
Defpoints
100
AcDbPoint
 10
1940.0
 20
3600.0
 30
0.0
  0
POINT
  5
146
330
138
100
AcDbEntity
  8
Defpoints
100
AcDbPoint
 10
1940.0
 20
3400.0
 30
0.0
  0
POINT
  5
147
330
138
100
AcDbEntity
  8
Defpoints
100
AcDbPoint
 10
1940.0
 20
4000.0
 30
0.0
  0
ENDBLK
  5
13A
330
138
100
AcDbEntity
  8
0
100
AcDbBlockEnd
  0
BLOCK
  5
158
330
157
100
AcDbEntity
  8
0
100
AcDbBlockBegin
  2
*D15
 70
1
 10
0.0
 20
0.0
 30
0.0
  3
*D15
  1

  0
LINE
  5
15A
330
157
100
AcDbEntity
  8
0
100
AcDbLine
 10
2390.0
 20
3320.0
 30
0.0
 11
2390.0
 21
3120.0
 31
0.0
  0
LINE
  5
15B
330
157
100
AcDbEntity
  8
0
100
AcDbLine
 10
3930.0
 20
3320.0
 30
0.0
 11
3930.0
 21
3120.0
 31
0.0
  0
INSERT
  5
15C
330
157
100
AcDbEntity
  8
0
100
AcDbBlockReference
  2
_CLOSEDFILLED
 10
2390.0
 20
3120.0
 30
0.0
 41
12.0
 42
12.0
 50
180.0
  0
INSERT
  5
15E
330
157
100
AcDbEntity
  8
0
100
AcDbBlockReference
  2
_CLOSEDFILLED
 10
3930.0
 20
3120.0
 30
0.0
 41
12.0
 42
12.0
  0
LINE
  5
160
330
157
100
AcDbEntity
  8
0
100
AcDbLine
 10
2402.0
 20
3120.0
 30
0.0
 11
3120.0
 21
3120.0
 31
0.0
  0
LINE
  5
161
330
157
100
AcDbEntity
  8
0
100
AcDbLine
 10
3200.0
 20
3120.0
 30
0.0
 11
3918.0
 21
3120.0
 31
0.0
  0
MTEXT
  5
162
330
157
100
AcDbEntity
  8
0
100
AcDbMText
 10
3160.0
 20
3120.0
 30
0.0
 40
20.0
 71
5
  1
1540
  0
POINT
  5
163
330
157
100
AcDbEntity
  8
Defpoints
100
AcDbPoint
 10
2390.0
 20
3120.0
 30
0.0
  0
POINT
  5
164
330
157
100
AcDbEntity
  8
Defpoints
100
AcDbPoint
 10
2390.0
 20
3320.0
 30
0.0
  0
POINT
  5
165
330
157
100
AcDbEntity
  8
Defpoints
100
AcDbPoint
 10
3930.0
 20
3320.0
 30
0.0
  0
ENDBLK
  5
159
330
157
100
AcDbEntity
  8
0
100
AcDbBlockEnd
  0
BLOCK
  5
168
330
167
100
AcDbEntity
  8
0
100
AcDbBlockBegin
  2
*D16
 70
1
 10
0.0
 20
0.0
 30
0.0
  3
*D16
  1

  0
LINE
  5
16A
330
167
100
AcDbEntity
  8
0
100
AcDbLine
 10
3980.0
 20
3400.0
 30
0.0
 11
3980.0
 21
3600.0
 31
0.0
  0
LINE
  5
16B
330
167
100
AcDbEntity
  8
0
100
AcDbLine
 10
3980.0
 20
6150.0
 30
0.0
 11
3980.0
 21
3600.0
 31
0.0
  0
INSERT
  5
16C
330
167
100
AcDbEntity
  8
0
100
AcDbBlockReference
  2
_CLOSEDFILLED
 10
3980.0
 20
3600.0
 30
0.0
 41
12.0
 42
12.0
  0
INSERT
  5
16E
330
167
100
AcDbEntity
  8
0
100
AcDbBlockReference
  2
_CLOSEDFILLED
 10
3980.0
 20
3600.0
 30
0.0
 41
12.0
 42
12.0
 50
180.0
  0
LINE
  5
170
330
167
100
AcDbEntity
  8
0
100
AcDbLine
 10
3968.0
 20
3600.0
 30
0.0
 11
3956.0
 21
3600.0
 31
0.0
  0
LINE
  5
171
330
167
100
AcDbEntity
  8
0
100
AcDbLine
 10
3992.0
 20
3600.0
 30
0.0
 11
4004.0
 21
3600.0
 31
0.0
  0
LINE
  5
172
330
167
100
AcDbEntity
  8
0
100
AcDbLine
 10
3980.0
 20
3600.0
 30
0.0
 11
3980.0
 21
3600.0
 31
0.0
  0
MTEXT
  5
173
330
167
100
AcDbEntity
  8
0
100
AcDbMText
 10
3980.0
 20
3610.625
 30
0.0
 40
20.0
 71
5
  1
0
  0
POINT
  5
174
330
167
100
AcDbEntity
  8
Defpoints
100
AcDbPoint
 10
3980.0
 20
3600.0
 30
0.0
  0
POINT
  5
175
330
167
100
AcDbEntity
  8
Defpoints
100
AcDbPoint
 10
3980.0
 20
3400.0
 30
0.0
  0
POINT
  5
176
330
167
100
AcDbEntity
  8
Defpoints
100
AcDbPoint
 10
3980.0
 20
6150.0
 30
0.0
  0
ENDBLK
  5
169
330
167
100
AcDbEntity
  8
0
100
AcDbBlockEnd
  0
BLOCK
  5
179
330
178
100
AcDbEntity
  8
0
100
AcDbBlockBegin
  2
*D17
 70
1
 10
0.0
 20
0.0
 30
0.0
  3
*D17
  1

  0
LINE
  5
17B
330
178
100
AcDbEntity
  8
0
100
AcDbLine
 10
2358.0
 20
4932.0
 30
0.0
 11
2358.0
 21
4812.0
 31
0.0
  0
LINE
  5
17C
330
178
100
AcDbEntity
  8
0
100
AcDbLine
 10
2358.0
 20
6132.0
 30
0.0
 11
2358.0
 21
4812.0
 31
0.0
  0
INSERT
  5
17D
330
178
100
AcDbEntity
  8
0
100
AcDbBlockReference
  2
_CLOSEDFILLED
 10
2358.0
 20
4812.0
 30
0.0
 41
12.0
 42
12.0
  0
INSERT
  5
17F
330
178
100
AcDbEntity
  8
0
100
AcDbBlockReference
  2
_CLOSEDFILLED
 10
2358.0
 20
4812.0
 30
0.0
 41
12.0
 42
12.0
 50
180.0
  0
LINE
  5
181
330
178
100
AcDbEntity
  8
0
100
AcDbLine
 10
2346.0
 20
4812.0
 30
0.0
 11
2334.0
 21
4812.0
 31
0.0
  0
LINE
  5
182
330
178
100
AcDbEntity
  8
0
100
AcDbLine
 10
2370.0
 20
4812.0
 30
0.0
 11
2382.0
 21
4812.0
 31
0.0
  0
LINE
  5
183
330
178
100
AcDbEntity
  8
0
100
AcDbLine
 10
2358.0
 20
4812.0
 30
0.0
 11
2358.0
 21
4812.0
 31
0.0
  0
MTEXT
  5
184
330
178
100
AcDbEntity
  8
0
100
AcDbMText
 10
2358.0
 20
4822.625
 30
0.0
 40
20.0
 71
5
  1
0
  0
POINT
  5
185
330
178
100
AcDbEntity
  8
Defpoints
100
AcDbPoint
 10
2358.0
 20
4812.0
 30
0.0
  0
POINT
  5
186
330
178
100
AcDbEntity
  8
Defpoints
100
AcDbPoint
 10
2358.0
 20
4932.0
 30
0.0
  0
POINT
  5
187
330
178
100
AcDbEntity
  8
Defpoints
100
AcDbPoint
 10
2358.0
 20
6132.0
 30
0.0
  0
ENDBLK
  5
17A
330
178
100
AcDbEntity
  8
0
100
AcDbBlockEnd
  0
ENDSEC
  0
SECTION
  2
ENTITIES
  0
LWPOLYLINE
  5
37
330
17
100
AcDbEntity
  8
TRIM
100
AcDbPolyline
 90
4
 70
1
 10
300.0
 20
3050.0
 10
1890.0
 20
3050.0
 10
1890.0
 20
3100.0
 10
300.0
 20
3100.0
  0
LINE
  5
38
330
17
100
AcDbEntity
  8
TRIM
100
AcDbLine
 10
300.0
 20
3050.0
 30
0.0
 11
1890.0
 21
3100.0
 31
0.0
  0
LINE
  5
39
330
17
100
AcDbEntity
  8
TRIM
100
AcDbLine
 10
1890.0
 20
3050.0
 30
0.0
 11
300.0
 21
3100.0
 31
0.0
  0
LWPOLYLINE
  5
3A
330
17
100
AcDbEntity
  8
TRIM
100
AcDbPolyline
 90
4
 70
1
 10
300.0
 20
300.0
 10
350.0
 20
300.0
 10
350.0
 20
3050.0
 10
300.0
 20
3050.0
  0
LINE
  5
3B
330
17
100
AcDbEntity
  8
TRIM
100
AcDbLine
 10
300.0
 20
300.0
 30
0.0
 11
350.0
 21
3050.0
 31
0.0
  0
LINE
  5
3C
330
17
100
AcDbEntity
  8
TRIM
100
AcDbLine
 10
350.0
 20
300.0
 30
0.0
 11
300.0
 21
3050.0
 31
0.0
  0
LWPOLYLINE
  5
3D
330
17
100
AcDbEntity
  8
OUTLINE
100
AcDbPolyline
 90
4
 70
1
 10
350.0
 20
300.0
 10
1890.0
 20
300.0
 10
1890.0
 20
3050.0
 10
350.0
 20
3050.0
  0
LINE
  5
3E
330
17
100
AcDbEntity
  8
BOARD
100
AcDbLine
 10
350.0
 20
350.0
 30
0.0
 11
1890.0
 21
350.0
 31
0.0
  0
LINE
  5
3F
330
17
100
AcDbEntity
  8
BOARD
100
AcDbLine
 10
350.0
 20
2200.0
 30
0.0
 11
1890.0
 21
2200.0
 31
0.0
  0
LINE
  5
40
330
17
100
AcDbEntity
  8
BOARD
100
AcDbLine
 10
368.0
 20
300.0
 30
0.0
 11
368.0
 21
3050.0
 31
0.0
  0
LINE
  5
41
330
17
100
AcDbEntity
  8
BOARD
100
AcDbLine
 10
1872.0
 20
300.0
 30
0.0
 11
1872.0
 21
3050.0
 31
0.0
  0
LWPOLYLINE
  5
42
330
17
100
AcDbEntity
  8
DOOR
100
AcDbPolyline
 90
4
 70
1
 10
370.0
 20
2200.0
 10
744.5
 20
2200.0
 10
744.5
 20
3032.0
 10
370.0
 20
3032.0
  0
LWPOLYLINE
  5
43
330
17
100
AcDbEntity
  8
DOOR
100
AcDbPolyline
 90
4
 70
1
 10
744.5
 20
2200.0
 10
1119.0
 20
2200.0
 10
1119.0
 20
3032.0
 10
744.5
 20
3032.0
  0
LWPOLYLINE
  5
44
330
17
100
AcDbEntity
  8
DOOR
100
AcDbPolyline
 90
4
 70
1
 10
1121.0
 20
2200.0
 10
1495.5
 20
2200.0
 10
1495.5
 20
3032.0
 10
1121.0
 20
3032.0
  0
LWPOLYLINE
  5
45
330
17
100
AcDbEntity
  8
DOOR
100
AcDbPolyline
 90
4
 70
1
 10
1497.5
 20
2200.0
 10
1872.0
 20
2200.0
 10
1872.0
 20
3032.0
 10
1497.5
 20
3032.0
  0
LINE
  5
46
330
17
100
AcDbEntity
  8
BOARD
100
AcDbLine
 10
1120.0
 20
2200.0
 30
0.0
 11
1120.0
 21
3032.0
 31
0.0
  0
LINE
  5
47
330
17
100
AcDbEntity
  8
BOARD
100
AcDbLine
 10
1120.0
 20
350.0
 30
0.0
 11
1120.0
 21
2200.0
 31
0.0
  0
LWPOLYLINE
  5
48
330
17
100
AcDbEntity
  8
DOOR
100
AcDbPolyline
 90
4
 70
1
 10
370.0
 20
350.0
 10
745.0
 20
350.0
 10
745.0
 20
2200.0
 10
370.0
 20
2200.0
  0
LWPOLYLINE
  5
49
330
17
100
AcDbEntity
  8
DOOR
100
AcDbPolyline
 90
4
 70
1
 10
745.0
 20
350.0
 10
1120.0
 20
350.0
 10
1120.0
 20
2200.0
 10
745.0
 20
2200.0
  0
LWPOLYLINE
  5
4A
330
17
100
AcDbEntity
  8
DRAWER
100
AcDbPolyline
 90
4
 70
1
 10
1140.0
 20
1778.0
 10
1870.0
 20
1778.0
 10
1870.0
 20
2200.0
 10
1140.0
 20
2200.0
  0
LWPOLYLINE
  5
4B
330
17
100
AcDbEntity
  8
DRAWER
100
AcDbPolyline
 90
4
 70
1
 10
1140.0
 20
352.0
 10
1870.0
 20
352.0
 10
1870.0
 20
772.0
 10
1140.0
 20
772.0
  0
DIMENSION
  5
4C
330
17
100
AcDbEntity
  8
0
100
AcDbDimension
280
0
  2
*D1
  3
Standard
 10
300.0
 20
20.0
 30
0.0
 11
1095.0
 21
20.0
 31
0.0
 70
32
 71
5
  1
<>
100
AcDbAlignedDimension
 13
300.0
 23
220.0
 33
0.0
 14
1890.0
 24
220.0
 34
0.0
 50
0.0
100
AcDbRotatedDimension
1001
ACAD
1000
DSTYLE
1002
{
1070
140
1040
20.0
1070
41
1040
12.0
1002
}
  0
DIMENSION
  5
60
330
17
100
AcDbEntity
  8
0
100
AcDbDimension
280
0
  2
*D2
  3
Standard
 10
350.0
 20
120.0
 30
0.0
 11
1120.0
 21
120.0
 31
0.0
 70
32
 71
5
  1
<>
100
AcDbAlignedDimension
 13
350.0
 23
270.0
 33
0.0
 14
1890.0
 24
270.0
 34
0.0
 50
0.0
100
AcDbRotatedDimension
1001
ACAD
1000
DSTYLE
1002
{
1070
140
1040
20.0
1070
41
1040
12.0
1002
}
  0
DIMENSION
  5
70
330
17
100
AcDbEntity
  8
0
100
AcDbDimension
280
0
  2
*D3
  3
Standard
 10
300.0
 20
170.0
 30
0.0
 11
325.0
 21
180.625
 31
0.0
 70
32
 71
5
  1
<>
100
AcDbAlignedDimension
 13
300.0
 23
270.0
 33
0.0
 14
350.0
 24
270.0
 34
0.0
 50
0.0
100
AcDbRotatedDimension
1001
ACAD
1000
DSTYLE
1002
{
1070
140
1040
20.0
1070
41
1040
12.0
1002
}
  0
DIMENSION
  5
7F
330
17
100
AcDbEntity
  8
0
100
AcDbDimension
280
0
  2
*D4
  3
Standard
 10
1970.0
 20
500.0
 30
0.0
 11
1970.0
 21
510.625
 31
0.0
 70
32
 71
5
  1
<>
100
AcDbAlignedDimension
 13
1970.0
 23
300.0
 33
0.0
 14
1970.0
 24
3100.0
 34
0.0
 50
0.0
100
AcDbRotatedDimension
1001
ACAD
1000
DSTYLE
1002
{
1070
140
1040
20.0
1070
41
1040
12.0
1002
}
  0
DIMENSION
  5
90
330
17
100
AcDbEntity
  8
0
100
AcDbDimension
280
0
  2
*D5
  3
Standard
 10
1920.0
 20
3150.0
 30
0.0
 11
1920.0
 21
3160.625
 31
0.0
 70
32
 71
5
  1
<>
100
AcDbAlignedDimension
 13
1920.0
 23
3050.0
 33
0.0
 14
1920.0
 24
3100.0
 34
0.0
 50
0.0
100
AcDbRotatedDimension
1001
ACAD
1000
DSTYLE
1002
{
1070
140
1040
20.0
1070
41
1040
12.0
1002
}
  0
DIMENSION
  5
A1
330
17
100
AcDbEntity
  8
0
100
AcDbDimension
280
0
  2
*D6
  3
Standard
 10
1920.0
 20
450.0
 30
0.0
 11
1920.0
 21
460.625
 31
0.0
 70
32
 71
5
  1
<>
100
AcDbAlignedDimension
 13
1920.0
 23
300.0
 33
0.0
 14
1920.0
 24
3050.0
 34
0.0
 50
0.0
100
AcDbRotatedDimension
1001
ACAD
1000
DSTYLE
1002
{
1070
140
1040
20.0
1070
41
1040
12.0
1002
}
  0
DIMENSION
  5
B2
330
17
100
AcDbEntity
  8
0
100
AcDbDimension
280
0
  2
*D7
  3
Standard
 10
300.0
 20
200.0
 30
0.0
 11
300.0
 21
210.625
 31
0.0
 70
32
 71
5
  1
<>
100
AcDbAlignedDimension
 13
300.0
 23
300.0
 33
0.0
 14
300.0
 24
350.0
 34
0.0
 50
0.0
100
AcDbRotatedDimension
1001
ACAD
1000
DSTYLE
1002
{
1070
140
1040
20.0
1070
41
1040
12.0
1002
}
  0
DIMENSION
  5
C3
330
17
100
AcDbEntity
  8
0
100
AcDbDimension
280
0
  2
*D8
  3
Standard
 10
300.0
 20
250.0
 30
0.0
 11
300.0
 21
260.625
 31
0.0
 70
32
 71
5
  1
<>
100
AcDbAlignedDimension
 13
300.0
 23
350.0
 33
0.0
 14
300.0
 24
2200.0
 34
0.0
 50
0.0
100
AcDbRotatedDimension
1001
ACAD
1000
DSTYLE
1002
{
1070
140
1040
20.0
1070
41
1040
12.0
1002
}
  0
DIMENSION
  5
D4
330
17
100
AcDbEntity
  8
0
100
AcDbDimension
280
0
  2
*D9
  3
Standard
 10
370.0
 20
3192.0
 30
0.0
 11
557.25
 21
3192.0
 31
0.0
 70
32
 71
5
  1
<>
100
AcDbAlignedDimension
 13
370.0
 23
3072.0
 33
0.0
 14
744.5
 24
3072.0
 34
0.0
 50
0.0
100
AcDbRotatedDimension
1001
ACAD
1000
DSTYLE
1002
{
1070
140
1040
20.0
1070
41
1040
12.0
1002
}
  0
TEXT
  5
E4
330
17
100
AcDbEntity
  8
TEXT
100
AcDbText
 10
945.0
 20
-50.0
 30
0.0
 40
25.0
  1
正立面图 (Front Elevation)
 11
945.0
 21
-50.0
 31
0.0
100
AcDbText
  0
LWPOLYLINE
  5
E5
330
17
100
AcDbEntity
  8
TRIM
100
AcDbPolyline
 90
4
 70
1
 10
2390.0
 20
3050.0
 10
2990.0
 20
3050.0
 10
2990.0
 20
3100.0
 10
2390.0
 20
3100.0
  0
LINE
  5
E6
330
17
100
AcDbEntity
  8
TRIM
100
AcDbLine
 10
2390.0
 20
3050.0
 30
0.0
 11
2990.0
 21
3100.0
 31
0.0
  0
LINE
  5
E7
330
17
100
AcDbEntity
  8
TRIM
100
AcDbLine
 10
2990.0
 20
3050.0
 30
0.0
 11
2390.0
 21
3100.0
 31
0.0
  0
LWPOLYLINE
  5
E8
330
17
100
AcDbEntity
  8
OUTLINE
100
AcDbPolyline
 90
4
 70
1
 10
2390.0
 20
300.0
 10
2990.0
 20
300.0
 10
2990.0
 20
3050.0
 10
2390.0
 20
3050.0
  0
LINE
  5
E9
330
17
100
AcDbEntity
  8
BOARD
100
AcDbLine
 10
2390.0
 20
350.0
 30
0.0
 11
2990.0
 21
350.0
 31
0.0
  0
LINE
  5
EA
330
17
100
AcDbEntity
  8
BOARD
100
AcDbLine
 10
2408.0
 20
300.0
 30
0.0
 11
2408.0
 21
3050.0
 31
0.0
  0
DIMENSION
  5
EB
330
17
100
AcDbEntity
  8
0
100
AcDbDimension
280
0
  2
*D10
  3
Standard
 10
2390.0
 20
20.0
 30
0.0
 11
2690.0
 21
20.0
 31
0.0
 70
32
 71
5
  1
<>
100
AcDbAlignedDimension
 13
2390.0
 23
220.0
 33
0.0
 14
2990.0
 24
220.0
 34
0.0
 50
0.0
100
AcDbRotatedDimension
1001
ACAD
1000
DSTYLE
1002
{
1070
140
1040
20.0
1070
41
1040
12.0
1002
}
  0
DIMENSION
  5
FB
330
17
100
AcDbEntity
  8
0
100
AcDbDimension
280
0
  2
*D11
  3
Standard
 10
3040.0
 20
500.0
 30
0.0
 11
3040.0
 21
510.625
 31
0.0
 70
32
 71
5
  1
<>
100
AcDbAlignedDimension
 13
3040.0
 23
300.0
 33
0.0
 14
3040.0
 24
3100.0
 34
0.0
 50
0.0
100
AcDbRotatedDimension
1001
ACAD
1000
DSTYLE
1002
{
1070
140
1040
20.0
1070
41
1040
12.0
1002
}
  0
DIMENSION
  5
10C
330
17
100
AcDbEntity
  8
0
100
AcDbDimension
280
0
  2
*D12
  3
Standard
 10
3020.0
 20
3130.0
 30
0.0
 11
3020.0
 21
3140.625
 31
0.0
 70
32
 71
5
  1
<>
100
AcDbAlignedDimension
 13
3020.0
 23
3050.0
 33
0.0
 14
3020.0
 24
3100.0
 34
0.0
 50
0.0
100
AcDbRotatedDimension
1001
ACAD
1000
DSTYLE
1002
{
1070
140
1040
20.0
1070
41
1040
12.0
1002
}
  0
TEXT
  5
11D
330
17
100
AcDbEntity
  8
TEXT
100
AcDbText
 10
2540.0
 20
-50.0
 30
0.0
 40
25.0
  1
侧立面图 (Side Elevation)
 11
2540.0
 21
-50.0
 31
0.0
100
AcDbText
  0
LWPOLYLINE
  5
11E
330
17
100
AcDbEntity
  8
TRIM
100
AcDbPolyline
 90
4
 70
1
 10
300.0
 20
3400.0
 10
350.0
 20
3400.0
 10
350.0
 20
4000.0
 10
300.0
 20
4000.0
  0
LINE
  5
11F
330
17
100
AcDbEntity
  8
TRIM
100
AcDbLine
 10
300.0
 20
3400.0
 30
0.0
 11
350.0
 21
4000.0
 31
0.0
  0
LINE
  5
120
330
17
100
AcDbEntity
  8
TRIM
100
AcDbLine
 10
350.0
 20
3400.0
 30
0.0
 11
300.0
 21
4000.0
 31
0.0
  0
LWPOLYLINE
  5
121
330
17
100
AcDbEntity
  8
OUTLINE
100
AcDbPolyline
 90
4
 70
1
 10
350.0
 20
3400.0
 10
1890.0
 20
3400.0
 10
1890.0
 20
4000.0
 10
350.0
 20
4000.0
  0
LINE
  5
122
330
17
100
AcDbEntity
  8
BOARD
100
AcDbLine
 10
368.0
 20
3400.0
 30
0.0
 11
368.0
 21
4000.0
 31
0.0
  0
LINE
  5
123
330
17
100
AcDbEntity
  8
BOARD
100
AcDbLine
 10
1872.0
 20
3400.0
 30
0.0
 11
1872.0
 21
4000.0
 31
0.0
  0
LINE
  5
124
330
17
100
AcDbEntity
  8
BOARD
100
AcDbLine
 10
350.0
 20
3982.0
 30
0.0
 11
1890.0
 21
3982.0
 31
0.0
  0
LINE
  5
125
330
17
100
AcDbEntity
  8
BOARD
100
AcDbLine
 10
1120.0
 20
3400.0
 30
0.0
 11
1120.0
 21
4000.0
 31
0.0
  0
LINE
  5
126
330
17
100
AcDbEntity
  8
BOARD
100
AcDbLine
 10
1120.0
 20
3400.0
 30
0.0
 11
1120.0
 21
4000.0
 31
0.0
  0
DIMENSION
  5
127
330
17
100
AcDbEntity
  8
0
100
AcDbDimension
280
0
  2
*D13
  3
Standard
 10
300.0
 20
3120.0
 30
0.0
 11
1095.0
 21
3120.0
 31
0.0
 70
32
 71
5
  1
<>
100
AcDbAlignedDimension
 13
300.0
 23
3320.0
 33
0.0
 14
1890.0
 24
3320.0
 34
0.0
 50
0.0
100
AcDbRotatedDimension
1001
ACAD
1000
DSTYLE
1002
{
1070
140
1040
20.0
1070
41
1040
12.0
1002
}
  0
DIMENSION
  5
137
330
17
100
AcDbEntity
  8
0
100
AcDbDimension
280
0
  2
*D14
  3
Standard
 10
1940.0
 20
3600.0
 30
0.0
 11
1940.0
 21
3610.625
 31
0.0
 70
32
 71
5
  1
<>
100
AcDbAlignedDimension
 13
1940.0
 23
3400.0
 33
0.0
 14
1940.0
 24
4000.0
 34
0.0
 50
0.0
100
AcDbRotatedDimension
1001
ACAD
1000
DSTYLE
1002
{
1070
140
1040
20.0
1070
41
1040
12.0
1002
}
  0
TEXT
  5
148
330
17
100
AcDbEntity
  8
TEXT
100
AcDbText
 10
975.0
 20
4200.0
 30
0.0
 40
25.0
  1
平面图 (Plan View)
 11
975.0
 21
4200.0
 31
0.0
100
AcDbText
  0
LWPOLYLINE
  5
149
330
17
100
AcDbEntity
  8
INNER
100
AcDbPolyline
 90
4
 70
1
 10
2390.0
 20
3400.0
 10
3930.0
 20
3400.0
 10
3930.0
 20
6150.0
 10
2390.0
 20
6150.0
  0
LINE
  5
14A
330
17
100
AcDbEntity
  8
INNER
100
AcDbLine
 10
2390.0
 20
3450.0
 30
0.0
 11
3930.0
 21
3450.0
 31
0.0
  0
LINE
  5
14B
330
17
100
AcDbEntity
  8
INNER
100
AcDbLine
 10
2408.0
 20
3400.0
 30
0.0
 11
2408.0
 21
6150.0
 31
0.0
  0
LINE
  5
14C
330
17
100
AcDbEntity
  8
INNER
100
AcDbLine
 10
3912.0
 20
3400.0
 30
0.0
 11
3912.0
 21
6150.0
 31
0.0
  0
LINE
  5
14D
330
17
100
AcDbEntity
  8
INNER
100
AcDbLine
 10
3160.0
 20
3450.0
 30
0.0
 11
3160.0
 21
6132.0
 31
0.0
  0
LINE
  5
14E
330
17
100
AcDbEntity
  8
INNER
100
AcDbLine
 10
2408.0
 20
4932.0
 30
0.0
 11
3160.0
 21
4932.0
 31
0.0
  0
LINE
  5
14F
330
17
100
AcDbEntity
  8
INNER
100
AcDbLine
 10
3160.0
 20
4932.0
 30
0.0
 11
3912.0
 21
4932.0
 31
0.0
  0
LINE
  5
150
330
17
100
AcDbEntity
  8
INNER
100
AcDbLine
 10
2458.0
 20
5012.0
 30
0.0
 11
3110.0
 21
5012.0
 31
0.0
  0
LINE
  5
151
330
17
100
AcDbEntity
  8
INNER
100
AcDbLine
 10
3210.0
 20
5012.0
 30
0.0
 11
3862.0
 21
5012.0
 31
0.0
  0
LINE
  5
152
330
17
100
AcDbEntity
  8
INNER
100
AcDbLine
 10
2408.0
 20
5300.0
 30
0.0
 11
3160.0
 21
5300.0
 31
0.0
  0
LINE
  5
153
330
17
100
AcDbEntity
  8
INNER
100
AcDbLine
 10
3178.0
 20
4878.0
 30
0.0
 11
3912.0
 21
4878.0
 31
0.0
  0
LINE
  5
154
330
17
100
AcDbEntity
  8
INNER
100
AcDbLine
 10
2408.0
 20
3750.0
 30
0.0
 11
3160.0
 21
3750.0
 31
0.0
  0
LINE
  5
155
330
17
100
AcDbEntity
  8
INNER
100
AcDbLine
 10
2408.0
 20
4050.0
 30
0.0
 11
3160.0
 21
4050.0
 31
0.0
  0
DIMENSION
  5
156
330
17
100
AcDbEntity
  8
0
100
AcDbDimension
280
0
  2
*D15
  3
Standard
 10
2390.0
 20
3120.0
 30
0.0
 11
3160.0
 21
3120.0
 31
0.0
 70
32
 71
5
  1
<>
100
AcDbAlignedDimension
 13
2390.0
 23
3320.0
 33
0.0
 14
3930.0
 24
3320.0
 34
0.0
 50
0.0
100
AcDbRotatedDimension
1001
ACAD
1000
DSTYLE
1002
{
1070
140
1040
20.0
1070
41
1040
12.0
1002
}
  0
DIMENSION
  5
166
330
17
100
AcDbEntity
  8
0
100
AcDbDimension
280
0
  2
*D16
  3
Standard
 10
3980.0
 20
3600.0
 30
0.0
 11
3980.0
 21
3610.625
 31
0.0
 70
32
 71
5
  1
<>
100
AcDbAlignedDimension
 13
3980.0
 23
3400.0
 33
0.0
 14
3980.0
 24
6150.0
 34
0.0
 50
0.0
100
AcDbRotatedDimension
1001
ACAD
1000
DSTYLE
1002
{
1070
140
1040
20.0
1070
41
1040
12.0
1002
}
  0
DIMENSION
  5
177
330
17
100
AcDbEntity
  8
0
100
AcDbDimension
280
0
  2
*D17
  3
Standard
 10
2358.0
 20
4812.0
 30
0.0
 11
2358.0
 21
4822.625
 31
0.0
 70
32
 71
5
  1
<>
100
AcDbAlignedDimension
 13
2358.0
 23
4932.0
 33
0.0
 14
2358.0
 24
6132.0
 34
0.0
 50
0.0
100
AcDbRotatedDimension
1001
ACAD
1000
DSTYLE
1002
{
1070
140
1040
20.0
1070
41
1040
12.0
1002
}
  0
TEXT
  5
188
330
17
100
AcDbEntity
  8
TEXT
100
AcDbText
 10
3010.0
 20
3050.0
 30
0.0
 40
25.0
  1
内部结构图 (Internal Structure)
 11
3010.0
 21
3050.0
 31
0.0
100
AcDbText
  0
TEXT
  5
189
330
17
100
AcDbEntity
  8
INNER
100
AcDbText
 10
2508.0
 20
5532.0
 30
0.0
 40
20.0
  1
挂衣区
 11
2508.0
 21
5532.0
 31
0.0
100
AcDbText
  0
TEXT
  5
18A
330
17
100
AcDbEntity
  8
INNER
100
AcDbText
 10
2508.0
 20
3600.0
 30
0.0
 40
20.0
  1
层板区
 11
2508.0
 21
3600.0
 31
0.0
100
AcDbText
  0
TEXT
  5
18B
330
17
100
AcDbEntity
  8
INNER
100
AcDbText
 10
3228.0
 20
5089.0
 30
0.0
 40
20.0
  1
抽屉
 11
3228.0
 21
5089.0
 31
0.0
100
AcDbText
  0
TEXT
  5
18C
330
17
100
AcDbEntity
  8
TEXT
100
AcDbText
 10
2740.0
 20
3400.0
 30
0.0
 40
30.0
  1
衣柜设计图 - 尺寸说明
 11
2740.0
 21
3400.0
 31
0.0
100
AcDbText
  0
TEXT
  5
18D
330
17
100
AcDbEntity
  8
TEXT
100
AcDbText
 10
2740.0
 20
3350.0
 30
0.0
 40
22.0
  1
总宽: 1590mm (含收口50mm)
 11
2740.0
 21
3350.0
 31
0.0
100
AcDbText
  0
TEXT
  5
18E
330
17
100
AcDbEntity
  8
TEXT
100
AcDbText
 10
2740.0
 20
3315.0
 30
0.0
 40
22.0
  1
总深: 600mm
 11
2740.0
 21
3315.0
 31
0.0
100
AcDbText
  0
TEXT
  5
18F
330
17
100
AcDbEntity
  8
TEXT
100
AcDbText
 10
2740.0
 20
3280.0
 30
0.0
 40
22.0
  1
总高: 2800mm (含顶封板50mm)
 11
2740.0
 21
3280.0
 31
0.0
100
AcDbText
  0
TEXT
  5
190
330
17
100
AcDbEntity
  8
TEXT
100
AcDbText
 10
2740.0
 20
3245.0
 30
0.0
 40
22.0
  1
柜体尺寸: 1540×600×2750mm
 11
2740.0
 21
3245.0
 31
0.0
100
AcDbText
  0
TEXT
  5
191
330
17
100
AcDbEntity
  8
TEXT
100
AcDbText
 10
2740.0
 20
3210.0
 30
0.0
 40
22.0
  1
板材厚度: 18mm
 11
2740.0
 21
3210.0
 31
0.0
100
AcDbText
  0
TEXT
  5
192
330
17
100
AcDbEntity
  8
TEXT
100
AcDbText
 10
2740.0
 20
3175.0
 30
0.0
 40
22.0
  1
门板间隙: 2mm
 11
2740.0
 21
3175.0
 31
0.0
100
AcDbText
  0
TEXT
  5
193
330
17
100
AcDbEntity
  8
TEXT
100
AcDbText
 10
2740.0
 20
3110.0
 30
0.0
 40
22.0
  1
结构说明:
 11
2740.0
 21
3110.0
 31
0.0
100
AcDbText
  0
TEXT
  5
194
330
17
100
AcDbEntity
  8
TEXT
100
AcDbText
 10
2740.0
 20
3075.0
 30
0.0
 40
20.0
  1
- 顶封板: 50mm (斜线填充)
 11
2740.0
 21
3075.0
 31
0.0
100
AcDbText
  0
TEXT
  5
195
330
17
100
AcDbEntity
  8
TEXT
100
AcDbText
 10
2740.0
 20
3045.0
 30
0.0
 40
20.0
  1
- 左侧收口: 50mm (斜线填充)
 11
2740.0
 21
3045.0
 31
0.0
100
AcDbText
  0
TEXT
  5
196
330
17
100
AcDbEntity
  8
TEXT
100
AcDbText
 10
2740.0
 20
3015.0
 30
0.0
 40
20.0
  1
- 上部分: 4扇长门 (对开两组)
 11
2740.0
 21
3015.0
 31
0.0
100
AcDbText
  0
TEXT
  5
197
330
17
100
AcDbEntity
  8
TEXT
100
AcDbText
 10
2740.0
 20
2985.0
 30
0.0
 40
20.0
  1
- 下部分左侧: 2扇短门 + 层板
 11
2740.0
 21
2985.0
 31
0.0
100
AcDbText
  0
TEXT
  5
198
330
17
100
AcDbEntity
  8
TEXT
100
AcDbText
 10
2740.0
 20
2955.0
 30
0.0
 40
20.0
  1
- 下部分右侧: 2个抽屉
 11
2740.0
 21
2955.0
 31
0.0
100
AcDbText
  0
TEXT
  5
199
330
17
100
AcDbEntity
  8
TEXT
100
AcDbText
 10
2740.0
 20
2925.0
 30
0.0
 40
20.0
  1
- 上部挂衣区: 配挂衣杆
 11
2740.0
 21
2925.0
 31
0.0
100
AcDbText
  0
ENDSEC
  0
SECTION
  2
OBJECTS
  0
DICTIONARY
  5
A
330
0
100
AcDbDictionary
281
1
  3
ACAD_COLOR
350
B
  3
ACAD_GROUP
350
C
  3
ACAD_LAYOUT
350
D
  3
ACAD_MATERIAL
350
E
  3
ACAD_MLEADERSTYLE
350
F
  3
ACAD_MLINESTYLE
350
10
  3
ACAD_PLOTSETTINGS
350
11
  3
ACAD_PLOTSTYLENAME
350
12
  3
ACAD_SCALELIST
350
14
  3
ACAD_TABLESTYLE
350
15
  3
ACAD_VISUALSTYLE
350
16
  3
EZDXF_META
350
2D
  0
DICTIONARY
  5
B
330
A
100
AcDbDictionary
281
1
  0
DICTIONARY
  5
C
330
A
100
AcDbDictionary
281
1
  0
DICTIONARY
  5
D
330
A
100
AcDbDictionary
281
1
  3
Model
350
1A
  3
Layout1
350
1E
  0
DICTIONARY
  5
E
330
A
100
AcDbDictionary
281
1
  3
ByBlock
350
1F
  3
ByLayer
350
20
  3
Global
350
21
  0
DICTIONARY
  5
F
330
A
100
AcDbDictionary
281
1
  3
Standard
350
2C
  0
DICTIONARY
  5
10
330
A
100
AcDbDictionary
281
1
  3
Standard
350
22
  0
DICTIONARY
  5
11
330
A
100
AcDbDictionary
281
1
  0
ACDBDICTIONARYWDFLT
  5
12
330
A
100
AcDbDictionary
281
1
  3
Normal
350
13
100
AcDbDictionaryWithDefault
340
13
  0
ACDBPLACEHOLDER
  5
13
330
12
  0
DICTIONARY
  5
14
330
A
100
AcDbDictionary
281
1
  0
DICTIONARY
  5
15
330
A
100
AcDbDictionary
281
1
  0
DICTIONARY
  5
16
330
A
100
AcDbDictionary
281
1
  0
LAYOUT
  5
1A
330
D
100
AcDbPlotSettings
  1

  4
A3
  6

 40
7.5
 41
20.0
 42
7.5
 43
20.0
 44
420.0
 45
297.0
 46
0.0
 47
0.0
 48
0.0
 49
0.0
140
0.0
141
0.0
142
1.0
143
1.0
 70
1024
 72
1
 73
0
 74
5
  7

 75
16
 76
0
 77
2
 78
300
147
1.0
148
0.0
149
0.0
100
AcDbLayout
  1
Model
 70
1
 71
0
 10
0.0
 20
0.0
 11
420.0
 21
297.0
 12
0.0
 22
0.0
 32
0.0
 14
1e+20
 24
1e+20
 34
1e+20
 15
-1e+20
 25
-1e+20
 35
-1e+20
146
0.0
 13
0.0
 23
0.0
 33
0.0
 16
1.0
 26
0.0
 36
0.0
 17
0.0
 27
1.0
 37
0.0
 76
1
330
17
  0
LAYOUT
  5
1E
330
D
100
AcDbPlotSettings
  1

  4
A3
  6

 40
7.5
 41
20.0
 42
7.5
 43
20.0
 44
420.0
 45
297.0
 46
0.0
 47
0.0
 48
0.0
 49
0.0
140
0.0
141
0.0
142
1.0
143
1.0
 70
0
 72
1
 73
0
 74
5
  7

 75
16
 76
0
 77
2
 78
300
147
1.0
148
0.0
149
0.0
100
AcDbLayout
  1
Layout1
 70
1
 71
1
 10
0.0
 20
0.0
 11
420.0
 21
297.0
 12
0.0
 22
0.0
 32
0.0
 14
1e+20
 24
1e+20
 34
1e+20
 15
-1e+20
 25
-1e+20
 35
-1e+20
146
0.0
 13
0.0
 23
0.0
 33
0.0
 16
1.0
 26
0.0
 36
0.0
 17
0.0
 27
1.0
 37
0.0
 76
1
330
1B
  0
MATERIAL
  5
1F
102
{ACAD_REACTORS
330
E
102
}
330
E
100
AcDbMaterial
  1
ByBlock
  2

 70
0
 40
1.0
 71
1
 41
1.0
 91
-1023410177
 42
1.0
 72
1
  3

 73
1
 74
1
 75
1
 44
0.5
 73
0
 45
1.0
 46
1.0
 77
1
  4

 78
1
 79
1
170
1
 48
1.0
171
1
  6

172
1
173
1
174
1
140
1.0
141
1.0
175
1
  7

176
1
177
1
178
1
143
1.0
179
1
  8

270
1
271
1
272
1
145
1.0
146
1.0
273
1
  9

274
1
275
1
276
1
 42
1.0
 72
1
  3

 73
1
 74
1
 75
1
 94
63
  0
MATERIAL
  5
20
102
{ACAD_REACTORS
330
E
102
}
330
E
100
AcDbMaterial
  1
ByLayer
  2

 70
0
 40
1.0
 71
1
 41
1.0
 91
-1023410177
 42
1.0
 72
1
  3

 73
1
 74
1
 75
1
 44
0.5
 73
0
 45
1.0
 46
1.0
 77
1
  4

 78
1
 79
1
170
1
 48
1.0
171
1
  6

172
1
173
1
174
1
140
1.0
141
1.0
175
1
  7

176
1
177
1
178
1
143
1.0
179
1
  8

270
1
271
1
272
1
145
1.0
146
1.0
273
1
  9

274
1
275
1
276
1
 42
1.0
 72
1
  3

 73
1
 74
1
 75
1
 94
63
  0
MATERIAL
  5
21
102
{ACAD_REACTORS
330
E
102
}
330
E
100
AcDbMaterial
  1
Global
  2

 70
0
 40
1.0
 71
1
 41
1.0
 91
-1023410177
 42
1.0
 72
1
  3

 73
1
 74
1
 75
1
 44
0.5
 73
0
 45
1.0
 46
1.0
 77
1
  4

 78
1
 79
1
170
1
 48
1.0
171
1
  6

172
1
173
1
174
1
140
1.0
141
1.0
175
1
  7

176
1
177
1
178
1
143
1.0
179
1
  8

270
1
271
1
272
1
145
1.0
146
1.0
273
1
  9

274
1
275
1
276
1
 42
1.0
 72
1
  3

 73
1
 74
1
 75
1
 94
63
  0
MLINESTYLE
  5
22
102
{ACAD_REACTORS
330
10
102
}
330
10
100
AcDbMlineStyle
  2
Standard
 70
0
  3

 62
256
 51
90.0
 52
90.0
 71
2
 49
0.5
 62
256
  6
BYLAYER
 49
-0.5
 62
256
  6
BYLAYER
  0
MLEADERSTYLE
  5
2C
102
{ACAD_REACTORS
330
F
102
}
330
F
100
AcDbMLeaderStyle
179
2
170
2
171
1
172
0
 90
2
 40
0.0
 41
0.0
173
1
 91
-1056964608
 92
-2
290
1
 42
2.0
291
1
 43
8.0
  3
Standard
 44
4.0
300

342
29
174
1
175
1
176
0
178
1
 93
-1056964608
 45
4.0
292
0
297
0
 46
4.0
 94
-1056964608
 47
1.0
 49
1.0
140
1.0
294
1
141
0.0
177
0
142
1.0
295
0
296
0
143
3.75
271
0
272
9
273
9
  0
DICTIONARY
  5
2D
330
A
100
AcDbDictionary
280
1
281
1
  3
CREATED_BY_EZDXF
350
2E
  3
WRITTEN_BY_EZDXF
350
19C
  0
DICTIONARYVAR
  5
2E
330
2D
100
DictionaryVariables
280
0
  1
1.4.4 @ 2026-05-27T08:02:49.122042+00:00
  0
DICTIONARYVAR
  5
19C
330
2D
100
DictionaryVariables
280
0
  1
1.4.4 @ 2026-05-27T08:02:49.138900+00:00
  0
ENDSEC
  0
EOF
