  0
SECTION
  2
HEADER
  9
$ACADVER
  1
AC1024
  9
$ACADMAINTVER
 70
6
  9
$DWGCODEPAGE
  3
ANSI_1252
  9
$LASTSAVEDBY
  1
ezdxf
  9
$INSBASE
 10
0.0
 20
0.0
 30
0.0
  9
$EXTMIN
 10
1e+20
 20
1e+20
 30
1e+20
  9
$EXTMAX
 10
-1e+20
 20
-1e+20
 30
-1e+20
  9
$LIMMIN
 10
0.0
 20
0.0
  9
$LIMMAX
 10
420.0
 20
297.0
  9
$ORTHOMODE
 70
0
  9
$REGENMODE
 70
1
  9
$FILLMODE
 70
1
  9
$QTEXTMODE
 70
0
  9
$MIRRTEXT
 70
1
  9
$LTSCALE
 40
1.0
  9
$ATTMODE
 70
1
  9
$TEXTSIZE
 40
2.5
  9
$TRACEWID
 40
1.0
  9
$TEXTSTYLE
  7
Standard
  9
$CLAYER
  8
0
  9
$CELTYPE
  6
ByLayer
  9
$CECOLOR
 62
256
  9
$CELTSCALE
 40
1.0
  9
$DISPSILH
 70
0
  9
$DIMSCALE
 40
1.0
  9
$DIMASZ
 40
2.5
  9
$DIMEXO
 40
0.625
  9
$DIMDLI
 40
3.75
  9
$DIMRND
 40
0.0
  9
$DIMDLE
 40
0.0
  9
$DIMEXE
 40
1.25
  9
$DIMTP
 40
0.0
  9
$DIMTM
 40
0.0
  9
$DIMTXT
 40
2.5
  9
$DIMCEN
 40
2.5
  9
$DIMTSZ
 40
0.0
  9
$DIMTOL
 70
0
  9
$DIMLIM
 70
0
  9
$DIMTIH
 70
0
  9
$DIMTOH
 70
0
  9
$DIMSE1
 70
0
  9
$DIMSE2
 70
0
  9
$DIMTAD
 70
1
  9
$DIMZIN
 70
8
  9
$DIMBLK
  1

  9
$DIMASO
 70
1
  9
$DIMSHO
 70
1
  9
$DIMPOST
  1

  9
$DIMAPOST
  1

  9
$DIMALT
 70
0
  9
$DIMALTD
 70
3
  9
$DIMALTF
 40
0.03937007874
  9
$DIMLFAC
 40
1.0
  9
$DIMTOFL
 70
1
  9
$DIMTVP
 40
0.0
  9
$DIMTIX
 70
0
  9
$DIMSOXD
 70
0
  9
$DIMSAH
 70
0
  9
$DIMBLK1
  1

  9
$DIMBLK2
  1

  9
$DIMSTYLE
  2
ISO-25
  9
$DIMCLRD
 70
0
  9
$DIMCLRE
 70
0
  9
$DIMCLRT
 70
0
  9
$DIMTFAC
 40
1.0
  9
$DIMGAP
 40
0.625
  9
$DIMJUST
 70
0
  9
$DIMSD1
 70
0
  9
$DIMSD2
 70
0
  9
$DIMTOLJ
 70
0
  9
$DIMTZIN
 70
8
  9
$DIMALTZ
 70
0
  9
$DIMALTTZ
 70
0
  9
$DIMUPT
 70
0
  9
$DIMDEC
 70
2
  9
$DIMTDEC
 70
2
  9
$DIMALTU
 70
2
  9
$DIMALTTD
 70
3
  9
$DIMTXSTY
  7
Standard
  9
$DIMAUNIT
 70
0
  9
$DIMADEC
 70
0
  9
$DIMALTRND
 40
0.0
  9
$DIMAZIN
 70
0
  9
$DIMDSEP
 70
44
  9
$DIMATFIT
 70
3
  9
$DIMFRAC
 70
0
  9
$DIMLDRBLK
  1

  9
$DIMLUNIT
 70
2
  9
$DIMLWD
 70
-2
  9
$DIMLWE
 70
-2
  9
$DIMTMOVE
 70
0
  9
$DIMFXL
 40
1.0
  9
$DIMFXLON
 70
0
  9
$DIMJOGANG
 40
0.785398163397
  9
$DIMTFILL
 70
0
  9
$DIMTFILLCLR
 70
0
  9
$DIMARCSYM
 70
0
  9
$DIMLTYPE
  6

  9
$DIMLTEX1
  6

  9
$DIMLTEX2
  6

  9
$DIMTXTDIRECTION
 70
0
  9
$LUNITS
 70
2
  9
$LUPREC
 70
4
  9
$SKETCHINC
 40
1.0
  9
$FILLETRAD
 40
10.0
  9
$AUNITS
 70
0
  9
$AUPREC
 70
2
  9
$MENU
  1
.
  9
$ELEVATION
 40
0.0
  9
$PELEVATION
 40
0.0
  9
$THICKNESS
 40
0.0
  9
$LIMCHECK
 70
0
  9
$CHAMFERA
 40
0.0
  9
$CHAMFERB
 40
0.0
  9
$CHAMFERC
 40
0.0
  9
$CHAMFERD
 40
0.0
  9
$SKPOLY
 70
0
  9
$TDCREATE
 40
2461188.6778819445
  9
$TDUCREATE
 40
2458532.153996898
  9
$TDUPDATE
 40
2461188.6778819445
  9
$TDUUPDATE
 40
2458532.1544311
  9
$TDINDWG
 40
0.0
  9
$TDUSRTIMER
 40
0.0
  9
$USRTIMER
 70
1
  9
$ANGBASE
 50
0.0
  9
$ANGDIR
 70
0
  9
$PDMODE
 70
0
  9
$PDSIZE
 40
0.0
  9
$PLINEWID
 40
0.0
  9
$SPLFRAME
 70
0
  9
$SPLINETYPE
 70
6
  9
$SPLINESEGS
 70
8
  9
$HANDSEED
  5
274
  9
$SURFTAB1
 70
6
  9
$SURFTAB2
 70
6
  9
$SURFTYPE
 70
6
  9
$SURFU
 70
6
  9
$SURFV
 70
6
  9
$UCSBASE
  2

  9
$UCSNAME
  2

  9
$UCSORG
 10
0.0
 20
0.0
 30
0.0
  9
$UCSXDIR
 10
1.0
 20
0.0
 30
0.0
  9
$UCSYDIR
 10
0.0
 20
1.0
 30
0.0
  9
$UCSORTHOREF
  2

  9
$UCSORTHOVIEW
 70
0
  9
$UCSORGTOP
 10
0.0
 20
0.0
 30
0.0
  9
$UCSORGBOTTOM
 10
0.0
 20
0.0
 30
0.0
  9
$UCSORGLEFT
 10
0.0
 20
0.0
 30
0.0
  9
$UCSORGRIGHT
 10
0.0
 20
0.0
 30
0.0
  9
$UCSORGFRONT
 10
0.0
 20
0.0
 30
0.0
  9
$UCSORGBACK
 10
0.0
 20
0.0
 30
0.0
  9
$PUCSBASE
  2

  9
$PUCSNAME
  2

  9
$PUCSORG
 10
0.0
 20
0.0
 30
0.0
  9
$PUCSXDIR
 10
1.0
 20
0.0
 30
0.0
  9
$PUCSYDIR
 10
0.0
 20
1.0
 30
0.0
  9
$PUCSORTHOREF
  2

  9
$PUCSORTHOVIEW
 70
0
  9
$PUCSORGTOP
 10
0.0
 20
0.0
 30
0.0
  9
$PUCSORGBOTTOM
 10
0.0
 20
0.0
 30
0.0
  9
$PUCSORGLEFT
 10
0.0
 20
0.0
 30
0.0
  9
$PUCSORGRIGHT
 10
0.0
 20
0.0
 30
0.0
  9
$PUCSORGFRONT
 10
0.0
 20
0.0
 30
0.0
  9
$PUCSORGBACK
 10
0.0
 20
0.0
 30
0.0
  9
$USERI1
 70
0
  9
$USERI2
 70
0
  9
$USERI3
 70
0
  9
$USERI4
 70
0
  9
$USERI5
 70
0
  9
$USERR1
 40
0.0
  9
$USERR2
 40
0.0
  9
$USERR3
 40
0.0
  9
$USERR4
 40
0.0
  9
$USERR5
 40
0.0
  9
$WORLDVIEW
 70
1
  9
$SHADEDGE
 70
3
  9
$SHADEDIF
 70
70
  9
$TILEMODE
 70
1
  9
$MAXACTVP
 70
64
  9
$PINSBASE
 10
0.0
 20
0.0
 30
0.0
  9
$PLIMCHECK
 70
0
  9
$PEXTMIN
 10
1e+20
 20
1e+20
 30
1e+20
  9
$PEXTMAX
 10
-1e+20
 20
-1e+20
 30
-1e+20
  9
$PLIMMIN
 10
0.0
 20
0.0
  9
$PLIMMAX
 10
420.0
 20
297.0
  9
$UNITMODE
 70
0
  9
$VISRETAIN
 70
1
  9
$PLINEGEN
 70
0
  9
$PSLTSCALE
 70
1
  9
$TREEDEPTH
 70
3020
  9
$CMLSTYLE
  2
Standard
  9
$CMLJUST
 70
0
  9
$CMLSCALE
 40
20.0
  9
$PROXYGRAPHICS
 70
1
  9
$MEASUREMENT
 70
1
  9
$CELWEIGHT
370
-1
  9
$ENDCAPS
280
0
  9
$JOINSTYLE
280
0
  9
$LWDISPLAY
290
0
  9
$INSUNITS
 70
4
  9
$HYPERLINKBASE
  1

  9
$STYLESHEET
  1

  9
$XEDIT
290
1
  9
$CEPSNTYPE
380
0
  9
$PSTYLEMODE
290
1
  9
$FINGERPRINTGUID
  2
{4B87C028-0FE1-44B1-9475-F24F2E492E84}
  9
$VERSIONGUID
  2
{679AD06D-DB27-4591-9F23-69D312467AFD}
  9
$EXTNAMES
290
1
  9
$PSVPSCALE
 40
0.0
  9
$OLESTARTUP
290
0
  9
$SORTENTS
280
127
  9
$INDEXCTL
280
0
  9
$HIDETEXT
280
1
  9
$XCLIPFRAME
280
1
  9
$HALOGAP
280
0
  9
$OBSCOLOR
 70
257
  9
$OBSLTYPE
280
0
  9
$INTERSECTIONDISPLAY
280
0
  9
$INTERSECTIONCOLOR
 70
257
  9
$DIMASSOC
280
2
  9
$PROJECTNAME
  1

  9
$CAMERADISPLAY
290
0
  9
$LENSLENGTH
 40
50.0
  9
$CAMERAHEIGHT
 40
0.0
  9
$STEPSPERSEC
 40
24.0
  9
$STEPSIZE
 40
100.0
  9
$3DDWFPREC
 40
2.0
  9
$PSOLWIDTH
 40
0.005
  9
$PSOLHEIGHT
 40
0.08
  9
$LOFTANG1
 40
1.570796326795
  9
$LOFTANG2
 40
1.570796326795
  9
$LOFTMAG1
 40
0.0
  9
$LOFTMAG2
 40
0.0
  9
$LOFTPARAM
 70
7
  9
$LOFTNORMALS
280
1
  9
$LATITUDE
 40
37.795
  9
$LONGITUDE
 40
-122.394
  9
$NORTHDIRECTION
 40
0.0
  9
$TIMEZONE
 70
-8000
  9
$LIGHTGLYPHDISPLAY
280
1
  9
$TILEMODELIGHTSYNCH
280
1
  9
$CMATERIAL
347
20
  9
$SOLIDHIST
280
0
  9
$SHOWHIST
280
1
  9
$DWFFRAME
280
2
  9
$DGNFRAME
280
2
  9
$REALWORLDSCALE
290
1
  9
$INTERFERECOLOR
 62
256
  9
$CSHADOW
280
0
  9
$SHADOWPLANELOCATION
 40
0.0
  0
ENDSEC
  0
SECTION
  2
CLASSES
  0
CLASS
  1
ACDBDICTIONARYWDFLT
  2
AcDbDictionaryWithDefault
  3
ObjectDBX Classes
 90
0
 91
0
280
0
281
0
  0
CLASS
  1
SUN
  2
AcDbSun
  3
SCENEOE
 90
1153
 91
0
280
0
281
0
  0
CLASS
  1
VISUALSTYLE
  2
AcDbVisualStyle
  3
ObjectDBX Classes
 90
4095
 91
0
280
0
281
0
  0
CLASS
  1
MATERIAL
  2
AcDbMaterial
  3
ObjectDBX Classes
 90
1153
 91
0
280
0
281
0
  0
CLASS
  1
SCALE
  2
AcDbScale
  3
ObjectDBX Classes
 90
1153
 91
0
280
0
281
0
  0
CLASS
  1
TABLESTYLE
  2
AcDbTableStyle
  3
ObjectDBX Classes
 90
4095
 91
0
280
0
281
0
  0
CLASS
  1
MLEADERSTYLE
  2
AcDbMLeaderStyle
  3
ACDB_MLEADERSTYLE_CLASS
 90
4095
 91
0
280
0
281
0
  0
CLASS
  1
DICTIONARYVAR
  2
AcDbDictionaryVar
  3
ObjectDBX Classes
 90
0
 91
0
280
0
281
0
  0
CLASS
  1
CELLSTYLEMAP
  2
AcDbCellStyleMap
  3
ObjectDBX Classes
 90
1152
 91
0
280
0
281
0
  0
CLASS
  1
MENTALRAYRENDERSETTINGS
  2
AcDbMentalRayRenderSettings
  3
SCENEOE
 90
1024
 91
0
280
0
281
0
  0
CLASS
  1
ACDBDETAILVIEWSTYLE
  2
AcDbDetailViewStyle
  3
ObjectDBX Classes
 90
1025
 91
0
280
0
281
0
  0
CLASS
  1
ACDBSECTIONVIEWSTYLE
  2
AcDbSectionViewStyle
  3
ObjectDBX Classes
 90
1025
 91
0
280
0
281
0
  0
CLASS
  1
RASTERVARIABLES
  2
AcDbRasterVariables
  3
ISM
 90
0
 91
0
280
0
281
0
  0
CLASS
  1
LAYOUT
  2
AcDbLayout
  3
ObjectDBX Classes
 90
0
 91
0
280
0
281
0
  0
CLASS
  1
ACDBPLACEHOLDER
  2
AcDbPlaceHolder
  3
ObjectDBX Classes
 90
0
 91
0
280
0
281
0
  0
ENDSEC
  0
SECTION
  2
TABLES
  0
TABLE
  2
VPORT
  5
8
330
0
100
AcDbSymbolTable
 70
1
  0
VPORT
  5
23
330
8
100
AcDbSymbolTableRecord
100
AcDbViewportTableRecord
  2
*Active
 70
0
 10
0.0
 20
0.0
 11
1.0
 21
1.0
 12
0.0
 22
0.0
 13
0.0
 23
0.0
 14
0.5
 24
0.5
 15
0.5
 25
0.5
 16
0.0
 26
0.0
 36
1.0
 17
0.0
 27
0.0
 37
0.0
 40
1000.0
 41
1.34
 42
50.0
 43
0.0
 44
0.0
 50
0.0
 51
0.0
 71
0
 72
1000
 73
1
 74
3
 75
0
 76
0
 77
0
 78
0
281
0
 65
0
146
0.0
  0
ENDTAB
  0
TABLE
  2
LTYPE
  5
2
330
0
100
AcDbSymbolTable
 70
3
  0
LTYPE
  5
24
330
2
100
AcDbSymbolTableRecord
100
AcDbLinetypeTableRecord
  2
ByBlock
 70
0
  3

 72
65
 73
0
 40
0.0
  0
LTYPE
  5
25
330
2
100
AcDbSymbolTableRecord
100
AcDbLinetypeTableRecord
  2
ByLayer
 70
0
  3

 72
65
 73
0
 40
0.0
  0
LTYPE
  5
26
330
2
100
AcDbSymbolTableRecord
100
AcDbLinetypeTableRecord
  2
Continuous
 70
0
  3

 72
65
 73
0
 40
0.0
  0
ENDTAB
  0
TABLE
  2
LAYER
  5
1
330
0
100
AcDbSymbolTable
 70
11
  0
LAYER
  5
27
330
1
100
AcDbSymbolTableRecord
100
AcDbLayerTableRecord
  2
0
 70
0
 62
7
  6
Continuous
370
-3
390
13
347
21
  0
LAYER
  5
28
330
1
100
AcDbSymbolTableRecord
100
AcDbLayerTableRecord
  2
Defpoints
 70
0
 62
7
  6
Continuous
290
0
370
-3
390
13
347
21
  0
LAYER
  5
2F
330
1
100
AcDbSymbolTableRecord
100
AcDbLayerTableRecord
  2
OUTLINE
 70
0
 62
7
  6
Continuous
370
-3
390
13
347
21
  0
LAYER
  5
30
330
1
100
AcDbSymbolTableRecord
100
AcDbLayerTableRecord
  2
BOARD
 70
0
 62
7
  6
Continuous
370
-3
390
13
347
21
  0
LAYER
  5
31
330
1
100
AcDbSymbolTableRecord
100
AcDbLayerTableRecord
  2
DOOR
 70
0
 62
1
  6
Continuous
370
-3
390
13
347
21
  0
LAYER
  5
32
330
1
100
AcDbSymbolTableRecord
100
AcDbLayerTableRecord
  2
INNER
 70
0
 62
3
  6
Continuous
370
-3
390
13
347
21
  0
LAYER
  5
33
330
1
100
AcDbSymbolTableRecord
100
AcDbLayerTableRecord
  2
HANGER
 70
0
 62
5
  6
Continuous
370
-3
390
13
347
21
  0
LAYER
  5
34
330
1
100
AcDbSymbolTableRecord
100
AcDbLayerTableRecord
  2
DIM
 70
0
 62
2
  6
Continuous
370
-3
390
13
347
21
  0
LAYER
  5
35
330
1
100
AcDbSymbolTableRecord
100
AcDbLayerTableRecord
  2
TEXT
 70
0
 62
1
  6
Continuous
370
-3
390
13
347
21
  0
LAYER
  5
36
330
1
100
AcDbSymbolTableRecord
100
AcDbLayerTableRecord
  2
PATTERN
 70
0
 62
8
  6
Continuous
370
-3
390
13
347
21
  0
LAYER
  5
37
330
1
100
AcDbSymbolTableRecord
100
AcDbLayerTableRecord
  2
NOTE
 70
0
 62
1
  6
Continuous
370
-3
390
13
347
21
  0
ENDTAB
  0
TABLE
  2
STYLE
  5
5
330
0
100
AcDbSymbolTable
 70
1
  0
STYLE
  5
29
330
5
100
AcDbSymbolTableRecord
100
AcDbTextStyleTableRecord
  2
Standard
 70
0
 40
0.0
 41
1.0
 50
0.0
 71
0
 42
2.5
  3
txt
  4

  0
ENDTAB
  0
TABLE
  2
VIEW
  5
7
330
0
100
AcDbSymbolTable
 70
0
  0
ENDTAB
  0
TABLE
  2
UCS
  5
6
330
0
100
AcDbSymbolTable
 70
0
  0
ENDTAB
  0
TABLE
  2
APPID
  5
3
330
0
100
AcDbSymbolTable
 70
3
  0
APPID
  5
2A
330
3
100
AcDbSymbolTableRecord
100
AcDbRegAppTableRecord
  2
ACAD
 70
0
  0
APPID
  5
271
330
3
100
AcDbSymbolTableRecord
100
AcDbRegAppTableRecord
  2
HATCHBACKGROUNDCOLOR
 70
0
  0
APPID
  5
272
330
3
100
AcDbSymbolTableRecord
100
AcDbRegAppTableRecord
  2
EZDXF
 70
0
  0
ENDTAB
  0
TABLE
  2
DIMSTYLE
  5
4
330
0
100
AcDbSymbolTable
 70
1
100
AcDbDimStyleTable
  0
DIMSTYLE
105
2B
330
4
100
AcDbSymbolTableRecord
100
AcDbDimStyleTableRecord
  2
Standard
 70
0
 40
1.0
 41
2.5
 42
0.625
 43
3.75
 44
1.25
 45
0.0
 46
0.0
 47
0.0
 48
0.0
 49
2.5
140
2.5
141
2.5
142
0.0
143
0.03937007874
144
1.0
145
0.0
146
1.0
147
0.625
148
0.0
 69
0
 70
0
 71
0
 72
0
 73
0
 74
0
 75
0
 76
0
 77
1
 78
8
 79
3
170
0
171
3
172
1
173
0
174
0
175
0
176
0
177
0
178
0
179
2
271
2
272
2
273
2
274
3
275
0
276
0
277
2
278
44
279
0
280
0
281
0
282
0
283
0
284
8
285
0
286
0
288
0
289
3
290
0
371
-2
372
-2
  0
ENDTAB
  0
TABLE
  2
BLOCK_RECORD
  5
9
330
0
100
AcDbSymbolTable
 70
27
  0
BLOCK_RECORD
  5
17
330
9
100
AcDbSymbolTableRecord
100
AcDbBlockTableRecord
  2
*Model_Space
340
1A
 70
0
280
1
281
0
  0
BLOCK_RECORD
  5
1B
330
9
100
AcDbSymbolTableRecord
100
AcDbBlockTableRecord
  2
*Paper_Space
340
1E
 70
0
280
1
281
0
  0
BLOCK_RECORD
  5
41
330
9
100
AcDbSymbolTableRecord
100
AcDbBlockTableRecord
  2
*D1
340
0
 70
0
280
1
281
0
  0
BLOCK_RECORD
  5
46
330
9
100
AcDbSymbolTableRecord
100
AcDbBlockTableRecord
  2
_CLOSEDFILLED
340
0
 70
0
280
1
281
0
  0
BLOCK_RECORD
  5
55
330
9
100
AcDbSymbolTableRecord
100
AcDbBlockTableRecord
  2
*D2
340
0
 70
0
280
1
281
0
  0
BLOCK_RECORD
  5
66
330
9
100
AcDbSymbolTableRecord
100
AcDbBlockTableRecord
  2
*D3
340
0
 70
0
280
1
281
0
  0
BLOCK_RECORD
  5
76
330
9
100
AcDbSymbolTableRecord
100
AcDbBlockTableRecord
  2
*D4
340
0
 70
0
280
1
281
0
  0
BLOCK_RECORD
  5
86
330
9
100
AcDbSymbolTableRecord
100
AcDbBlockTableRecord
  2
*D5
340
0
 70
0
280
1
281
0
  0
BLOCK_RECORD
  5
D9
330
9
100
AcDbSymbolTableRecord
100
AcDbBlockTableRecord
  2
*D6
340
0
 70
0
280
1
281
0
  0
BLOCK_RECORD
  5
E9
330
9
100
AcDbSymbolTableRecord
100
AcDbBlockTableRecord
  2
*D7
340
0
 70
0
280
1
281
0
  0
BLOCK_RECORD
  5
FA
330
9
100
AcDbSymbolTableRecord
100
AcDbBlockTableRecord
  2
*D8
340
0
 70
0
280
1
281
0
  0
BLOCK_RECORD
  5
10A
330
9
100
AcDbSymbolTableRecord
100
AcDbBlockTableRecord
  2
*D9
340
0
 70
0
280
1
281
0
  0
BLOCK_RECORD
  5
11A
330
9
100
AcDbSymbolTableRecord
100
AcDbBlockTableRecord
  2
*D10
340
0
 70
0
280
1
281
0
  0
BLOCK_RECORD
  5
12A
330
9
100
AcDbSymbolTableRecord
100
AcDbBlockTableRecord
  2
*D11
340
0
 70
0
280
1
281
0
  0
BLOCK_RECORD
  5
13A
330
9
100
AcDbSymbolTableRecord
100
AcDbBlockTableRecord
  2
*D12
340
0
 70
0
280
1
281
0
  0
BLOCK_RECORD
  5
14A
330
9
100
AcDbSymbolTableRecord
100
AcDbBlockTableRecord
  2
*D13
340
0
 70
0
280
1
281
0
  0
BLOCK_RECORD
  5
15B
330
9
100
AcDbSymbolTableRecord
100
AcDbBlockTableRecord
  2
*D14
340
0
 70
0
280
1
281
0
  0
BLOCK_RECORD
  5
1B0
330
9
100
AcDbSymbolTableRecord
100
AcDbBlockTableRecord
  2
*D15
340
0
 70
0
280
1
281
0
  0
BLOCK_RECORD
  5
1C0
330
9
100
AcDbSymbolTableRecord
100
AcDbBlockTableRecord
  2
*D16
340
0
 70
0
280
1
281
0
  0
BLOCK_RECORD
  5
1D1
330
9
100
AcDbSymbolTableRecord
100
AcDbBlockTableRecord
  2
*D17
340
0
 70
0
280
1
281
0
  0
BLOCK_RECORD
  5
1E1
330
9
100
AcDbSymbolTableRecord
100
AcDbBlockTableRecord
  2
*D18
340
0
 70
0
280
1
281
0
  0
BLOCK_RECORD
  5
1F1
330
9
100
AcDbSymbolTableRecord
100
AcDbBlockTableRecord
  2
*D19
340
0
 70
0
280
1
281
0
  0
BLOCK_RECORD
  5
201
330
9
100
AcDbSymbolTableRecord
100
AcDbBlockTableRecord
  2
*D20
340
0
 70
0
280
1
281
0
  0
BLOCK_RECORD
  5
212
330
9
100
AcDbSymbolTableRecord
100
AcDbBlockTableRecord
  2
*D21
340
0
 70
0
280
1
281
0
  0
BLOCK_RECORD
  5
235
330
9
100
AcDbSymbolTableRecord
100
AcDbBlockTableRecord
  2
*D22
340
0
 70
0
280
1
281
0
  0
BLOCK_RECORD
  5
245
330
9
100
AcDbSymbolTableRecord
100
AcDbBlockTableRecord
  2
*D23
340
0
 70
0
280
1
281
0
  0
BLOCK_RECORD
  5
256
330
9
100
AcDbSymbolTableRecord
100
AcDbBlockTableRecord
  2
*D24
340
0
 70
0
280
1
281
0
  0
ENDTAB
  0
ENDSEC
  0
SECTION
  2
BLOCKS
  0
BLOCK
  5
18
330
17
100
AcDbEntity
  8
0
100
AcDbBlockBegin
  2
*Model_Space
 70
0
 10
0.0
 20
0.0
 30
0.0
  3
*Model_Space
  1

  0
ENDBLK
  5
19
330
17
100
AcDbEntity
  8
0
100
AcDbBlockEnd
  0
BLOCK
  5
1C
330
1B
100
AcDbEntity
  8
0
100
AcDbBlockBegin
  2
*Paper_Space
 70
0
 10
0.0
 20
0.0
 30
0.0
  3
*Paper_Space
  1

  0
ENDBLK
  5
1D
330
1B
100
AcDbEntity
  8
0
100
AcDbBlockEnd
  0
BLOCK
  5
42
330
41
100
AcDbEntity
  8
0
100
AcDbBlockBegin
  2
*D1
 70
1
 10
0.0
 20
0.0
 30
0.0
  3
*D1
  1

  0
LINE
  5
44
330
41
100
AcDbEntity
  8
0
 62
2
100
AcDbLine
 10
200.0
 20
3600.0
 30
0.0
 11
200.0
 21
3450.0
 31
0.0
  0
LINE
  5
45
330
41
100
AcDbEntity
  8
0
 62
2
100
AcDbLine
 10
1790.0
 20
3600.0
 30
0.0
 11
1790.0
 21
3450.0
 31
0.0
  0
INSERT
  5
4A
330
41
100
AcDbEntity
  8
0
 62
2
100
AcDbBlockReference
  2
_CLOSEDFILLED
 10
200.0
 20
3450.0
 30
0.0
 41
12.0
 42
12.0
 50
180.0
  0
INSERT
  5
4C
330
41
100
AcDbEntity
  8
0
 62
2
100
AcDbBlockReference
  2
_CLOSEDFILLED
 10
1790.0
 20
3450.0
 30
0.0
 41
12.0
 42
12.0
  0
LINE
  5
4E
330
41
100
AcDbEntity
  8
0
 62
2
100
AcDbLine
 10
212.0
 20
3450.0
 30
0.0
 11
955.0
 21
3450.0
 31
0.0
  0
LINE
  5
4F
330
41
100
AcDbEntity
  8
0
 62
2
100
AcDbLine
 10
1035.0
 20
3450.0
 30
0.0
 11
1778.0
 21
3450.0
 31
0.0
  0
MTEXT
  5
50
330
41
100
AcDbEntity
  8
0
 62
2
100
AcDbMText
 10
995.0
 20
3450.0
 30
0.0
 40
20.0
 71
5
  1
1590
  0
POINT
  5
51
330
41
100
AcDbEntity
  8
Defpoints
100
AcDbPoint
 10
200.0
 20
3450.0
 30
0.0
  0
POINT
  5
52
330
41
100
AcDbEntity
  8
Defpoints
100
AcDbPoint
 10
200.0
 20
3600.0
 30
0.0
  0
POINT
  5
53
330
41
100
AcDbEntity
  8
Defpoints
100
AcDbPoint
 10
1790.0
 20
3600.0
 30
0.0
  0
ENDBLK
  5
43
330
41
100
AcDbEntity
  8
0
100
AcDbBlockEnd
  0
BLOCK
  5
47
330
46
100
AcDbEntity
  8
0
100
AcDbBlockBegin
  2
_CLOSEDFILLED
 70
0
 10
0.0
 20
0.0
 30
0.0
  3
_CLOSEDFILLED
  1

  0
SOLID
  5
49
330
46
100
AcDbEntity
  8
0
  6
BYBLOCK
 62
0
100
AcDbTrace
 10
-1.0
 20
0.16439898372402537
 30
0.0
 11
0.0
 21
0.0
 31
0.0
 12
-1.0
 22
-0.16439898372402537
 32
0.0
 13
-1.0
 23
-0.16439898372402537
 33
0.0
  0
ENDBLK
  5
48
330
46
100
AcDbEntity
  8
0
100
AcDbBlockEnd
  0
BLOCK
  5
56
330
55
100
AcDbEntity
  8
0
100
AcDbBlockBegin
  2
*D2
 70
1
 10
0.0
 20
0.0
 30
0.0
  3
*D2
  1

  0
LINE
  5
58
330
55
100
AcDbEntity
  8
0
 62
2
100
AcDbLine
 10
1790.0
 20
3600.0
 30
0.0
 11
1790.0
 21
3750.0
 31
0.0
  0
LINE
  5
59
330
55
100
AcDbEntity
  8
0
 62
2
100
AcDbLine
 10
1790.0
 20
4200.0
 30
0.0
 11
1790.0
 21
3750.0
 31
0.0
  0
INSERT
  5
5A
330
55
100
AcDbEntity
  8
0
 62
2
100
AcDbBlockReference
  2
_CLOSEDFILLED
 10
1790.0
 20
3750.0
 30
0.0
 41
12.0
 42
12.0
  0
INSERT
  5
5C
330
55
100
AcDbEntity
  8
0
 62
2
100
AcDbBlockReference
  2
_CLOSEDFILLED
 10
1790.0
 20
3750.0
 30
0.0
 41
12.0
 42
12.0
 50
180.0
  0
LINE
  5
5E
330
55
100
AcDbEntity
  8
0
 62
2
100
AcDbLine
 10
1778.0
 20
3750.0
 30
0.0
 11
1766.0
 21
3750.0
 31
0.0
  0
LINE
  5
5F
330
55
100
AcDbEntity
  8
0
 62
2
100
AcDbLine
 10
1802.0
 20
3750.0
 30
0.0
 11
1814.0
 21
3750.0
 31
0.0
  0
LINE
  5
60
330
55
100
AcDbEntity
  8
0
 62
2
100
AcDbLine
 10
1790.0
 20
3750.0
 30
0.0
 11
1790.0
 21
3750.0
 31
0.0
  0
MTEXT
  5
61
330
55
100
AcDbEntity
  8
0
 62
2
100
AcDbMText
 10
1790.0
 20
3760.625
 30
0.0
 40
20.0
 71
5
  1
0
  0
POINT
  5
62
330
55
100
AcDbEntity
  8
Defpoints
100
AcDbPoint
 10
1790.0
 20
3750.0
 30
0.0
  0
POINT
  5
63
330
55
100
AcDbEntity
  8
Defpoints
100
AcDbPoint
 10
1790.0
 20
3600.0
 30
0.0
  0
POINT
  5
64
330
55
100
AcDbEntity
  8
Defpoints
100
AcDbPoint
 10
1790.0
 20
4200.0
 30
0.0
  0
ENDBLK
  5
57
330
55
100
AcDbEntity
  8
0
100
AcDbBlockEnd
  0
BLOCK
  5
67
330
66
100
AcDbEntity
  8
0
100
AcDbBlockBegin
  2
*D3
 70
1
 10
0.0
 20
0.0
 30
0.0
  3
*D3
  1

  0
LINE
  5
69
330
66
100
AcDbEntity
  8
0
 62
2
100
AcDbLine
 10
200.0
 20
3595.0
 30
0.0
 11
200.0
 21
3495.0
 31
0.0
  0
LINE
  5
6A
330
66
100
AcDbEntity
  8
0
 62
2
100
AcDbLine
 10
836.0
 20
3595.0
 30
0.0
 11
836.0
 21
3495.0
 31
0.0
  0
INSERT
  5
6B
330
66
100
AcDbEntity
  8
0
 62
2
100
AcDbBlockReference
  2
_CLOSEDFILLED
 10
200.0
 20
3495.0
 30
0.0
 41
12.0
 42
12.0
 50
180.0
  0
INSERT
  5
6D
330
66
100
AcDbEntity
  8
0
 62
2
100
AcDbBlockReference
  2
_CLOSEDFILLED
 10
836.0
 20
3495.0
 30
0.0
 41
12.0
 42
12.0
  0
LINE
  5
6F
330
66
100
AcDbEntity
  8
0
 62
2
100
AcDbLine
 10
212.0
 20
3495.0
 30
0.0
 11
488.0
 21
3495.0
 31
0.0
  0
LINE
  5
70
330
66
100
AcDbEntity
  8
0
 62
2
100
AcDbLine
 10
548.0
 20
3495.0
 30
0.0
 11
824.0
 21
3495.0
 31
0.0
  0
MTEXT
  5
71
330
66
100
AcDbEntity
  8
0
 62
2
100
AcDbMText
 10
518.0
 20
3495.0
 30
0.0
 40
20.0
 71
5
  1
636
  0
POINT
  5
72
330
66
100
AcDbEntity
  8
Defpoints
100
AcDbPoint
 10
200.0
 20
3495.0
 30
0.0
  0
POINT
  5
73
330
66
100
AcDbEntity
  8
Defpoints
100
AcDbPoint
 10
200.0
 20
3595.0
 30
0.0
  0
POINT
  5
74
330
66
100
AcDbEntity
  8
Defpoints
100
AcDbPoint
 10
836.0
 20
3595.0
 30
0.0
  0
ENDBLK
  5
68
330
66
100
AcDbEntity
  8
0
100
AcDbBlockEnd
  0
BLOCK
  5
77
330
76
100
AcDbEntity
  8
0
100
AcDbBlockBegin
  2
*D4
 70
1
 10
0.0
 20
0.0
 30
0.0
  3
*D4
  1

  0
LINE
  5
79
330
76
100
AcDbEntity
  8
0
 62
2
100
AcDbLine
 10
872.0
 20
3595.0
 30
0.0
 11
872.0
 21
3495.0
 31
0.0
  0
LINE
  5
7A
330
76
100
AcDbEntity
  8
0
 62
2
100
AcDbLine
 10
1428.0
 20
3595.0
 30
0.0
 11
1428.0
 21
3495.0
 31
0.0
  0
INSERT
  5
7B
330
76
100
AcDbEntity
  8
0
 62
2
100
AcDbBlockReference
  2
_CLOSEDFILLED
 10
872.0
 20
3495.0
 30
0.0
 41
12.0
 42
12.0
 50
180.0
  0
INSERT
  5
7D
330
76
100
AcDbEntity
  8
0
 62
2
100
AcDbBlockReference
  2
_CLOSEDFILLED
 10
1428.0
 20
3495.0
 30
0.0
 41
12.0
 42
12.0
  0
LINE
  5
7F
330
76
100
AcDbEntity
  8
0
 62
2
100
AcDbLine
 10
884.0
 20
3495.0
 30
0.0
 11
1120.0
 21
3495.0
 31
0.0
  0
LINE
  5
80
330
76
100
AcDbEntity
  8
0
 62
2
100
AcDbLine
 10
1180.0
 20
3495.0
 30
0.0
 11
1416.0
 21
3495.0
 31
0.0
  0
MTEXT
  5
81
330
76
100
AcDbEntity
  8
0
 62
2
100
AcDbMText
 10
1150.0
 20
3495.0
 30
0.0
 40
20.0
 71
5
  1
556
  0
POINT
  5
82
330
76
100
AcDbEntity
  8
Defpoints
100
AcDbPoint
 10
872.0
 20
3495.0
 30
0.0
  0
POINT
  5
83
330
76
100
AcDbEntity
  8
Defpoints
100
AcDbPoint
 10
872.0
 20
3595.0
 30
0.0
  0
POINT
  5
84
330
76
100
AcDbEntity
  8
Defpoints
100
AcDbPoint
 10
1428.0
 20
3595.0
 30
0.0
  0
ENDBLK
  5
78
330
76
100
AcDbEntity
  8
0
100
AcDbBlockEnd
  0
BLOCK
  5
87
330
86
100
AcDbEntity
  8
0
100
AcDbBlockBegin
  2
*D5
 70
1
 10
0.0
 20
0.0
 30
0.0
  3
*D5
  1

  0
LINE
  5
89
330
86
100
AcDbEntity
  8
0
 62
2
100
AcDbLine
 10
1446.0
 20
3595.0
 30
0.0
 11
1446.0
 21
3495.0
 31
0.0
  0
LINE
  5
8A
330
86
100
AcDbEntity
  8
0
 62
2
100
AcDbLine
 10
1772.0
 20
3595.0
 30
0.0
 11
1772.0
 21
3495.0
 31
0.0
  0
INSERT
  5
8B
330
86
100
AcDbEntity
  8
0
 62
2
100
AcDbBlockReference
  2
_CLOSEDFILLED
 10
1446.0
 20
3495.0
 30
0.0
 41
12.0
 42
12.0
 50
180.0
  0
INSERT
  5
8D
330
86
100
AcDbEntity
  8
0
 62
2
100
AcDbBlockReference
  2
_CLOSEDFILLED
 10
1772.0
 20
3495.0
 30
0.0
 41
12.0
 42
12.0
  0
LINE
  5
8F
330
86
100
AcDbEntity
  8
0
 62
2
100
AcDbLine
 10
1458.0
 20
3495.0
 30
0.0
 11
1579.0
 21
3495.0
 31
0.0
  0
LINE
  5
90
330
86
100
AcDbEntity
  8
0
 62
2
100
AcDbLine
 10
1639.0
 20
3495.0
 30
0.0
 11
1760.0
 21
3495.0
 31
0.0
  0
MTEXT
  5
91
330
86
100
AcDbEntity
  8
0
 62
2
100
AcDbMText
 10
1609.0
 20
3495.0
 30
0.0
 40
20.0
 71
5
  1
326
  0
POINT
  5
92
330
86
100
AcDbEntity
  8
Defpoints
100
AcDbPoint
 10
1446.0
 20
3495.0
 30
0.0
  0
POINT
  5
93
330
86
100
AcDbEntity
  8
Defpoints
100
AcDbPoint
 10
1446.0
 20
3595.0
 30
0.0
  0
POINT
  5
94
330
86
100
AcDbEntity
  8
Defpoints
100
AcDbPoint
 10
1772.0
 20
3595.0
 30
0.0
  0
ENDBLK
  5
88
330
86
100
AcDbEntity
  8
0
100
AcDbBlockEnd
  0
BLOCK
  5
DA
330
D9
100
AcDbEntity
  8
0
100
AcDbBlockBegin
  2
*D6
 70
1
 10
0.0
 20
0.0
 30
0.0
  3
*D6
  1

  0
LINE
  5
DC
330
D9
100
AcDbEntity
  8
0
 62
2
100
AcDbLine
 10
200.0
 20
200.0
 30
0.0
 11
200.0
 21
50.0
 31
0.0
  0
LINE
  5
DD
330
D9
100
AcDbEntity
  8
0
 62
2
100
AcDbLine
 10
1790.0
 20
200.0
 30
0.0
 11
1790.0
 21
50.0
 31
0.0
  0
INSERT
  5
DE
330
D9
100
AcDbEntity
  8
0
 62
2
100
AcDbBlockReference
  2
_CLOSEDFILLED
 10
200.0
 20
50.0
 30
0.0
 41
12.0
 42
12.0
 50
180.0
  0
INSERT
  5
E0
330
D9
100
AcDbEntity
  8
0
 62
2
100
AcDbBlockReference
  2
_CLOSEDFILLED
 10
1790.0
 20
50.0
 30
0.0
 41
12.0
 42
12.0
  0
LINE
  5
E2
330
D9
100
AcDbEntity
  8
0
 62
2
100
AcDbLine
 10
212.0
 20
50.0
 30
0.0
 11
955.0
 21
50.0
 31
0.0
  0
LINE
  5
E3
330
D9
100
AcDbEntity
  8
0
 62
2
100
AcDbLine
 10
1035.0
 20
50.0
 30
0.0
 11
1778.0
 21
50.0
 31
0.0
  0
MTEXT
  5
E4
330
D9
100
AcDbEntity
  8
0
 62
2
100
AcDbMText
 10
995.0
 20
50.0
 30
0.0
 40
20.0
 71
5
  1
1590
  0
POINT
  5
E5
330
D9
100
AcDbEntity
  8
Defpoints
100
AcDbPoint
 10
200.0
 20
50.0
 30
0.0
  0
POINT
  5
E6
330
D9
100
AcDbEntity
  8
Defpoints
100
AcDbPoint
 10
200.0
 20
200.0
 30
0.0
  0
POINT
  5
E7
330
D9
100
AcDbEntity
  8
Defpoints
100
AcDbPoint
 10
1790.0
 20
200.0
 30
0.0
  0
ENDBLK
  5
DB
330
D9
100
AcDbEntity
  8
0
100
AcDbBlockEnd
  0
BLOCK
  5
EA
330
E9
100
AcDbEntity
  8
0
100
AcDbBlockBegin
  2
*D7
 70
1
 10
0.0
 20
0.0
 30
0.0
  3
*D7
  1

  0
LINE
  5
EC
330
E9
100
AcDbEntity
  8
0
 62
2
100
AcDbLine
 10
1790.0
 20
200.0
 30
0.0
 11
1790.0
 21
350.0
 31
0.0
  0
LINE
  5
ED
330
E9
100
AcDbEntity
  8
0
 62
2
100
AcDbLine
 10
1790.0
 20
3000.0
 30
0.0
 11
1790.0
 21
350.0
 31
0.0
  0
INSERT
  5
EE
330
E9
100
AcDbEntity
  8
0
 62
2
100
AcDbBlockReference
  2
_CLOSEDFILLED
 10
1790.0
 20
350.0
 30
0.0
 41
12.0
 42
12.0
  0
INSERT
  5
F0
330
E9
100
AcDbEntity
  8
0
 62
2
100
AcDbBlockReference
  2
_CLOSEDFILLED
 10
1790.0
 20
350.0
 30
0.0
 41
12.0
 42
12.0
 50
180.0
  0
LINE
  5
F2
330
E9
100
AcDbEntity
  8
0
 62
2
100
AcDbLine
 10
1778.0
 20
350.0
 30
0.0
 11
1766.0
 21
350.0
 31
0.0
  0
LINE
  5
F3
330
E9
100
AcDbEntity
  8
0
 62
2
100
AcDbLine
 10
1802.0
 20
350.0
 30
0.0
 11
1814.0
 21
350.0
 31
0.0
  0
LINE
  5
F4
330
E9
100
AcDbEntity
  8
0
 62
2
100
AcDbLine
 10
1790.0
 20
350.0
 30
0.0
 11
1790.0
 21
350.0
 31
0.0
  0
MTEXT
  5
F5
330
E9
100
AcDbEntity
  8
0
 62
2
100
AcDbMText
 10
1790.0
 20
360.625
 30
0.0
 40
20.0
 71
5
  1
0
  0
POINT
  5
F6
330
E9
100
AcDbEntity
  8
Defpoints
100
AcDbPoint
 10
1790.0
 20
350.0
 30
0.0
  0
POINT
  5
F7
330
E9
100
AcDbEntity
  8
Defpoints
100
AcDbPoint
 10
1790.0
 20
200.0
 30
0.0
  0
POINT
  5
F8
330
E9
100
AcDbEntity
  8
Defpoints
100
AcDbPoint
 10
1790.0
 20
3000.0
 30
0.0
  0
ENDBLK
  5
EB
330
E9
100
AcDbEntity
  8
0
100
AcDbBlockEnd
  0
BLOCK
  5
FB
330
FA
100
AcDbEntity
  8
0
100
AcDbBlockBegin
  2
*D8
 70
1
 10
0.0
 20
0.0
 30
0.0
  3
*D8
  1

  0
LINE
  5
FD
330
FA
100
AcDbEntity
  8
0
 62
2
100
AcDbLine
 10
200.0
 20
3005.0
 30
0.0
 11
200.0
 21
3155.0
 31
0.0
  0
LINE
  5
FE
330
FA
100
AcDbEntity
  8
0
 62
2
100
AcDbLine
 10
1790.0
 20
3005.0
 30
0.0
 11
1790.0
 21
3155.0
 31
0.0
  0
INSERT
  5
FF
330
FA
100
AcDbEntity
  8
0
 62
2
100
AcDbBlockReference
  2
_CLOSEDFILLED
 10
200.0
 20
3155.0
 30
0.0
 41
12.0
 42
12.0
 50
180.0
  0
INSERT
  5
101
330
FA
100
AcDbEntity
  8
0
 62
2
100
AcDbBlockReference
  2
_CLOSEDFILLED
 10
1790.0
 20
3155.0
 30
0.0
 41
12.0
 42
12.0
  0
LINE
  5
103
330
FA
100
AcDbEntity
  8
0
 62
2
100
AcDbLine
 10
212.0
 20
3155.0
 30
0.0
 11
955.0
 21
3155.0
 31
0.0
  0
LINE
  5
104
330
FA
100
AcDbEntity
  8
0
 62
2
100
AcDbLine
 10
1035.0
 20
3155.0
 30
0.0
 11
1778.0
 21
3155.0
 31
0.0
  0
MTEXT
  5
105
330
FA
100
AcDbEntity
  8
0
 62
2
100
AcDbMText
 10
995.0
 20
3155.0
 30
0.0
 40
20.0
 71
5
  1
1590
  0
POINT
  5
106
330
FA
100
AcDbEntity
  8
Defpoints
100
AcDbPoint
 10
200.0
 20
3155.0
 30
0.0
  0
POINT
  5
107
330
FA
100
AcDbEntity
  8
Defpoints
100
AcDbPoint
 10
200.0
 20
3005.0
 30
0.0
  0
POINT
  5
108
330
FA
100
AcDbEntity
  8
Defpoints
100
AcDbPoint
 10
1790.0
 20
3005.0
 30
0.0
  0
ENDBLK
  5
FC
330
FA
100
AcDbEntity
  8
0
100
AcDbBlockEnd
  0
BLOCK
  5
10B
330
10A
100
AcDbEntity
  8
0
100
AcDbBlockBegin
  2
*D9
 70
1
 10
0.0
 20
0.0
 30
0.0
  3
*D9
  1

  0
LINE
  5
10D
330
10A
100
AcDbEntity
  8
0
 62
2
100
AcDbLine
 10
218.0
 20
3080.0
 30
0.0
 11
218.0
 21
3140.0
 31
0.0
  0
LINE
  5
10E
330
10A
100
AcDbEntity
  8
0
 62
2
100
AcDbLine
 10
605.0
 20
3080.0
 30
0.0
 11
605.0
 21
3140.0
 31
0.0
  0
INSERT
  5
10F
330
10A
100
AcDbEntity
  8
0
 62
2
100
AcDbBlockReference
  2
_CLOSEDFILLED
 10
218.0
 20
3140.0
 30
0.0
 41
12.0
 42
12.0
 50
180.0
  0
INSERT
  5
111
330
10A
100
AcDbEntity
  8
0
 62
2
100
AcDbBlockReference
  2
_CLOSEDFILLED
 10
605.0
 20
3140.0
 30
0.0
 41
12.0
 42
12.0
  0
LINE
  5
113
330
10A
100
AcDbEntity
  8
0
 62
2
100
AcDbLine
 10
230.0
 20
3140.0
 30
0.0
 11
381.5
 21
3140.0
 31
0.0
  0
LINE
  5
114
330
10A
100
AcDbEntity
  8
0
 62
2
100
AcDbLine
 10
441.5
 20
3140.0
 30
0.0
 11
593.0
 21
3140.0
 31
0.0
  0
MTEXT
  5
115
330
10A
100
AcDbEntity
  8
0
 62
2
100
AcDbMText
 10
411.5
 20
3140.0
 30
0.0
 40
20.0
 71
5
  1
387
  0
POINT
  5
116
330
10A
100
AcDbEntity
  8
Defpoints
100
AcDbPoint
 10
218.0
 20
3140.0
 30
0.0
  0
POINT
  5
117
330
10A
100
AcDbEntity
  8
Defpoints
100
AcDbPoint
 10
218.0
 20
3080.0
 30
0.0
  0
POINT
  5
118
330
10A
100
AcDbEntity
  8
Defpoints
100
AcDbPoint
 10
605.0
 20
3080.0
 30
0.0
  0
ENDBLK
  5
10C
330
10A
100
AcDbEntity
  8
0
100
AcDbBlockEnd
  0
BLOCK
  5
11B
330
11A
100
AcDbEntity
  8
0
100
AcDbBlockBegin
  2
*D10
 70
1
 10
0.0
 20
0.0
 30
0.0
  3
*D10
  1

  0
LINE
  5
11D
330
11A
100
AcDbEntity
  8
0
 62
2
100
AcDbLine
 10
607.0
 20
3080.0
 30
0.0
 11
607.0
 21
3140.0
 31
0.0
  0
LINE
  5
11E
330
11A
100
AcDbEntity
  8
0
 62
2
100
AcDbLine
 10
994.0
 20
3080.0
 30
0.0
 11
994.0
 21
3140.0
 31
0.0
  0
INSERT
  5
11F
330
11A
100
AcDbEntity
  8
0
 62
2
100
AcDbBlockReference
  2
_CLOSEDFILLED
 10
607.0
 20
3140.0
 30
0.0
 41
12.0
 42
12.0
 50
180.0
  0
INSERT
  5
121
330
11A
100
AcDbEntity
  8
0
 62
2
100
AcDbBlockReference
  2
_CLOSEDFILLED
 10
994.0
 20
3140.0
 30
0.0
 41
12.0
 42
12.0
  0
LINE
  5
123
330
11A
100
AcDbEntity
  8
0
 62
2
100
AcDbLine
 10
619.0
 20
3140.0
 30
0.0
 11
770.5
 21
3140.0
 31
0.0
  0
LINE
  5
124
330
11A
100
AcDbEntity
  8
0
 62
2
100
AcDbLine
 10
830.5
 20
3140.0
 30
0.0
 11
982.0
 21
3140.0
 31
0.0
  0
MTEXT
  5
125
330
11A
100
AcDbEntity
  8
0
 62
2
100
AcDbMText
 10
800.5
 20
3140.0
 30
0.0
 40
20.0
 71
5
  1
387
  0
POINT
  5
126
330
11A
100
AcDbEntity
  8
Defpoints
100
AcDbPoint
 10
607.0
 20
3140.0
 30
0.0
  0
POINT
  5
127
330
11A
100
AcDbEntity
  8
Defpoints
100
AcDbPoint
 10
607.0
 20
3080.0
 30
0.0
  0
POINT
  5
128
330
11A
100
AcDbEntity
  8
Defpoints
100
AcDbPoint
 10
994.0
 20
3080.0
 30
0.0
  0
ENDBLK
  5
11C
330
11A
100
AcDbEntity
  8
0
100
AcDbBlockEnd
  0
BLOCK
  5
12B
330
12A
100
AcDbEntity
  8
0
100
AcDbBlockBegin
  2
*D11
 70
1
 10
0.0
 20
0.0
 30
0.0
  3
*D11
  1

  0
LINE
  5
12D
330
12A
100
AcDbEntity
  8
0
 62
2
100
AcDbLine
 10
996.0
 20
3080.0
 30
0.0
 11
996.0
 21
3140.0
 31
0.0
  0
LINE
  5
12E
330
12A
100
AcDbEntity
  8
0
 62
2
100
AcDbLine
 10
1383.0
 20
3080.0
 30
0.0
 11
1383.0
 21
3140.0
 31
0.0
  0
INSERT
  5
12F
330
12A
100
AcDbEntity
  8
0
 62
2
100
AcDbBlockReference
  2
_CLOSEDFILLED
 10
996.0
 20
3140.0
 30
0.0
 41
12.0
 42
12.0
 50
180.0
  0
INSERT
  5
131
330
12A
100
AcDbEntity
  8
0
 62
2
100
AcDbBlockReference
  2
_CLOSEDFILLED
 10
1383.0
 20
3140.0
 30
0.0
 41
12.0
 42
12.0
  0
LINE
  5
133
330
12A
100
AcDbEntity
  8
0
 62
2
100
AcDbLine
 10
1008.0
 20
3140.0
 30
0.0
 11
1159.5
 21
3140.0
 31
0.0
  0
LINE
  5
134
330
12A
100
AcDbEntity
  8
0
 62
2
100
AcDbLine
 10
1219.5
 20
3140.0
 30
0.0
 11
1371.0
 21
3140.0
 31
0.0
  0
MTEXT
  5
135
330
12A
100
AcDbEntity
  8
0
 62
2
100
AcDbMText
 10
1189.5
 20
3140.0
 30
0.0
 40
20.0
 71
5
  1
387
  0
POINT
  5
136
330
12A
100
AcDbEntity
  8
Defpoints
100
AcDbPoint
 10
996.0
 20
3140.0
 30
0.0
  0
POINT
  5
137
330
12A
100
AcDbEntity
  8
Defpoints
100
AcDbPoint
 10
996.0
 20
3080.0
 30
0.0
  0
POINT
  5
138
330
12A
100
AcDbEntity
  8
Defpoints
100
AcDbPoint
 10
1383.0
 20
3080.0
 30
0.0
  0
ENDBLK
  5
12C
330
12A
100
AcDbEntity
  8
0
100
AcDbBlockEnd
  0
BLOCK
  5
13B
330
13A
100
AcDbEntity
  8
0
100
AcDbBlockBegin
  2
*D12
 70
1
 10
0.0
 20
0.0
 30
0.0
  3
*D12
  1

  0
LINE
  5
13D
330
13A
100
AcDbEntity
  8
0
 62
2
100
AcDbLine
 10
1385.0
 20
3080.0
 30
0.0
 11
1385.0
 21
3140.0
 31
0.0
  0
LINE
  5
13E
330
13A
100
AcDbEntity
  8
0
 62
2
100
AcDbLine
 10
1772.0
 20
3080.0
 30
0.0
 11
1772.0
 21
3140.0
 31
0.0
  0
INSERT
  5
13F
330
13A
100
AcDbEntity
  8
0
 62
2
100
AcDbBlockReference
  2
_CLOSEDFILLED
 10
1385.0
 20
3140.0
 30
0.0
 41
12.0
 42
12.0
 50
180.0
  0
INSERT
  5
141
330
13A
100
AcDbEntity
  8
0
 62
2
100
AcDbBlockReference
  2
_CLOSEDFILLED
 10
1772.0
 20
3140.0
 30
0.0
 41
12.0
 42
12.0
  0
LINE
  5
143
330
13A
100
AcDbEntity
  8
0
 62
2
100
AcDbLine
 10
1397.0
 20
3140.0
 30
0.0
 11
1548.5
 21
3140.0
 31
0.0
  0
LINE
  5
144
330
13A
100
AcDbEntity
  8
0
 62
2
100
AcDbLine
 10
1608.5
 20
3140.0
 30
0.0
 11
1760.0
 21
3140.0
 31
0.0
  0
MTEXT
  5
145
330
13A
100
AcDbEntity
  8
0
 62
2
100
AcDbMText
 10
1578.5
 20
3140.0
 30
0.0
 40
20.0
 71
5
  1
387
  0
POINT
  5
146
330
13A
100
AcDbEntity
  8
Defpoints
100
AcDbPoint
 10
1385.0
 20
3140.0
 30
0.0
  0
POINT
  5
147
330
13A
100
AcDbEntity
  8
Defpoints
100
AcDbPoint
 10
1385.0
 20
3080.0
 30
0.0
  0
POINT
  5
148
330
13A
100
AcDbEntity
  8
Defpoints
100
AcDbPoint
 10
1772.0
 20
3080.0
 30
0.0
  0
ENDBLK
  5
13C
330
13A
100
AcDbEntity
  8
0
100
AcDbBlockEnd
  0
BLOCK
  5
14B
330
14A
100
AcDbEntity
  8
0
100
AcDbBlockBegin
  2
*D13
 70
1
 10
0.0
 20
0.0
 30
0.0
  3
*D13
  1

  0
LINE
  5
14D
330
14A
100
AcDbEntity
  8
0
 62
2
100
AcDbLine
 10
1870.0
 20
2950.0
 30
0.0
 11
1870.0
 21
3030.0
 31
0.0
  0
LINE
  5
14E
330
14A
100
AcDbEntity
  8
0
 62
2
100
AcDbLine
 10
1870.0
 20
3000.0
 30
0.0
 11
1870.0
 21
3030.0
 31
0.0
  0
INSERT
  5
14F
330
14A
100
AcDbEntity
  8
0
 62
2
100
AcDbBlockReference
  2
_CLOSEDFILLED
 10
1870.0
 20
3030.0
 30
0.0
 41
12.0
 42
12.0
  0
INSERT
  5
151
330
14A
100
AcDbEntity
  8
0
 62
2
100
AcDbBlockReference
  2
_CLOSEDFILLED
 10
1870.0
 20
3030.0
 30
0.0
 41
12.0
 42
12.0
 50
180.0
  0
LINE
  5
153
330
14A
100
AcDbEntity
  8
0
 62
2
100
AcDbLine
 10
1858.0
 20
3030.0
 30
0.0
 11
1846.0
 21
3030.0
 31
0.0
  0
LINE
  5
154
330
14A
100
AcDbEntity
  8
0
 62
2
100
AcDbLine
 10
1882.0
 20
3030.0
 30
0.0
 11
1894.0
 21
3030.0
 31
0.0
  0
LINE
  5
155
330
14A
100
AcDbEntity
  8
0
 62
2
100
AcDbLine
 10
1870.0
 20
3030.0
 30
0.0
 11
1870.0
 21
3030.0
 31
0.0
  0
MTEXT
  5
156
330
14A
100
AcDbEntity
  8
0
 62
2
100
AcDbMText
 10
1870.0
 20
3040.625
 30
0.0
 40
20.0
 71
5
  1
0
  0
POINT
  5
157
330
14A
100
AcDbEntity
  8
Defpoints
100
AcDbPoint
 10
1870.0
 20
3030.0
 30
0.0
  0
POINT
  5
158
330
14A
100
AcDbEntity
  8
Defpoints
100
AcDbPoint
 10
1870.0
 20
2950.0
 30
0.0
  0
POINT
  5
159
330
14A
100
AcDbEntity
  8
Defpoints
100
AcDbPoint
 10
1870.0
 20
3000.0
 30
0.0
  0
ENDBLK
  5
14C
330
14A
100
AcDbEntity
  8
0
100
AcDbBlockEnd
  0
BLOCK
  5
15C
330
15B
100
AcDbEntity
  8
0
100
AcDbBlockBegin
  2
*D14
 70
1
 10
0.0
 20
0.0
 30
0.0
  3
*D14
  1

  0
LINE
  5
15E
330
15B
100
AcDbEntity
  8
0
 62
2
100
AcDbLine
 10
1870.0
 20
200.0
 30
0.0
 11
1870.0
 21
280.0
 31
0.0
  0
LINE
  5
15F
330
15B
100
AcDbEntity
  8
0
 62
2
100
AcDbLine
 10
1870.0
 20
250.0
 30
0.0
 11
1870.0
 21
280.0
 31
0.0
  0
INSERT
  5
160
330
15B
100
AcDbEntity
  8
0
 62
2
100
AcDbBlockReference
  2
_CLOSEDFILLED
 10
1870.0
 20
280.0
 30
0.0
 41
12.0
 42
12.0
  0
INSERT
  5
162
330
15B
100
AcDbEntity
  8
0
 62
2
100
AcDbBlockReference
  2
_CLOSEDFILLED
 10
1870.0
 20
280.0
 30
0.0
 41
12.0
 42
12.0
 50
180.0
  0
LINE
  5
164
330
15B
100
AcDbEntity
  8
0
 62
2
100
AcDbLine
 10
1858.0
 20
280.0
 30
0.0
 11
1846.0
 21
280.0
 31
0.0
  0
LINE
  5
165
330
15B
100
AcDbEntity
  8
0
 62
2
100
AcDbLine
 10
1882.0
 20
280.0
 30
0.0
 11
1894.0
 21
280.0
 31
0.0
  0
LINE
  5
166
330
15B
100
AcDbEntity
  8
0
 62
2
100
AcDbLine
 10
1870.0
 20
280.0
 30
0.0
 11
1870.0
 21
280.0
 31
0.0
  0
MTEXT
  5
167
330
15B
100
AcDbEntity
  8
0
 62
2
100
AcDbMText
 10
1870.0
 20
290.625
 30
0.0
 40
20.0
 71
5
  1
0
  0
POINT
  5
168
330
15B
100
AcDbEntity
  8
Defpoints
100
AcDbPoint
 10
1870.0
 20
280.0
 30
0.0
  0
POINT
  5
169
330
15B
100
AcDbEntity
  8
Defpoints
100
AcDbPoint
 10
1870.0
 20
200.0
 30
0.0
  0
POINT
  5
16A
330
15B
100
AcDbEntity
  8
Defpoints
100
AcDbPoint
 10
1870.0
 20
250.0
 30
0.0
  0
ENDBLK
  5
15D
330
15B
100
AcDbEntity
  8
0
100
AcDbBlockEnd
  0
BLOCK
  5
1B1
330
1B0
100
AcDbEntity
  8
0
100
AcDbBlockBegin
  2
*D15
 70
1
 10
0.0
 20
0.0
 30
0.0
  3
*D15
  1

  0
LINE
  5
1B3
330
1B0
100
AcDbEntity
  8
0
 62
2
100
AcDbLine
 10
2190.0
 20
200.0
 30
0.0
 11
2190.0
 21
50.0
 31
0.0
  0
LINE
  5
1B4
330
1B0
100
AcDbEntity
  8
0
 62
2
100
AcDbLine
 10
3780.0
 20
200.0
 30
0.0
 11
3780.0
 21
50.0
 31
0.0
  0
INSERT
  5
1B5
330
1B0
100
AcDbEntity
  8
0
 62
2
100
AcDbBlockReference
  2
_CLOSEDFILLED
 10
2190.0
 20
50.0
 30
0.0
 41
12.0
 42
12.0
 50
180.0
  0
INSERT
  5
1B7
330
1B0
100
AcDbEntity
  8
0
 62
2
100
AcDbBlockReference
  2
_CLOSEDFILLED
 10
3780.0
 20
50.0
 30
0.0
 41
12.0
 42
12.0
  0
LINE
  5
1B9
330
1B0
100
AcDbEntity
  8
0
 62
2
100
AcDbLine
 10
2202.0
 20
50.0
 30
0.0
 11
2945.0
 21
50.0
 31
0.0
  0
LINE
  5
1BA
330
1B0
100
AcDbEntity
  8
0
 62
2
100
AcDbLine
 10
3025.0
 20
50.0
 30
0.0
 11
3768.0
 21
50.0
 31
0.0
  0
MTEXT
  5
1BB
330
1B0
100
AcDbEntity
  8
0
 62
2
100
AcDbMText
 10
2985.0
 20
50.0
 30
0.0
 40
20.0
 71
5
  1
1590
  0
POINT
  5
1BC
330
1B0
100
AcDbEntity
  8
Defpoints
100
AcDbPoint
 10
2190.0
 20
50.0
 30
0.0
  0
POINT
  5
1BD
330
1B0
100
AcDbEntity
  8
Defpoints
100
AcDbPoint
 10
2190.0
 20
200.0
 30
0.0
  0
POINT
  5
1BE
330
1B0
100
AcDbEntity
  8
Defpoints
100
AcDbPoint
 10
3780.0
 20
200.0
 30
0.0
  0
ENDBLK
  5
1B2
330
1B0
100
AcDbEntity
  8
0
100
AcDbBlockEnd
  0
BLOCK
  5
1C1
330
1C0
100
AcDbEntity
  8
0
100
AcDbBlockBegin
  2
*D16
 70
1
 10
0.0
 20
0.0
 30
0.0
  3
*D16
  1

  0
LINE
  5
1C3
330
1C0
100
AcDbEntity
  8
0
 62
2
100
AcDbLine
 10
3780.0
 20
200.0
 30
0.0
 11
3780.0
 21
350.0
 31
0.0
  0
LINE
  5
1C4
330
1C0
100
AcDbEntity
  8
0
 62
2
100
AcDbLine
 10
3780.0
 20
3000.0
 30
0.0
 11
3780.0
 21
350.0
 31
0.0
  0
INSERT
  5
1C5
330
1C0
100
AcDbEntity
  8
0
 62
2
100
AcDbBlockReference
  2
_CLOSEDFILLED
 10
3780.0
 20
350.0
 30
0.0
 41
12.0
 42
12.0
  0
INSERT
  5
1C7
330
1C0
100
AcDbEntity
  8
0
 62
2
100
AcDbBlockReference
  2
_CLOSEDFILLED
 10
3780.0
 20
350.0
 30
0.0
 41
12.0
 42
12.0
 50
180.0
  0
LINE
  5
1C9
330
1C0
100
AcDbEntity
  8
0
 62
2
100
AcDbLine
 10
3768.0
 20
350.0
 30
0.0
 11
3756.0
 21
350.0
 31
0.0
  0
LINE
  5
1CA
330
1C0
100
AcDbEntity
  8
0
 62
2
100
AcDbLine
 10
3792.0
 20
350.0
 30
0.0
 11
3804.0
 21
350.0
 31
0.0
  0
LINE
  5
1CB
330
1C0
100
AcDbEntity
  8
0
 62
2
100
AcDbLine
 10
3780.0
 20
350.0
 30
0.0
 11
3780.0
 21
350.0
 31
0.0
  0
MTEXT
  5
1CC
330
1C0
100
AcDbEntity
  8
0
 62
2
100
AcDbMText
 10
3780.0
 20
360.625
 30
0.0
 40
20.0
 71
5
  1
0
  0
POINT
  5
1CD
330
1C0
100
AcDbEntity
  8
Defpoints
100
AcDbPoint
 10
3780.0
 20
350.0
 30
0.0
  0
POINT
  5
1CE
330
1C0
100
AcDbEntity
  8
Defpoints
100
AcDbPoint
 10
3780.0
 20
200.0
 30
0.0
  0
POINT
  5
1CF
330
1C0
100
AcDbEntity
  8
Defpoints
100
AcDbPoint
 10
3780.0
 20
3000.0
 30
0.0
  0
ENDBLK
  5
1C2
330
1C0
100
AcDbEntity
  8
0
100
AcDbBlockEnd
  0
BLOCK
  5
1D2
330
1D1
100
AcDbEntity
  8
0
100
AcDbBlockBegin
  2
*D17
 70
1
 10
0.0
 20
0.0
 30
0.0
  3
*D17
  1

  0
LINE
  5
1D4
330
1D1
100
AcDbEntity
  8
0
 62
2
100
AcDbLine
 10
2190.0
 20
3080.0
 30
0.0
 11
2190.0
 21
3140.0
 31
0.0
  0
LINE
  5
1D5
330
1D1
100
AcDbEntity
  8
0
 62
2
100
AcDbLine
 10
2844.0
 20
3080.0
 30
0.0
 11
2844.0
 21
3140.0
 31
0.0
  0
INSERT
  5
1D6
330
1D1
100
AcDbEntity
  8
0
 62
2
100
AcDbBlockReference
  2
_CLOSEDFILLED
 10
2190.0
 20
3140.0
 30
0.0
 41
12.0
 42
12.0
 50
180.0
  0
INSERT
  5
1D8
330
1D1
100
AcDbEntity
  8
0
 62
2
100
AcDbBlockReference
  2
_CLOSEDFILLED
 10
2844.0
 20
3140.0
 30
0.0
 41
12.0
 42
12.0
  0
LINE
  5
1DA
330
1D1
100
AcDbEntity
  8
0
 62
2
100
AcDbLine
 10
2202.0
 20
3140.0
 30
0.0
 11
2487.0
 21
3140.0
 31
0.0
  0
LINE
  5
1DB
330
1D1
100
AcDbEntity
  8
0
 62
2
100
AcDbLine
 10
2547.0
 20
3140.0
 30
0.0
 11
2832.0
 21
3140.0
 31
0.0
  0
MTEXT
  5
1DC
330
1D1
100
AcDbEntity
  8
0
 62
2
100
AcDbMText
 10
2517.0
 20
3140.0
 30
0.0
 40
20.0
 71
5
  1
654
  0
POINT
  5
1DD
330
1D1
100
AcDbEntity
  8
Defpoints
100
AcDbPoint
 10
2190.0
 20
3140.0
 30
0.0
  0
POINT
  5
1DE
330
1D1
100
AcDbEntity
  8
Defpoints
100
AcDbPoint
 10
2190.0
 20
3080.0
 30
0.0
  0
POINT
  5
1DF
330
1D1
100
AcDbEntity
  8
Defpoints
100
AcDbPoint
 10
2844.0
 20
3080.0
 30
0.0
  0
ENDBLK
  5
1D3
330
1D1
100
AcDbEntity
  8
0
100
AcDbBlockEnd
  0
BLOCK
  5
1E2
330
1E1
100
AcDbEntity
  8
0
100
AcDbBlockBegin
  2
*D18
 70
1
 10
0.0
 20
0.0
 30
0.0
  3
*D18
  1

  0
LINE
  5
1E4
330
1E1
100
AcDbEntity
  8
0
 62
2
100
AcDbLine
 10
2844.0
 20
3080.0
 30
0.0
 11
2844.0
 21
3140.0
 31
0.0
  0
LINE
  5
1E5
330
1E1
100
AcDbEntity
  8
0
 62
2
100
AcDbLine
 10
3418.0
 20
3080.0
 30
0.0
 11
3418.0
 21
3140.0
 31
0.0
  0
INSERT
  5
1E6
330
1E1
100
AcDbEntity
  8
0
 62
2
100
AcDbBlockReference
  2
_CLOSEDFILLED
 10
2844.0
 20
3140.0
 30
0.0
 41
12.0
 42
12.0
 50
180.0
  0
INSERT
  5
1E8
330
1E1
100
AcDbEntity
  8
0
 62
2
100
AcDbBlockReference
  2
_CLOSEDFILLED
 10
3418.0
 20
3140.0
 30
0.0
 41
12.0
 42
12.0
  0
LINE
  5
1EA
330
1E1
100
AcDbEntity
  8
0
 62
2
100
AcDbLine
 10
2856.0
 20
3140.0
 30
0.0
 11
3101.0
 21
3140.0
 31
0.0
  0
LINE
  5
1EB
330
1E1
100
AcDbEntity
  8
0
 62
2
100
AcDbLine
 10
3161.0
 20
3140.0
 30
0.0
 11
3406.0
 21
3140.0
 31
0.0
  0
MTEXT
  5
1EC
330
1E1
100
AcDbEntity
  8
0
 62
2
100
AcDbMText
 10
3131.0
 20
3140.0
 30
0.0
 40
20.0
 71
5
  1
574
  0
POINT
  5
1ED
330
1E1
100
AcDbEntity
  8
Defpoints
100
AcDbPoint
 10
2844.0
 20
3140.0
 30
0.0
  0
POINT
  5
1EE
330
1E1
100
AcDbEntity
  8
Defpoints
100
AcDbPoint
 10
2844.0
 20
3080.0
 30
0.0
  0
POINT
  5
1EF
330
1E1
100
AcDbEntity
  8
Defpoints
100
AcDbPoint
 10
3418.0
 20
3080.0
 30
0.0
  0
ENDBLK
  5
1E3
330
1E1
100
AcDbEntity
  8
0
100
AcDbBlockEnd
  0
BLOCK
  5
1F2
330
1F1
100
AcDbEntity
  8
0
100
AcDbBlockBegin
  2
*D19
 70
1
 10
0.0
 20
0.0
 30
0.0
  3
*D19
  1

  0
LINE
  5
1F4
330
1F1
100
AcDbEntity
  8
0
 62
2
100
AcDbLine
 10
3418.0
 20
3080.0
 30
0.0
 11
3418.0
 21
3140.0
 31
0.0
  0
LINE
  5
1F5
330
1F1
100
AcDbEntity
  8
0
 62
2
100
AcDbLine
 10
3762.0
 20
3080.0
 30
0.0
 11
3762.0
 21
3140.0
 31
0.0
  0
INSERT
  5
1F6
330
1F1
100
AcDbEntity
  8
0
 62
2
100
AcDbBlockReference
  2
_CLOSEDFILLED
 10
3418.0
 20
3140.0
 30
0.0
 41
12.0
 42
12.0
 50
180.0
  0
INSERT
  5
1F8
330
1F1
100
AcDbEntity
  8
0
 62
2
100
AcDbBlockReference
  2
_CLOSEDFILLED
 10
3762.0
 20
3140.0
 30
0.0
 41
12.0
 42
12.0
  0
LINE
  5
1FA
330
1F1
100
AcDbEntity
  8
0
 62
2
100
AcDbLine
 10
3430.0
 20
3140.0
 30
0.0
 11
3560.0
 21
3140.0
 31
0.0
  0
LINE
  5
1FB
330
1F1
100
AcDbEntity
  8
0
 62
2
100
AcDbLine
 10
3620.0
 20
3140.0
 30
0.0
 11
3750.0
 21
3140.0
 31
0.0
  0
MTEXT
  5
1FC
330
1F1
100
AcDbEntity
  8
0
 62
2
100
AcDbMText
 10
3590.0
 20
3140.0
 30
0.0
 40
20.0
 71
5
  1
344
  0
POINT
  5
1FD
330
1F1
100
AcDbEntity
  8
Defpoints
100
AcDbPoint
 10
3418.0
 20
3140.0
 30
0.0
  0
POINT
  5
1FE
330
1F1
100
AcDbEntity
  8
Defpoints
100
AcDbPoint
 10
3418.0
 20
3080.0
 30
0.0
  0
POINT
  5
1FF
330
1F1
100
AcDbEntity
  8
Defpoints
100
AcDbPoint
 10
3762.0
 20
3080.0
 30
0.0
  0
ENDBLK
  5
1F3
330
1F1
100
AcDbEntity
  8
0
100
AcDbBlockEnd
  0
BLOCK
  5
202
330
201
100
AcDbEntity
  8
0
100
AcDbBlockBegin
  2
*D20
 70
1
 10
0.0
 20
0.0
 30
0.0
  3
*D20
  1

  0
LINE
  5
204
330
201
100
AcDbEntity
  8
0
 62
2
100
AcDbLine
 10
2110.0
 20
2500.0
 30
0.0
 11
2110.0
 21
2380.0
 31
0.0
  0
LINE
  5
205
330
201
100
AcDbEntity
  8
0
 62
2
100
AcDbLine
 10
2110.0
 20
2950.0
 30
0.0
 11
2110.0
 21
2380.0
 31
0.0
  0
INSERT
  5
206
330
201
100
AcDbEntity
  8
0
 62
2
100
AcDbBlockReference
  2
_CLOSEDFILLED
 10
2110.0
 20
2380.0
 30
0.0
 41
12.0
 42
12.0
  0
INSERT
  5
208
330
201
100
AcDbEntity
  8
0
 62
2
100
AcDbBlockReference
  2
_CLOSEDFILLED
 10
2110.0
 20
2380.0
 30
0.0
 41
12.0
 42
12.0
 50
180.0
  0
LINE
  5
20A
330
201
100
AcDbEntity
  8
0
 62
2
100
AcDbLine
 10
2098.0
 20
2380.0
 30
0.0
 11
2086.0
 21
2380.0
 31
0.0
  0
LINE
  5
20B
330
201
100
AcDbEntity
  8
0
 62
2
100
AcDbLine
 10
2122.0
 20
2380.0
 30
0.0
 11
2134.0
 21
2380.0
 31
0.0
  0
LINE
  5
20C
330
201
100
AcDbEntity
  8
0
 62
2
100
AcDbLine
 10
2110.0
 20
2380.0
 30
0.0
 11
2110.0
 21
2380.0
 31
0.0
  0
MTEXT
  5
20D
330
201
100
AcDbEntity
  8
0
 62
2
100
AcDbMText
 10
2110.0
 20
2390.625
 30
0.0
 40
20.0
 71
5
  1
0
  0
POINT
  5
20E
330
201
100
AcDbEntity
  8
Defpoints
100
AcDbPoint
 10
2110.0
 20
2380.0
 30
0.0
  0
POINT
  5
20F
330
201
100
AcDbEntity
  8
Defpoints
100
AcDbPoint
 10
2110.0
 20
2500.0
 30
0.0
  0
POINT
  5
210
330
201
100
AcDbEntity
  8
Defpoints
100
AcDbPoint
 10
2110.0
 20
2950.0
 30
0.0
  0
ENDBLK
  5
203
330
201
100
AcDbEntity
  8
0
100
AcDbBlockEnd
  0
BLOCK
  5
213
330
212
100
AcDbEntity
  8
0
100
AcDbBlockBegin
  2
*D21
 70
1
 10
0.0
 20
0.0
 30
0.0
  3
*D21
  1

  0
LINE
  5
215
330
212
100
AcDbEntity
  8
0
 62
2
100
AcDbLine
 10
2110.0
 20
1300.0
 30
0.0
 11
2110.0
 21
1180.0
 31
0.0
  0
LINE
  5
216
330
212
100
AcDbEntity
  8
0
 62
2
100
AcDbLine
 10
2110.0
 20
2500.0
 30
0.0
 11
2110.0
 21
1180.0
 31
0.0
  0
INSERT
  5
217
330
212
100
AcDbEntity
  8
0
 62
2
100
AcDbBlockReference
  2
_CLOSEDFILLED
 10
2110.0
 20
1180.0
 30
0.0
 41
12.0
 42
12.0
  0
INSERT
  5
219
330
212
100
AcDbEntity
  8
0
 62
2
100
AcDbBlockReference
  2
_CLOSEDFILLED
 10
2110.0
 20
1180.0
 30
0.0
 41
12.0
 42
12.0
 50
180.0
  0
LINE
  5
21B
330
212
100
AcDbEntity
  8
0
 62
2
100
AcDbLine
 10
2098.0
 20
1180.0
 30
0.0
 11
2086.0
 21
1180.0
 31
0.0
  0
LINE
  5
21C
330
212
100
AcDbEntity
  8
0
 62
2
100
AcDbLine
 10
2122.0
 20
1180.0
 30
0.0
 11
2134.0
 21
1180.0
 31
0.0
  0
LINE
  5
21D
330
212
100
AcDbEntity
  8
0
 62
2
100
AcDbLine
 10
2110.0
 20
1180.0
 30
0.0
 11
2110.0
 21
1180.0
 31
0.0
  0
MTEXT
  5
21E
330
212
100
AcDbEntity
  8
0
 62
2
100
AcDbMText
 10
2110.0
 20
1190.625
 30
0.0
 40
20.0
 71
5
  1
0
  0
POINT
  5
21F
330
212
100
AcDbEntity
  8
Defpoints
100
AcDbPoint
 10
2110.0
 20
1180.0
 30
0.0
  0
POINT
  5
220
330
212
100
AcDbEntity
  8
Defpoints
100
AcDbPoint
 10
2110.0
 20
1300.0
 30
0.0
  0
POINT
  5
221
330
212
100
AcDbEntity
  8
Defpoints
100
AcDbPoint
 10
2110.0
 20
2500.0
 30
0.0
  0
ENDBLK
  5
214
330
212
100
AcDbEntity
  8
0
100
AcDbBlockEnd
  0
BLOCK
  5
236
330
235
100
AcDbEntity
  8
0
100
AcDbBlockBegin
  2
*D22
 70
1
 10
0.0
 20
0.0
 30
0.0
  3
*D22
  1

  0
LINE
  5
238
330
235
100
AcDbEntity
  8
0
 62
2
100
AcDbLine
 10
4180.0
 20
200.0
 30
0.0
 11
4180.0
 21
50.0
 31
0.0
  0
LINE
  5
239
330
235
100
AcDbEntity
  8
0
 62
2
100
AcDbLine
 10
4780.0
 20
200.0
 30
0.0
 11
4780.0
 21
50.0
 31
0.0
  0
INSERT
  5
23A
330
235
100
AcDbEntity
  8
0
 62
2
100
AcDbBlockReference
  2
_CLOSEDFILLED
 10
4180.0
 20
50.0
 30
0.0
 41
12.0
 42
12.0
 50
180.0
  0
INSERT
  5
23C
330
235
100
AcDbEntity
  8
0
 62
2
100
AcDbBlockReference
  2
_CLOSEDFILLED
 10
4780.0
 20
50.0
 30
0.0
 41
12.0
 42
12.0
  0
LINE
  5
23E
330
235
100
AcDbEntity
  8
0
 62
2
100
AcDbLine
 10
4192.0
 20
50.0
 30
0.0
 11
4450.0
 21
50.0
 31
0.0
  0
LINE
  5
23F
330
235
100
AcDbEntity
  8
0
 62
2
100
AcDbLine
 10
4510.0
 20
50.0
 30
0.0
 11
4768.0
 21
50.0
 31
0.0
  0
MTEXT
  5
240
330
235
100
AcDbEntity
  8
0
 62
2
100
AcDbMText
 10
4480.0
 20
50.0
 30
0.0
 40
20.0
 71
5
  1
600
  0
POINT
  5
241
330
235
100
AcDbEntity
  8
Defpoints
100
AcDbPoint
 10
4180.0
 20
50.0
 30
0.0
  0
POINT
  5
242
330
235
100
AcDbEntity
  8
Defpoints
100
AcDbPoint
 10
4180.0
 20
200.0
 30
0.0
  0
POINT
  5
243
330
235
100
AcDbEntity
  8
Defpoints
100
AcDbPoint
 10
4780.0
 20
200.0
 30
0.0
  0
ENDBLK
  5
237
330
235
100
AcDbEntity
  8
0
100
AcDbBlockEnd
  0
BLOCK
  5
246
330
245
100
AcDbEntity
  8
0
100
AcDbBlockBegin
  2
*D23
 70
1
 10
0.0
 20
0.0
 30
0.0
  3
*D23
  1

  0
LINE
  5
248
330
245
100
AcDbEntity
  8
0
 62
2
100
AcDbLine
 10
4780.0
 20
200.0
 30
0.0
 11
4780.0
 21
350.0
 31
0.0
  0
LINE
  5
249
330
245
100
AcDbEntity
  8
0
 62
2
100
AcDbLine
 10
4780.0
 20
3000.0
 30
0.0
 11
4780.0
 21
350.0
 31
0.0
  0
INSERT
  5
24A
330
245
100
AcDbEntity
  8
0
 62
2
100
AcDbBlockReference
  2
_CLOSEDFILLED
 10
4780.0
 20
350.0
 30
0.0
 41
12.0
 42
12.0
  0
INSERT
  5
24C
330
245
100
AcDbEntity
  8
0
 62
2
100
AcDbBlockReference
  2
_CLOSEDFILLED
 10
4780.0
 20
350.0
 30
0.0
 41
12.0
 42
12.0
 50
180.0
  0
LINE
  5
24E
330
245
100
AcDbEntity
  8
0
 62
2
100
AcDbLine
 10
4768.0
 20
350.0
 30
0.0
 11
4756.0
 21
350.0
 31
0.0
  0
LINE
  5
24F
330
245
100
AcDbEntity
  8
0
 62
2
100
AcDbLine
 10
4792.0
 20
350.0
 30
0.0
 11
4804.0
 21
350.0
 31
0.0
  0
LINE
  5
250
330
245
100
AcDbEntity
  8
0
 62
2
100
AcDbLine
 10
4780.0
 20
350.0
 30
0.0
 11
4780.0
 21
350.0
 31
0.0
  0
MTEXT
  5
251
330
245
100
AcDbEntity
  8
0
 62
2
100
AcDbMText
 10
4780.0
 20
360.625
 30
0.0
 40
20.0
 71
5
  1
0
  0
POINT
  5
252
330
245
100
AcDbEntity
  8
Defpoints
100
AcDbPoint
 10
4780.0
 20
350.0
 30
0.0
  0
POINT
  5
253
330
245
100
AcDbEntity
  8
Defpoints
100
AcDbPoint
 10
4780.0
 20
200.0
 30
0.0
  0
POINT
  5
254
330
245
100
AcDbEntity
  8
Defpoints
100
AcDbPoint
 10
4780.0
 20
3000.0
 30
0.0
  0
ENDBLK
  5
247
330
245
100
AcDbEntity
  8
0
100
AcDbBlockEnd
  0
BLOCK
  5
257
330
256
100
AcDbEntity
  8
0
100
AcDbBlockBegin
  2
*D24
 70
1
 10
0.0
 20
0.0
 30
0.0
  3
*D24
  1

  0
LINE
  5
259
330
256
100
AcDbEntity
  8
0
 62
2
100
AcDbLine
 10
4830.0
 20
2950.0
 30
0.0
 11
4830.0
 21
3030.0
 31
0.0
  0
LINE
  5
25A
330
256
100
AcDbEntity
  8
0
 62
2
100
AcDbLine
 10
4830.0
 20
3000.0
 30
0.0
 11
4830.0
 21
3030.0
 31
0.0
  0
INSERT
  5
25B
330
256
100
AcDbEntity
  8
0
 62
2
100
AcDbBlockReference
  2
_CLOSEDFILLED
 10
4830.0
 20
3030.0
 30
0.0
 41
12.0
 42
12.0
  0
INSERT
  5
25D
330
256
100
AcDbEntity
  8
0
 62
2
100
AcDbBlockReference
  2
_CLOSEDFILLED
 10
4830.0
 20
3030.0
 30
0.0
 41
12.0
 42
12.0
 50
180.0
  0
LINE
  5
25F
330
256
100
AcDbEntity
  8
0
 62
2
100
AcDbLine
 10
4818.0
 20
3030.0
 30
0.0
 11
4806.0
 21
3030.0
 31
0.0
  0
LINE
  5
260
330
256
100
AcDbEntity
  8
0
 62
2
100
AcDbLine
 10
4842.0
 20
3030.0
 30
0.0
 11
4854.0
 21
3030.0
 31
0.0
  0
LINE
  5
261
330
256
100
AcDbEntity
  8
0
 62
2
100
AcDbLine
 10
4830.0
 20
3030.0
 30
0.0
 11
4830.0
 21
3030.0
 31
0.0
  0
MTEXT
  5
262
330
256
100
AcDbEntity
  8
0
 62
2
100
AcDbMText
 10
4830.0
 20
3040.625
 30
0.0
 40
20.0
 71
5
  1
0
  0
POINT
  5
263
330
256
100
AcDbEntity
  8
Defpoints
100
AcDbPoint
 10
4830.0
 20
3030.0
 30
0.0
  0
POINT
  5
264
330
256
100
AcDbEntity
  8
Defpoints
100
AcDbPoint
 10
4830.0
 20
2950.0
 30
0.0
  0
POINT
  5
265
330
256
100
AcDbEntity
  8
Defpoints
100
AcDbPoint
 10
4830.0
 20
3000.0
 30
0.0
  0
ENDBLK
  5
258
330
256
100
AcDbEntity
  8
0
100
AcDbBlockEnd
  0
ENDSEC
  0
SECTION
  2
ENTITIES
  0
LWPOLYLINE
  5
38
330
17
100
AcDbEntity
  8
OUTLINE
100
AcDbPolyline
 90
4
 70
1
 10
200.0
 20
3600.0
 10
1790.0
 20
3600.0
 10
1790.0
 20
4200.0
 10
200.0
 20
4200.0
  0
LINE
  5
39
330
17
100
AcDbEntity
  8
BOARD
100
AcDbLine
 10
218.0
 20
3600.0
 30
0.0
 11
218.0
 21
4200.0
 31
0.0
  0
LINE
  5
3A
330
17
100
AcDbEntity
  8
BOARD
100
AcDbLine
 10
1772.0
 20
3600.0
 30
0.0
 11
1772.0
 21
4200.0
 31
0.0
  0
LINE
  5
3B
330
17
100
AcDbEntity
  8
BOARD
100
AcDbLine
 10
200.0
 20
4182.0
 30
0.0
 11
1790.0
 21
4182.0
 31
0.0
  0
LINE
  5
3C
330
17
100
AcDbEntity
  8
BOARD
100
AcDbLine
 10
854.0
 20
3600.0
 30
0.0
 11
854.0
 21
4182.0
 31
0.0
  0
LINE
  5
3D
330
17
100
AcDbEntity
  8
BOARD
100
AcDbLine
 10
1428.0
 20
3600.0
 30
0.0
 11
1428.0
 21
4182.0
 31
0.0
  0
LINE
  5
3E
330
17
100
AcDbEntity
  8
DOOR
100
AcDbLine
 10
200.0
 20
3595.0
 30
0.0
 11
1790.0
 21
3595.0
 31
0.0
  0
LINE
  5
3F
330
17
100
AcDbEntity
  8
DOOR
100
AcDbLine
 10
200.0
 20
3600.0
 30
0.0
 11
1790.0
 21
3600.0
 31
0.0
  0
DIMENSION
  5
40
330
17
100
AcDbEntity
  8
0
100
AcDbDimension
280
0
  2
*D1
  3
Standard
 10
200.0
 20
3450.0
 30
0.0
 11
995.0
 21
3450.0
 31
0.0
 70
32
 71
5
  1
<>
100
AcDbAlignedDimension
 13
200.0
 23
3600.0
 33
0.0
 14
1790.0
 24
3600.0
 34
0.0
 50
0.0
100
AcDbRotatedDimension
1001
ACAD
1000
DSTYLE
1002
{
1070
140
1040
20.0
1070
41
1040
12.0
1070
176
1070
2
1070
177
1070
2
1070
178
1070
2
1002
}
  0
DIMENSION
  5
54
330
17
100
AcDbEntity
  8
0
100
AcDbDimension
280
0
  2
*D2
  3
Standard
 10
1790.0
 20
3750.0
 30
0.0
 11
1790.0
 21
3760.625
 31
0.0
 70
32
 71
5
  1
<>
100
AcDbAlignedDimension
 13
1790.0
 23
3600.0
 33
0.0
 14
1790.0
 24
4200.0
 34
0.0
 50
0.0
100
AcDbRotatedDimension
1001
ACAD
1000
DSTYLE
1002
{
1070
140
1040
20.0
1070
41
1040
12.0
1070
176
1070
2
1070
177
1070
2
1070
178
1070
2
1002
}
  0
DIMENSION
  5
65
330
17
100
AcDbEntity
  8
0
100
AcDbDimension
280
0
  2
*D3
  3
Standard
 10
200.0
 20
3495.0
 30
0.0
 11
518.0
 21
3495.0
 31
0.0
 70
32
 71
5
  1
<>
100
AcDbAlignedDimension
 13
200.0
 23
3595.0
 33
0.0
 14
836.0
 24
3595.0
 34
0.0
 50
0.0
100
AcDbRotatedDimension
1001
ACAD
1000
DSTYLE
1002
{
1070
140
1040
20.0
1070
41
1040
12.0
1070
176
1070
2
1070
177
1070
2
1070
178
1070
2
1002
}
  0
DIMENSION
  5
75
330
17
100
AcDbEntity
  8
0
100
AcDbDimension
280
0
  2
*D4
  3
Standard
 10
872.0
 20
3495.0
 30
0.0
 11
1150.0
 21
3495.0
 31
0.0
 70
32
 71
5
  1
<>
100
AcDbAlignedDimension
 13
872.0
 23
3595.0
 33
0.0
 14
1428.0
 24
3595.0
 34
0.0
 50
0.0
100
AcDbRotatedDimension
1001
ACAD
1000
DSTYLE
1002
{
1070
140
1040
20.0
1070
41
1040
12.0
1070
176
1070
2
1070
177
1070
2
1070
178
1070
2
1002
}
  0
DIMENSION
  5
85
330
17
100
AcDbEntity
  8
0
100
AcDbDimension
280
0
  2
*D5
  3
Standard
 10
1446.0
 20
3495.0
 30
0.0
 11
1609.0
 21
3495.0
 31
0.0
 70
32
 71
5
  1
<>
100
AcDbAlignedDimension
 13
1446.0
 23
3595.0
 33
0.0
 14
1772.0
 24
3595.0
 34
0.0
 50
0.0
100
AcDbRotatedDimension
1001
ACAD
1000
DSTYLE
1002
{
1070
140
1040
20.0
1070
41
1040
12.0
1070
176
1070
2
1070
177
1070
2
1070
178
1070
2
1002
}
  0
TEXT
  5
95
330
17
100
AcDbEntity
  8
TEXT
100
AcDbText
 10
935.0
 20
4450.0
 30
0.0
 40
30.0
  1
俯视图
 11
935.0
 21
4450.0
 31
0.0
100
AcDbText
  0
LWPOLYLINE
  5
96
330
17
100
AcDbEntity
  8
OUTLINE
100
AcDbPolyline
 90
4
 70
1
 10
200.0
 20
200.0
 10
1790.0
 20
200.0
 10
1790.0
 20
3000.0
 10
200.0
 20
3000.0
  0
LWPOLYLINE
  5
97
330
17
100
AcDbEntity
  8
BOARD
100
AcDbPolyline
 90
4
 70
1
 10
200.0
 20
2950.0
 10
1790.0
 20
2950.0
 10
1790.0
 20
3000.0
 10
200.0
 20
3000.0
  0
LINE
  5
98
330
17
100
AcDbEntity
  8
PATTERN
100
AcDbLine
 10
200.0
 20
2950.0
 30
0.0
 11
250.0
 21
3000.0
 31
0.0
  0
LINE
  5
99
330
17
100
AcDbEntity
  8
PATTERN
100
AcDbLine
 10
280.0
 20
2950.0
 30
0.0
 11
330.0
 21
3000.0
 31
0.0
  0
LINE
  5
9A
330
17
100
AcDbEntity
  8
PATTERN
100
AcDbLine
 10
360.0
 20
2950.0
 30
0.0
 11
410.0
 21
3000.0
 31
0.0
  0
LINE
  5
9B
330
17
100
AcDbEntity
  8
PATTERN
100
AcDbLine
 10
440.0
 20
2950.0
 30
0.0
 11
490.0
 21
3000.0
 31
0.0
  0
LINE
  5
9C
330
17
100
AcDbEntity
  8
PATTERN
100
AcDbLine
 10
520.0
 20
2950.0
 30
0.0
 11
570.0
 21
3000.0
 31
0.0
  0
LINE
  5
9D
330
17
100
AcDbEntity
  8
PATTERN
100
AcDbLine
 10
600.0
 20
2950.0
 30
0.0
 11
650.0
 21
3000.0
 31
0.0
  0
LINE
  5
9E
330
17
100
AcDbEntity
  8
PATTERN
100
AcDbLine
 10
680.0
 20
2950.0
 30
0.0
 11
730.0
 21
3000.0
 31
0.0
  0
LINE
  5
9F
330
17
100
AcDbEntity
  8
PATTERN
100
AcDbLine
 10
760.0
 20
2950.0
 30
0.0
 11
810.0
 21
3000.0
 31
0.0
  0
LINE
  5
A0
330
17
100
AcDbEntity
  8
PATTERN
100
AcDbLine
 10
840.0
 20
2950.0
 30
0.0
 11
890.0
 21
3000.0
 31
0.0
  0
LINE
  5
A1
330
17
100
AcDbEntity
  8
PATTERN
100
AcDbLine
 10
920.0
 20
2950.0
 30
0.0
 11
970.0
 21
3000.0
 31
0.0
  0
LINE
  5
A2
330
17
100
AcDbEntity
  8
PATTERN
100
AcDbLine
 10
1000.0
 20
2950.0
 30
0.0
 11
1050.0
 21
3000.0
 31
0.0
  0
LINE
  5
A3
330
17
100
AcDbEntity
  8
PATTERN
100
AcDbLine
 10
1080.0
 20
2950.0
 30
0.0
 11
1130.0
 21
3000.0
 31
0.0
  0
LINE
  5
A4
330
17
100
AcDbEntity
  8
PATTERN
100
AcDbLine
 10
1160.0
 20
2950.0
 30
0.0
 11
1210.0
 21
3000.0
 31
0.0
  0
LINE
  5
A5
330
17
100
AcDbEntity
  8
PATTERN
100
AcDbLine
 10
1240.0
 20
2950.0
 30
0.0
 11
1290.0
 21
3000.0
 31
0.0
  0
LINE
  5
A6
330
17
100
AcDbEntity
  8
PATTERN
100
AcDbLine
 10
1320.0
 20
2950.0
 30
0.0
 11
1370.0
 21
3000.0
 31
0.0
  0
LINE
  5
A7
330
17
100
AcDbEntity
  8
PATTERN
100
AcDbLine
 10
1400.0
 20
2950.0
 30
0.0
 11
1450.0
 21
3000.0
 31
0.0
  0
LINE
  5
A8
330
17
100
AcDbEntity
  8
PATTERN
100
AcDbLine
 10
1480.0
 20
2950.0
 30
0.0
 11
1530.0
 21
3000.0
 31
0.0
  0
LINE
  5
A9
330
17
100
AcDbEntity
  8
PATTERN
100
AcDbLine
 10
1560.0
 20
2950.0
 30
0.0
 11
1610.0
 21
3000.0
 31
0.0
  0
LINE
  5
AA
330
17
100
AcDbEntity
  8
PATTERN
100
AcDbLine
 10
1640.0
 20
2950.0
 30
0.0
 11
1690.0
 21
3000.0
 31
0.0
  0
LINE
  5
AB
330
17
100
AcDbEntity
  8
PATTERN
100
AcDbLine
 10
1720.0
 20
2950.0
 30
0.0
 11
1770.0
 21
3000.0
 31
0.0
  0
LWPOLYLINE
  5
AC
330
17
100
AcDbEntity
  8
BOARD
100
AcDbPolyline
 90
4
 70
1
 10
200.0
 20
200.0
 10
1790.0
 20
200.0
 10
1790.0
 20
250.0
 10
200.0
 20
250.0
  0
LINE
  5
AD
330
17
100
AcDbEntity
  8
DOOR
100
AcDbLine
 10
200.0
 20
250.0
 30
0.0
 11
200.0
 21
2950.0
 31
0.0
  0
LINE
  5
AE
330
17
100
AcDbEntity
  8
DOOR
100
AcDbLine
 10
1790.0
 20
250.0
 30
0.0
 11
1790.0
 21
2950.0
 31
0.0
  0
LINE
  5
AF
330
17
100
AcDbEntity
  8
DOOR
100
AcDbLine
 10
200.0
 20
2950.0
 30
0.0
 11
1790.0
 21
2950.0
 31
0.0
  0
LINE
  5
B0
330
17
100
AcDbEntity
  8
DOOR
100
AcDbLine
 10
200.0
 20
250.0
 30
0.0
 11
1790.0
 21
250.0
 31
0.0
  0
LINE
  5
B1
330
17
100
AcDbEntity
  8
DOOR
100
AcDbLine
 10
607.0
 20
250.0
 30
0.0
 11
607.0
 21
2950.0
 31
0.0
  0
LINE
  5
B2
330
17
100
AcDbEntity
  8
DOOR
100
AcDbLine
 10
996.0
 20
250.0
 30
0.0
 11
996.0
 21
2950.0
 31
0.0
  0
LINE
  5
B3
330
17
100
AcDbEntity
  8
DOOR
100
AcDbLine
 10
1385.0
 20
250.0
 30
0.0
 11
1385.0
 21
2950.0
 31
0.0
  0
LINE
  5
B4
330
17
100
AcDbEntity
  8
PATTERN
100
AcDbLine
 10
411.5
 20
270.0
 30
0.0
 11
585.0
 21
1600.0
 31
0.0
  0
LINE
  5
B5
330
17
100
AcDbEntity
  8
PATTERN
100
AcDbLine
 10
585.0
 20
1600.0
 30
0.0
 11
411.5
 21
2930.0
 31
0.0
  0
LINE
  5
B6
330
17
100
AcDbEntity
  8
PATTERN
100
AcDbLine
 10
411.5
 20
2930.0
 30
0.0
 11
238.0
 21
1600.0
 31
0.0
  0
LINE
  5
B7
330
17
100
AcDbEntity
  8
PATTERN
100
AcDbLine
 10
238.0
 20
1600.0
 30
0.0
 11
411.5
 21
270.0
 31
0.0
  0
LINE
  5
B8
330
17
100
AcDbEntity
  8
PATTERN
100
AcDbLine
 10
411.5
 20
330.0
 30
0.0
 11
525.0
 21
1600.0
 31
0.0
  0
LINE
  5
B9
330
17
100
AcDbEntity
  8
PATTERN
100
AcDbLine
 10
525.0
 20
1600.0
 30
0.0
 11
411.5
 21
2870.0
 31
0.0
  0
LINE
  5
BA
330
17
100
AcDbEntity
  8
PATTERN
100
AcDbLine
 10
411.5
 20
2870.0
 30
0.0
 11
298.0
 21
1600.0
 31
0.0
  0
LINE
  5
BB
330
17
100
AcDbEntity
  8
PATTERN
100
AcDbLine
 10
298.0
 20
1600.0
 30
0.0
 11
411.5
 21
330.0
 31
0.0
  0
LINE
  5
BC
330
17
100
AcDbEntity
  8
PATTERN
100
AcDbLine
 10
800.5
 20
270.0
 30
0.0
 11
974.0
 21
1600.0
 31
0.0
  0
LINE
  5
BD
330
17
100
AcDbEntity
  8
PATTERN
100
AcDbLine
 10
974.0
 20
1600.0
 30
0.0
 11
800.5
 21
2930.0
 31
0.0
  0
LINE
  5
BE
330
17
100
AcDbEntity
  8
PATTERN
100
AcDbLine
 10
800.5
 20
2930.0
 30
0.0
 11
627.0
 21
1600.0
 31
0.0
  0
LINE
  5
BF
330
17
100
AcDbEntity
  8
PATTERN
100
AcDbLine
 10
627.0
 20
1600.0
 30
0.0
 11
800.5
 21
270.0
 31
0.0
  0
LINE
  5
C0
330
17
100
AcDbEntity
  8
PATTERN
100
AcDbLine
 10
800.5
 20
330.0
 30
0.0
 11
914.0
 21
1600.0
 31
0.0
  0
LINE
  5
C1
330
17
100
AcDbEntity
  8
PATTERN
100
AcDbLine
 10
914.0
 20
1600.0
 30
0.0
 11
800.5
 21
2870.0
 31
0.0
  0
LINE
  5
C2
330
17
100
AcDbEntity
  8
PATTERN
100
AcDbLine
 10
800.5
 20
2870.0
 30
0.0
 11
687.0
 21
1600.0
 31
0.0
  0
LINE
  5
C3
330
17
100
AcDbEntity
  8
PATTERN
100
AcDbLine
 10
687.0
 20
1600.0
 30
0.0
 11
800.5
 21
330.0
 31
0.0
  0
LINE
  5
C4
330
17
100
AcDbEntity
  8
PATTERN
100
AcDbLine
 10
1189.5
 20
270.0
 30
0.0
 11
1363.0
 21
1600.0
 31
0.0
  0
LINE
  5
C5
330
17
100
AcDbEntity
  8
PATTERN
100
AcDbLine
 10
1363.0
 20
1600.0
 30
0.0
 11
1189.5
 21
2930.0
 31
0.0
  0
LINE
  5
C6
330
17
100
AcDbEntity
  8
PATTERN
100
AcDbLine
 10
1189.5
 20
2930.0
 30
0.0
 11
1016.0
 21
1600.0
 31
0.0
  0
LINE
  5
C7
330
17
100
AcDbEntity
  8
PATTERN
100
AcDbLine
 10
1016.0
 20
1600.0
 30
0.0
 11
1189.5
 21
270.0
 31
0.0
  0
LINE
  5
C8
330
17
100
AcDbEntity
  8
PATTERN
100
AcDbLine
 10
1189.5
 20
330.0
 30
0.0
 11
1303.0
 21
1600.0
 31
0.0
  0
LINE
  5
C9
330
17
100
AcDbEntity
  8
PATTERN
100
AcDbLine
 10
1303.0
 20
1600.0
 30
0.0
 11
1189.5
 21
2870.0
 31
0.0
  0
LINE
  5
CA
330
17
100
AcDbEntity
  8
PATTERN
100
AcDbLine
 10
1189.5
 20
2870.0
 30
0.0
 11
1076.0
 21
1600.0
 31
0.0
  0
LINE
  5
CB
330
17
100
AcDbEntity
  8
PATTERN
100
AcDbLine
 10
1076.0
 20
1600.0
 30
0.0
 11
1189.5
 21
330.0
 31
0.0
  0
LINE
  5
CC
330
17
100
AcDbEntity
  8
PATTERN
100
AcDbLine
 10
1578.5
 20
270.0
 30
0.0
 11
1752.0
 21
1600.0
 31
0.0
  0
LINE
  5
CD
330
17
100
AcDbEntity
  8
PATTERN
100
AcDbLine
 10
1752.0
 20
1600.0
 30
0.0
 11
1578.5
 21
2930.0
 31
0.0
  0
LINE
  5
CE
330
17
100
AcDbEntity
  8
PATTERN
100
AcDbLine
 10
1578.5
 20
2930.0
 30
0.0
 11
1405.0
 21
1600.0
 31
0.0
  0
LINE
  5
CF
330
17
100
AcDbEntity
  8
PATTERN
100
AcDbLine
 10
1405.0
 20
1600.0
 30
0.0
 11
1578.5
 21
270.0
 31
0.0
  0
LINE
  5
D0
330
17
100
AcDbEntity
  8
PATTERN
100
AcDbLine
 10
1578.5
 20
330.0
 30
0.0
 11
1692.0
 21
1600.0
 31
0.0
  0
LINE
  5
D1
330
17
100
AcDbEntity
  8
PATTERN
100
AcDbLine
 10
1692.0
 20
1600.0
 30
0.0
 11
1578.5
 21
2870.0
 31
0.0
  0
LINE
  5
D2
330
17
100
AcDbEntity
  8
PATTERN
100
AcDbLine
 10
1578.5
 20
2870.0
 30
0.0
 11
1465.0
 21
1600.0
 31
0.0
  0
LINE
  5
D3
330
17
100
AcDbEntity
  8
PATTERN
100
AcDbLine
 10
1465.0
 20
1600.0
 30
0.0
 11
1578.5
 21
330.0
 31
0.0
  0
CIRCLE
  5
D4
330
17
100
AcDbEntity
  8
DOOR
100
AcDbCircle
 10
575.0
 20
1600.0
 30
0.0
 40
8.0
  0
CIRCLE
  5
D5
330
17
100
AcDbEntity
  8
DOOR
100
AcDbCircle
 10
964.0
 20
1600.0
 30
0.0
 40
8.0
  0
CIRCLE
  5
D6
330
17
100
AcDbEntity
  8
DOOR
100
AcDbCircle
 10
1353.0
 20
1600.0
 30
0.0
 40
8.0
  0
CIRCLE
  5
D7
330
17
100
AcDbEntity
  8
DOOR
100
AcDbCircle
 10
1742.0
 20
1600.0
 30
0.0
 40
8.0
  0
DIMENSION
  5
D8
330
17
100
AcDbEntity
  8
0
100
AcDbDimension
280
0
  2
*D6
  3
Standard
 10
200.0
 20
50.0
 30
0.0
 11
995.0
 21
50.0
 31
0.0
 70
32
 71
5
  1
<>
100
AcDbAlignedDimension
 13
200.0
 23
200.0
 33
0.0
 14
1790.0
 24
200.0
 34
0.0
 50
0.0
100
AcDbRotatedDimension
1001
ACAD
1000
DSTYLE
1002
{
1070
140
1040
20.0
1070
41
1040
12.0
1070
176
1070
2
1070
177
1070
2
1070
178
1070
2
1002
}
  0
DIMENSION
  5
E8
330
17
100
AcDbEntity
  8
0
100
AcDbDimension
280
0
  2
*D7
  3
Standard
 10
1790.0
 20
350.0
 30
0.0
 11
1790.0
 21
360.625
 31
0.0
 70
32
 71
5
  1
<>
100
AcDbAlignedDimension
 13
1790.0
 23
200.0
 33
0.0
 14
1790.0
 24
3000.0
 34
0.0
 50
0.0
100
AcDbRotatedDimension
1001
ACAD
1000
DSTYLE
1002
{
1070
140
1040
20.0
1070
41
1040
12.0
1070
176
1070
2
1070
177
1070
2
1070
178
1070
2
1002
}
  0
DIMENSION
  5
F9
330
17
100
AcDbEntity
  8
0
100
AcDbDimension
280
0
  2
*D8
  3
Standard
 10
200.0
 20
3155.0
 30
0.0
 11
995.0
 21
3155.0
 31
0.0
 70
32
 71
5
  1
<>
100
AcDbAlignedDimension
 13
200.0
 23
3005.0
 33
0.0
 14
1790.0
 24
3005.0
 34
0.0
 50
0.0
100
AcDbRotatedDimension
1001
ACAD
1000
DSTYLE
1002
{
1070
140
1040
20.0
1070
41
1040
12.0
1070
176
1070
2
1070
177
1070
2
1070
178
1070
2
1002
}
  0
DIMENSION
  5
109
330
17
100
AcDbEntity
  8
0
100
AcDbDimension
280
0
  2
*D9
  3
Standard
 10
218.0
 20
3140.0
 30
0.0
 11
411.5
 21
3140.0
 31
0.0
 70
32
 71
5
  1
<>
100
AcDbAlignedDimension
 13
218.0
 23
3080.0
 33
0.0
 14
605.0
 24
3080.0
 34
0.0
 50
0.0
100
AcDbRotatedDimension
1001
ACAD
1000
DSTYLE
1002
{
1070
140
1040
20.0
1070
41
1040
12.0
1070
176
1070
2
1070
177
1070
2
1070
178
1070
2
1002
}
  0
DIMENSION
  5
119
330
17
100
AcDbEntity
  8
0
100
AcDbDimension
280
0
  2
*D10
  3
Standard
 10
607.0
 20
3140.0
 30
0.0
 11
800.5
 21
3140.0
 31
0.0
 70
32
 71
5
  1
<>
100
AcDbAlignedDimension
 13
607.0
 23
3080.0
 33
0.0
 14
994.0
 24
3080.0
 34
0.0
 50
0.0
100
AcDbRotatedDimension
1001
ACAD
1000
DSTYLE
1002
{
1070
140
1040
20.0
1070
41
1040
12.0
1070
176
1070
2
1070
177
1070
2
1070
178
1070
2
1002
}
  0
DIMENSION
  5
129
330
17
100
AcDbEntity
  8
0
100
AcDbDimension
280
0
  2
*D11
  3
Standard
 10
996.0
 20
3140.0
 30
0.0
 11
1189.5
 21
3140.0
 31
0.0
 70
32
 71
5
  1
<>
100
AcDbAlignedDimension
 13
996.0
 23
3080.0
 33
0.0
 14
1383.0
 24
3080.0
 34
0.0
 50
0.0
100
AcDbRotatedDimension
1001
ACAD
1000
DSTYLE
1002
{
1070
140
1040
20.0
1070
41
1040
12.0
1070
176
1070
2
1070
177
1070
2
1070
178
1070
2
1002
}
  0
DIMENSION
  5
139
330
17
100
AcDbEntity
  8
0
100
AcDbDimension
280
0
  2
*D12
  3
Standard
 10
1385.0
 20
3140.0
 30
0.0
 11
1578.5
 21
3140.0
 31
0.0
 70
32
 71
5
  1
<>
100
AcDbAlignedDimension
 13
1385.0
 23
3080.0
 33
0.0
 14
1772.0
 24
3080.0
 34
0.0
 50
0.0
100
AcDbRotatedDimension
1001
ACAD
1000
DSTYLE
1002
{
1070
140
1040
20.0
1070
41
1040
12.0
1070
176
1070
2
1070
177
1070
2
1070
178
1070
2
1002
}
  0
DIMENSION
  5
149
330
17
100
AcDbEntity
  8
0
100
AcDbDimension
280
0
  2
*D13
  3
Standard
 10
1870.0
 20
3030.0
 30
0.0
 11
1870.0
 21
3040.625
 31
0.0
 70
32
 71
5
  1
<>
100
AcDbAlignedDimension
 13
1870.0
 23
2950.0
 33
0.0
 14
1870.0
 24
3000.0
 34
0.0
 50
0.0
100
AcDbRotatedDimension
1001
ACAD
1000
DSTYLE
1002
{
1070
140
1040
20.0
1070
41
1040
12.0
1070
176
1070
2
1070
177
1070
2
1070
178
1070
2
1002
}
  0
DIMENSION
  5
15A
330
17
100
AcDbEntity
  8
0
100
AcDbDimension
280
0
  2
*D14
  3
Standard
 10
1870.0
 20
280.0
 30
0.0
 11
1870.0
 21
290.625
 31
0.0
 70
32
 71
5
  1
<>
100
AcDbAlignedDimension
 13
1870.0
 23
200.0
 33
0.0
 14
1870.0
 24
250.0
 34
0.0
 50
0.0
100
AcDbRotatedDimension
1001
ACAD
1000
DSTYLE
1002
{
1070
140
1040
20.0
1070
41
1040
12.0
1070
176
1070
2
1070
177
1070
2
1070
178
1070
2
1002
}
  0
TEXT
  5
16B
330
17
100
AcDbEntity
  8
TEXT
100
AcDbText
 10
935.0
 20
-50.0
 30
0.0
 40
30.0
  1
外观图
 11
935.0
 21
-50.0
 31
0.0
100
AcDbText
  0
LWPOLYLINE
  5
16C
330
17
100
AcDbEntity
  8
OUTLINE
100
AcDbPolyline
 90
4
 70
1
 10
2190.0
 20
200.0
 10
3780.0
 20
200.0
 10
3780.0
 20
3000.0
 10
2190.0
 20
3000.0
  0
LWPOLYLINE
  5
16D
330
17
100
AcDbEntity
  8
BOARD
100
AcDbPolyline
 90
4
 70
1
 10
2190.0
 20
2950.0
 10
3780.0
 20
2950.0
 10
3780.0
 20
3000.0
 10
2190.0
 20
3000.0
  0
LINE
  5
16E
330
17
100
AcDbEntity
  8
PATTERN
100
AcDbLine
 10
2190.0
 20
2950.0
 30
0.0
 11
2240.0
 21
3000.0
 31
0.0
  0
LINE
  5
16F
330
17
100
AcDbEntity
  8
PATTERN
100
AcDbLine
 10
2270.0
 20
2950.0
 30
0.0
 11
2320.0
 21
3000.0
 31
0.0
  0
LINE
  5
170
330
17
100
AcDbEntity
  8
PATTERN
100
AcDbLine
 10
2350.0
 20
2950.0
 30
0.0
 11
2400.0
 21
3000.0
 31
0.0
  0
LINE
  5
171
330
17
100
AcDbEntity
  8
PATTERN
100
AcDbLine
 10
2430.0
 20
2950.0
 30
0.0
 11
2480.0
 21
3000.0
 31
0.0
  0
LINE
  5
172
330
17
100
AcDbEntity
  8
PATTERN
100
AcDbLine
 10
2510.0
 20
2950.0
 30
0.0
 11
2560.0
 21
3000.0
 31
0.0
  0
LINE
  5
173
330
17
100
AcDbEntity
  8
PATTERN
100
AcDbLine
 10
2590.0
 20
2950.0
 30
0.0
 11
2640.0
 21
3000.0
 31
0.0
  0
LINE
  5
174
330
17
100
AcDbEntity
  8
PATTERN
100
AcDbLine
 10
2670.0
 20
2950.0
 30
0.0
 11
2720.0
 21
3000.0
 31
0.0
  0
LINE
  5
175
330
17
100
AcDbEntity
  8
PATTERN
100
AcDbLine
 10
2750.0
 20
2950.0
 30
0.0
 11
2800.0
 21
3000.0
 31
0.0
  0
LINE
  5
176
330
17
100
AcDbEntity
  8
PATTERN
100
AcDbLine
 10
2830.0
 20
2950.0
 30
0.0
 11
2880.0
 21
3000.0
 31
0.0
  0
LINE
  5
177
330
17
100
AcDbEntity
  8
PATTERN
100
AcDbLine
 10
2910.0
 20
2950.0
 30
0.0
 11
2960.0
 21
3000.0
 31
0.0
  0
LINE
  5
178
330
17
100
AcDbEntity
  8
PATTERN
100
AcDbLine
 10
2990.0
 20
2950.0
 30
0.0
 11
3040.0
 21
3000.0
 31
0.0
  0
LINE
  5
179
330
17
100
AcDbEntity
  8
PATTERN
100
AcDbLine
 10
3070.0
 20
2950.0
 30
0.0
 11
3120.0
 21
3000.0
 31
0.0
  0
LINE
  5
17A
330
17
100
AcDbEntity
  8
PATTERN
100
AcDbLine
 10
3150.0
 20
2950.0
 30
0.0
 11
3200.0
 21
3000.0
 31
0.0
  0
LINE
  5
17B
330
17
100
AcDbEntity
  8
PATTERN
100
AcDbLine
 10
3230.0
 20
2950.0
 30
0.0
 11
3280.0
 21
3000.0
 31
0.0
  0
LINE
  5
17C
330
17
100
AcDbEntity
  8
PATTERN
100
AcDbLine
 10
3310.0
 20
2950.0
 30
0.0
 11
3360.0
 21
3000.0
 31
0.0
  0
LINE
  5
17D
330
17
100
AcDbEntity
  8
PATTERN
100
AcDbLine
 10
3390.0
 20
2950.0
 30
0.0
 11
3440.0
 21
3000.0
 31
0.0
  0
LINE
  5
17E
330
17
100
AcDbEntity
  8
PATTERN
100
AcDbLine
 10
3470.0
 20
2950.0
 30
0.0
 11
3520.0
 21
3000.0
 31
0.0
  0
LINE
  5
17F
330
17
100
AcDbEntity
  8
PATTERN
100
AcDbLine
 10
3550.0
 20
2950.0
 30
0.0
 11
3600.0
 21
3000.0
 31
0.0
  0
LINE
  5
180
330
17
100
AcDbEntity
  8
PATTERN
100
AcDbLine
 10
3630.0
 20
2950.0
 30
0.0
 11
3680.0
 21
3000.0
 31
0.0
  0
LINE
  5
181
330
17
100
AcDbEntity
  8
PATTERN
100
AcDbLine
 10
3710.0
 20
2950.0
 30
0.0
 11
3760.0
 21
3000.0
 31
0.0
  0
LWPOLYLINE
  5
182
330
17
100
AcDbEntity
  8
BOARD
100
AcDbPolyline
 90
4
 70
1
 10
2190.0
 20
200.0
 10
3780.0
 20
200.0
 10
3780.0
 20
250.0
 10
2190.0
 20
250.0
  0
LINE
  5
183
330
17
100
AcDbEntity
  8
BOARD
100
AcDbLine
 10
2208.0
 20
200.0
 30
0.0
 11
2208.0
 21
2950.0
 31
0.0
  0
LINE
  5
184
330
17
100
AcDbEntity
  8
BOARD
100
AcDbLine
 10
3762.0
 20
200.0
 30
0.0
 11
3762.0
 21
2950.0
 31
0.0
  0
LINE
  5
185
330
17
100
AcDbEntity
  8
BOARD
100
AcDbLine
 10
2844.0
 20
250.0
 30
0.0
 11
2844.0
 21
2950.0
 31
0.0
  0
LINE
  5
186
330
17
100
AcDbEntity
  8
BOARD
100
AcDbLine
 10
3418.0
 20
250.0
 30
0.0
 11
3418.0
 21
2950.0
 31
0.0
  0
LINE
  5
187
330
17
100
AcDbEntity
  8
BOARD
100
AcDbLine
 10
2208.0
 20
2500.0
 30
0.0
 11
2844.0
 21
2500.0
 31
0.0
  0
LINE
  5
188
330
17
100
AcDbEntity
  8
BOARD
100
AcDbLine
 10
2208.0
 20
1300.0
 30
0.0
 11
2844.0
 21
1300.0
 31
0.0
  0
LINE
  5
189
330
17
100
AcDbEntity
  8
HANGER
100
AcDbLine
 10
2248.0
 20
2420.0
 30
0.0
 11
2804.0
 21
2420.0
 31
0.0
  0
LINE
  5
18A
330
17
100
AcDbEntity
  8
HANGER
100
AcDbLine
 10
2248.0
 20
2440.0
 30
0.0
 11
2248.0
 21
2400.0
 31
0.0
  0
LINE
  5
18B
330
17
100
AcDbEntity
  8
HANGER
100
AcDbLine
 10
2804.0
 20
2440.0
 30
0.0
 11
2804.0
 21
2400.0
 31
0.0
  0
LINE
  5
18C
330
17
100
AcDbEntity
  8
INNER
100
AcDbLine
 10
2308.0
 20
2400.0
 30
0.0
 11
2308.0
 21
2150.0
 31
0.0
  0
LINE
  5
18D
330
17
100
AcDbEntity
  8
INNER
100
AcDbLine
 10
2278.0
 20
2150.0
 30
0.0
 11
2338.0
 21
2150.0
 31
0.0
  0
LINE
  5
18E
330
17
100
AcDbEntity
  8
INNER
100
AcDbLine
 10
2458.0
 20
2400.0
 30
0.0
 11
2458.0
 21
2150.0
 31
0.0
  0
LINE
  5
18F
330
17
100
AcDbEntity
  8
INNER
100
AcDbLine
 10
2428.0
 20
2150.0
 30
0.0
 11
2488.0
 21
2150.0
 31
0.0
  0
LINE
  5
190
330
17
100
AcDbEntity
  8
INNER
100
AcDbLine
 10
2608.0
 20
2400.0
 30
0.0
 11
2608.0
 21
2150.0
 31
0.0
  0
LINE
  5
191
330
17
100
AcDbEntity
  8
INNER
100
AcDbLine
 10
2578.0
 20
2150.0
 30
0.0
 11
2638.0
 21
2150.0
 31
0.0
  0
LINE
  5
192
330
17
100
AcDbEntity
  8
BOARD
100
AcDbLine
 10
2208.0
 20
1000.0
 30
0.0
 11
2844.0
 21
1000.0
 31
0.0
  0
LINE
  5
193
330
17
100
AcDbEntity
  8
BOARD
100
AcDbLine
 10
2208.0
 20
700.0
 30
0.0
 11
2844.0
 21
700.0
 31
0.0
  0
LINE
  5
194
330
17
100
AcDbEntity
  8
INNER
100
AcDbLine
 10
2258.0
 20
1150.0
 30
0.0
 11
2408.0
 21
1150.0
 31
0.0
  0
LINE
  5
195
330
17
100
AcDbEntity
  8
INNER
100
AcDbLine
 10
2258.0
 20
850.0
 30
0.0
 11
2408.0
 21
850.0
 31
0.0
  0
LINE
  5
196
330
17
100
AcDbEntity
  8
BOARD
100
AcDbLine
 10
2862.0
 20
2500.0
 30
0.0
 11
3418.0
 21
2500.0
 31
0.0
  0
LINE
  5
197
330
17
100
AcDbEntity
  8
BOARD
100
AcDbLine
 10
2862.0
 20
1780.0
 30
0.0
 11
3418.0
 21
1780.0
 31
0.0
  0
LINE
  5
198
330
17
100
AcDbEntity
  8
HANGER
100
AcDbLine
 10
2902.0
 20
2420.0
 30
0.0
 11
3378.0
 21
2420.0
 31
0.0
  0
LINE
  5
199
330
17
100
AcDbEntity
  8
HANGER
100
AcDbLine
 10
2902.0
 20
2440.0
 30
0.0
 11
2902.0
 21
2400.0
 31
0.0
  0
LINE
  5
19A
330
17
100
AcDbEntity
  8
HANGER
100
AcDbLine
 10
3378.0
 20
2440.0
 30
0.0
 11
3378.0
 21
2400.0
 31
0.0
  0
LINE
  5
19B
330
17
100
AcDbEntity
  8
INNER
100
AcDbLine
 10
2962.0
 20
2400.0
 30
0.0
 11
2962.0
 21
2150.0
 31
0.0
  0
LINE
  5
19C
330
17
100
AcDbEntity
  8
INNER
100
AcDbLine
 10
2932.0
 20
2150.0
 30
0.0
 11
2992.0
 21
2150.0
 31
0.0
  0
LINE
  5
19D
330
17
100
AcDbEntity
  8
INNER
100
AcDbLine
 10
3112.0
 20
2400.0
 30
0.0
 11
3112.0
 21
2150.0
 31
0.0
  0
LINE
  5
19E
330
17
100
AcDbEntity
  8
INNER
100
AcDbLine
 10
3082.0
 20
2150.0
 30
0.0
 11
3142.0
 21
2150.0
 31
0.0
  0
LINE
  5
19F
330
17
100
AcDbEntity
  8
HANGER
100
AcDbLine
 10
2902.0
 20
1700.0
 30
0.0
 11
3378.0
 21
1700.0
 31
0.0
  0
LINE
  5
1A0
330
17
100
AcDbEntity
  8
HANGER
100
AcDbLine
 10
2902.0
 20
1680.0
 30
0.0
 11
2902.0
 21
1720.0
 31
0.0
  0
LINE
  5
1A1
330
17
100
AcDbEntity
  8
HANGER
100
AcDbLine
 10
3378.0
 20
1680.0
 30
0.0
 11
3378.0
 21
1720.0
 31
0.0
  0
LINE
  5
1A2
330
17
100
AcDbEntity
  8
INNER
100
AcDbLine
 10
2942.0
 20
1680.0
 30
0.0
 11
2942.0
 21
1400.0
 31
0.0
  0
LINE
  5
1A3
330
17
100
AcDbEntity
  8
INNER
100
AcDbLine
 10
2917.0
 20
1400.0
 30
0.0
 11
2967.0
 21
1400.0
 31
0.0
  0
LINE
  5
1A4
330
17
100
AcDbEntity
  8
INNER
100
AcDbLine
 10
3062.0
 20
1680.0
 30
0.0
 11
3062.0
 21
1400.0
 31
0.0
  0
LINE
  5
1A5
330
17
100
AcDbEntity
  8
INNER
100
AcDbLine
 10
3037.0
 20
1400.0
 30
0.0
 11
3087.0
 21
1400.0
 31
0.0
  0
LINE
  5
1A6
330
17
100
AcDbEntity
  8
INNER
100
AcDbLine
 10
3182.0
 20
1680.0
 30
0.0
 11
3182.0
 21
1400.0
 31
0.0
  0
LINE
  5
1A7
330
17
100
AcDbEntity
  8
INNER
100
AcDbLine
 10
3157.0
 20
1400.0
 30
0.0
 11
3207.0
 21
1400.0
 31
0.0
  0
LINE
  5
1A8
330
17
100
AcDbEntity
  8
BOARD
100
AcDbLine
 10
3436.0
 20
2500.0
 30
0.0
 11
3762.0
 21
2500.0
 31
0.0
  0
LINE
  5
1A9
330
17
100
AcDbEntity
  8
BOARD
100
AcDbLine
 10
3436.0
 20
1766.6666666666665
 30
0.0
 11
3762.0
 21
1766.6666666666665
 31
0.0
  0
LINE
  5
1AA
330
17
100
AcDbEntity
  8
INNER
100
AcDbLine
 10
3579.0
 20
2133.333333333333
 30
0.0
 11
3619.0
 21
2133.333333333333
 31
0.0
  0
LINE
  5
1AB
330
17
100
AcDbEntity
  8
BOARD
100
AcDbLine
 10
3436.0
 20
1033.3333333333333
 30
0.0
 11
3762.0
 21
1033.3333333333333
 31
0.0
  0
LINE
  5
1AC
330
17
100
AcDbEntity
  8
INNER
100
AcDbLine
 10
3579.0
 20
1400.0
 30
0.0
 11
3619.0
 21
1400.0
 31
0.0
  0
LINE
  5
1AD
330
17
100
AcDbEntity
  8
BOARD
100
AcDbLine
 10
3436.0
 20
300.0
 30
0.0
 11
3762.0
 21
300.0
 31
0.0
  0
LINE
  5
1AE
330
17
100
AcDbEntity
  8
INNER
100
AcDbLine
 10
3579.0
 20
666.6666666666667
 30
0.0
 11
3619.0
 21
666.6666666666667
 31
0.0
  0
DIMENSION
  5
1AF
330
17
100
AcDbEntity
  8
0
100
AcDbDimension
280
0
  2
*D15
  3
Standard
 10
2190.0
 20
50.0
 30
0.0
 11
2985.0
 21
50.0
 31
0.0
 70
32
 71
5
  1
<>
100
AcDbAlignedDimension
 13
2190.0
 23
200.0
 33
0.0
 14
3780.0
 24
200.0
 34
0.0
 50
0.0
100
AcDbRotatedDimension
1001
ACAD
1000
DSTYLE
1002
{
1070
140
1040
20.0
1070
41
1040
12.0
1070
176
1070
2
1070
177
1070
2
1070
178
1070
2
1002
}
  0
DIMENSION
  5
1BF
330
17
100
AcDbEntity
  8
0
100
AcDbDimension
280
0
  2
*D16
  3
Standard
 10
3780.0
 20
350.0
 30
0.0
 11
3780.0
 21
360.625
 31
0.0
 70
32
 71
5
  1
<>
100
AcDbAlignedDimension
 13
3780.0
 23
200.0
 33
0.0
 14
3780.0
 24
3000.0
 34
0.0
 50
0.0
100
AcDbRotatedDimension
1001
ACAD
1000
DSTYLE
1002
{
1070
140
1040
20.0
1070
41
1040
12.0
1070
176
1070
2
1070
177
1070
2
1070
178
1070
2
1002
}
  0
DIMENSION
  5
1D0
330
17
100
AcDbEntity
  8
0
100
AcDbDimension
280
0
  2
*D17
  3
Standard
 10
2190.0
 20
3140.0
 30
0.0
 11
2517.0
 21
3140.0
 31
0.0
 70
32
 71
5
  1
<>
100
AcDbAlignedDimension
 13
2190.0
 23
3080.0
 33
0.0
 14
2844.0
 24
3080.0
 34
0.0
 50
0.0
100
AcDbRotatedDimension
1001
ACAD
1000
DSTYLE
1002
{
1070
140
1040
20.0
1070
41
1040
12.0
1070
176
1070
2
1070
177
1070
2
1070
178
1070
2
1002
}
  0
DIMENSION
  5
1E0
330
17
100
AcDbEntity
  8
0
100
AcDbDimension
280
0
  2
*D18
  3
Standard
 10
2844.0
 20
3140.0
 30
0.0
 11
3131.0
 21
3140.0
 31
0.0
 70
32
 71
5
  1
<>
100
AcDbAlignedDimension
 13
2844.0
 23
3080.0
 33
0.0
 14
3418.0
 24
3080.0
 34
0.0
 50
0.0
100
AcDbRotatedDimension
1001
ACAD
1000
DSTYLE
1002
{
1070
140
1040
20.0
1070
41
1040
12.0
1070
176
1070
2
1070
177
1070
2
1070
178
1070
2
1002
}
  0
DIMENSION
  5
1F0
330
17
100
AcDbEntity
  8
0
100
AcDbDimension
280
0
  2
*D19
  3
Standard
 10
3418.0
 20
3140.0
 30
0.0
 11
3590.0
 21
3140.0
 31
0.0
 70
32
 71
5
  1
<>
100
AcDbAlignedDimension
 13
3418.0
 23
3080.0
 33
0.0
 14
3762.0
 24
3080.0
 34
0.0
 50
0.0
100
AcDbRotatedDimension
1001
ACAD
1000
DSTYLE
1002
{
1070
140
1040
20.0
1070
41
1040
12.0
1070
176
1070
2
1070
177
1070
2
1070
178
1070
2
1002
}
  0
DIMENSION
  5
200
330
17
100
AcDbEntity
  8
0
100
AcDbDimension
280
0
  2
*D20
  3
Standard
 10
2110.0
 20
2380.0
 30
0.0
 11
2110.0
 21
2390.625
 31
0.0
 70
32
 71
5
  1
<>
100
AcDbAlignedDimension
 13
2110.0
 23
2500.0
 33
0.0
 14
2110.0
 24
2950.0
 34
0.0
 50
0.0
100
AcDbRotatedDimension
1001
ACAD
1000
DSTYLE
1002
{
1070
140
1040
20.0
1070
41
1040
12.0
1070
176
1070
2
1070
177
1070
2
1070
178
1070
2
1002
}
  0
DIMENSION
  5
211
330
17
100
AcDbEntity
  8
0
100
AcDbDimension
280
0
  2
*D21
  3
Standard
 10
2110.0
 20
1180.0
 30
0.0
 11
2110.0
 21
1190.625
 31
0.0
 70
32
 71
5
  1
<>
100
AcDbAlignedDimension
 13
2110.0
 23
1300.0
 33
0.0
 14
2110.0
 24
2500.0
 34
0.0
 50
0.0
100
AcDbRotatedDimension
1001
ACAD
1000
DSTYLE
1002
{
1070
140
1040
20.0
1070
41
1040
12.0
1070
176
1070
2
1070
177
1070
2
1070
178
1070
2
1002
}
  0
TEXT
  5
222
330
17
100
AcDbEntity
  8
TEXT
100
AcDbText
 10
2925.0
 20
-50.0
 30
0.0
 40
30.0
  1
结构图
 11
2925.0
 21
-50.0
 31
0.0
100
AcDbText
  0
LWPOLYLINE
  5
223
330
17
100
AcDbEntity
  8
OUTLINE
100
AcDbPolyline
 90
4
 70
1
 10
4180.0
 20
200.0
 10
4780.0
 20
200.0
 10
4780.0
 20
3000.0
 10
4180.0
 20
3000.0
  0
LWPOLYLINE
  5
224
330
17
100
AcDbEntity
  8
BOARD
100
AcDbPolyline
 90
4
 70
1
 10
4180.0
 20
2950.0
 10
4780.0
 20
2950.0
 10
4780.0
 20
3000.0
 10
4180.0
 20
3000.0
  0
LINE
  5
225
330
17
100
AcDbEntity
  8
PATTERN
100
AcDbLine
 10
4180.0
 20
2950.0
 30
0.0
 11
4220.0
 21
3000.0
 31
0.0
  0
LINE
  5
226
330
17
100
AcDbEntity
  8
PATTERN
100
AcDbLine
 10
4240.0
 20
2950.0
 30
0.0
 11
4280.0
 21
3000.0
 31
0.0
  0
LINE
  5
227
330
17
100
AcDbEntity
  8
PATTERN
100
AcDbLine
 10
4300.0
 20
2950.0
 30
0.0
 11
4340.0
 21
3000.0
 31
0.0
  0
LINE
  5
228
330
17
100
AcDbEntity
  8
PATTERN
100
AcDbLine
 10
4360.0
 20
2950.0
 30
0.0
 11
4400.0
 21
3000.0
 31
0.0
  0
LINE
  5
229
330
17
100
AcDbEntity
  8
PATTERN
100
AcDbLine
 10
4420.0
 20
2950.0
 30
0.0
 11
4460.0
 21
3000.0
 31
0.0
  0
LINE
  5
22A
330
17
100
AcDbEntity
  8
PATTERN
100
AcDbLine
 10
4480.0
 20
2950.0
 30
0.0
 11
4520.0
 21
3000.0
 31
0.0
  0
LINE
  5
22B
330
17
100
AcDbEntity
  8
PATTERN
100
AcDbLine
 10
4540.0
 20
2950.0
 30
0.0
 11
4580.0
 21
3000.0
 31
0.0
  0
LINE
  5
22C
330
17
100
AcDbEntity
  8
PATTERN
100
AcDbLine
 10
4600.0
 20
2950.0
 30
0.0
 11
4640.0
 21
3000.0
 31
0.0
  0
LINE
  5
22D
330
17
100
AcDbEntity
  8
PATTERN
100
AcDbLine
 10
4660.0
 20
2950.0
 30
0.0
 11
4700.0
 21
3000.0
 31
0.0
  0
LINE
  5
22E
330
17
100
AcDbEntity
  8
PATTERN
100
AcDbLine
 10
4720.0
 20
2950.0
 30
0.0
 11
4760.0
 21
3000.0
 31
0.0
  0
LWPOLYLINE
  5
22F
330
17
100
AcDbEntity
  8
BOARD
100
AcDbPolyline
 90
4
 70
1
 10
4180.0
 20
200.0
 10
4780.0
 20
200.0
 10
4780.0
 20
250.0
 10
4180.0
 20
250.0
  0
LINE
  5
230
330
17
100
AcDbEntity
  8
BOARD
100
AcDbLine
 10
4198.0
 20
200.0
 30
0.0
 11
4198.0
 21
2950.0
 31
0.0
  0
LINE
  5
231
330
17
100
AcDbEntity
  8
BOARD
100
AcDbLine
 10
4198.0
 20
2500.0
 30
0.0
 11
4762.0
 21
2500.0
 31
0.0
  0
LINE
  5
232
330
17
100
AcDbEntity
  8
BOARD
100
AcDbLine
 10
4198.0
 20
1300.0
 30
0.0
 11
4762.0
 21
1300.0
 31
0.0
  0
LINE
  5
233
330
17
100
AcDbEntity
  8
BOARD
100
AcDbLine
 10
4198.0
 20
1000.0
 30
0.0
 11
4762.0
 21
1000.0
 31
0.0
  0
DIMENSION
  5
234
330
17
100
AcDbEntity
  8
0
100
AcDbDimension
280
0
  2
*D22
  3
Standard
 10
4180.0
 20
50.0
 30
0.0
 11
4480.0
 21
50.0
 31
0.0
 70
32
 71
5
  1
<>
100
AcDbAlignedDimension
 13
4180.0
 23
200.0
 33
0.0
 14
4780.0
 24
200.0
 34
0.0
 50
0.0
100
AcDbRotatedDimension
1001
ACAD
1000
DSTYLE
1002
{
1070
140
1040
20.0
1070
41
1040
12.0
1070
176
1070
2
1070
177
1070
2
1070
178
1070
2
1002
}
  0
DIMENSION
  5
244
330
17
100
AcDbEntity
  8
0
100
AcDbDimension
280
0
  2
*D23
  3
Standard
 10
4780.0
 20
350.0
 30
0.0
 11
4780.0
 21
360.625
 31
0.0
 70
32
 71
5
  1
<>
100
AcDbAlignedDimension
 13
4780.0
 23
200.0
 33
0.0
 14
4780.0
 24
3000.0
 34
0.0
 50
0.0
100
AcDbRotatedDimension
1001
ACAD
1000
DSTYLE
1002
{
1070
140
1040
20.0
1070
41
1040
12.0
1070
176
1070
2
1070
177
1070
2
1070
178
1070
2
1002
}
  0
DIMENSION
  5
255
330
17
100
AcDbEntity
  8
0
100
AcDbDimension
280
0
  2
*D24
  3
Standard
 10
4830.0
 20
3030.0
 30
0.0
 11
4830.0
 21
3040.625
 31
0.0
 70
32
 71
5
  1
<>
100
AcDbAlignedDimension
 13
4830.0
 23
2950.0
 33
0.0
 14
4830.0
 24
3000.0
 34
0.0
 50
0.0
100
AcDbRotatedDimension
1001
ACAD
1000
DSTYLE
1002
{
1070
140
1040
20.0
1070
41
1040
12.0
1070
176
1070
2
1070
177
1070
2
1070
178
1070
2
1002
}
  0
TEXT
  5
266
330
17
100
AcDbEntity
  8
TEXT
100
AcDbText
 10
4420.0
 20
-50.0
 30
0.0
 40
30.0
  1
侧视图
 11
4420.0
 21
-50.0
 31
0.0
100
AcDbText
  0
TEXT
  5
267
330
17
100
AcDbEntity
  8
NOTE
100
AcDbText
 10
5180.0
 20
3600.0
 30
0.0
 40
35.0
  1
备注：主卧衣柜
 11
5180.0
 21
3600.0
 31
0.0
100
AcDbText
  0
TEXT
  5
268
330
17
100
AcDbEntity
  8
NOTE
100
AcDbText
 10
5180.0
 20
3540.0
 30
0.0
 40
22.0
  1
柜体颜色：派阳山 博兰灰 欧松板 49尺
 11
5180.0
 21
3540.0
 31
0.0
100
AcDbText
  0
TEXT
  5
269
330
17
100
AcDbEntity
  8
NOTE
100
AcDbText
 10
5180.0
 20
3500.0
 30
0.0
 40
22.0
  1
柜体颜色：福庆 福月胡桃 多层实木 48尺
 11
5180.0
 21
3500.0
 31
0.0
100
AcDbText
  0
TEXT
  5
26A
330
17
100
AcDbEntity
  8
NOTE
100
AcDbText
 10
5180.0
 20
3460.0
 30
0.0
 40
22.0
  1
木制免拉手
 11
5180.0
 21
3460.0
 31
0.0
100
AcDbText
  0
TEXT
  5
26B
330
17
100
AcDbEntity
  8
NOTE
100
AcDbText
 10
5180.0
 20
3420.0
 30
0.0
 40
22.0
  1
文件配效果图
 11
5180.0
 21
3420.0
 31
0.0
100
AcDbText
  0
TEXT
  5
26C
330
17
100
AcDbEntity
  8
TEXT
100
AcDbText
 10
5180.0
 20
3340.0
 30
0.0
 40
25.0
  1
尺寸参数:
 11
5180.0
 21
3340.0
 31
0.0
100
AcDbText
  0
TEXT
  5
26D
330
17
100
AcDbEntity
  8
TEXT
100
AcDbText
 10
5180.0
 20
3300.0
 30
0.0
 40
22.0
  1
总宽: 1590mm
 11
5180.0
 21
3300.0
 31
0.0
100
AcDbText
  0
TEXT
  5
26E
330
17
100
AcDbEntity
  8
TEXT
100
AcDbText
 10
5180.0
 20
3265.0
 30
0.0
 40
22.0
  1
总深: 600mm
 11
5180.0
 21
3265.0
 31
0.0
100
AcDbText
  0
TEXT
  5
26F
330
17
100
AcDbEntity
  8
TEXT
100
AcDbText
 10
5180.0
 20
3230.0
 30
0.0
 40
22.0
  1
总高: 2800mm
 11
5180.0
 21
3230.0
 31
0.0
100
AcDbText
  0
TEXT
  5
270
330
17
100
AcDbEntity
  8
TEXT
100
AcDbText
 10
5180.0
 20
3195.0
 30
0.0
 40
22.0
  1
板材: 18mm
 11
5180.0
 21
3195.0
 31
0.0
100
AcDbText
  0
ENDSEC
  0
SECTION
  2
OBJECTS
  0
DICTIONARY
  5
A
330
0
100
AcDbDictionary
281
1
  3
ACAD_COLOR
350
B
  3
ACAD_GROUP
350
C
  3
ACAD_LAYOUT
350
D
  3
ACAD_MATERIAL
350
E
  3
ACAD_MLEADERSTYLE
350
F
  3
ACAD_MLINESTYLE
350
10
  3
ACAD_PLOTSETTINGS
350
11
  3
ACAD_PLOTSTYLENAME
350
12
  3
ACAD_SCALELIST
350
14
  3
ACAD_TABLESTYLE
350
15
  3
ACAD_VISUALSTYLE
350
16
  3
EZDXF_META
350
2D
  0
DICTIONARY
  5
B
330
A
100
AcDbDictionary
281
1
  0
DICTIONARY
  5
C
330
A
100
AcDbDictionary
281
1
  0
DICTIONARY
  5
D
330
A
100
AcDbDictionary
281
1
  3
Model
350
1A
  3
Layout1
350
1E
  0
DICTIONARY
  5
E
330
A
100
AcDbDictionary
281
1
  3
ByBlock
350
1F
  3
ByLayer
350
20
  3
Global
350
21
  0
DICTIONARY
  5
F
330
A
100
AcDbDictionary
281
1
  3
Standard
350
2C
  0
DICTIONARY
  5
10
330
A
100
AcDbDictionary
281
1
  3
Standard
350
22
  0
DICTIONARY
  5
11
330
A
100
AcDbDictionary
281
1
  0
ACDBDICTIONARYWDFLT
  5
12
330
A
100
AcDbDictionary
281
1
  3
Normal
350
13
100
AcDbDictionaryWithDefault
340
13
  0
ACDBPLACEHOLDER
  5
13
330
12
  0
DICTIONARY
  5
14
330
A
100
AcDbDictionary
281
1
  0
DICTIONARY
  5
15
330
A
100
AcDbDictionary
281
1
  0
DICTIONARY
  5
16
330
A
100
AcDbDictionary
281
1
  0
LAYOUT
  5
1A
330
D
100
AcDbPlotSettings
  1

  4
A3
  6

 40
7.5
 41
20.0
 42
7.5
 43
20.0
 44
420.0
 45
297.0
 46
0.0
 47
0.0
 48
0.0
 49
0.0
140
0.0
141
0.0
142
1.0
143
1.0
 70
1024
 72
1
 73
0
 74
5
  7

 75
16
 76
0
 77
2
 78
300
147
1.0
148
0.0
149
0.0
100
AcDbLayout
  1
Model
 70
1
 71
0
 10
0.0
 20
0.0
 11
420.0
 21
297.0
 12
0.0
 22
0.0
 32
0.0
 14
1e+20
 24
1e+20
 34
1e+20
 15
-1e+20
 25
-1e+20
 35
-1e+20
146
0.0
 13
0.0
 23
0.0
 33
0.0
 16
1.0
 26
0.0
 36
0.0
 17
0.0
 27
1.0
 37
0.0
 76
1
330
17
  0
LAYOUT
  5
1E
330
D
100
AcDbPlotSettings
  1

  4
A3
  6

 40
7.5
 41
20.0
 42
7.5
 43
20.0
 44
420.0
 45
297.0
 46
0.0
 47
0.0
 48
0.0
 49
0.0
140
0.0
141
0.0
142
1.0
143
1.0
 70
0
 72
1
 73
0
 74
5
  7

 75
16
 76
0
 77
2
 78
300
147
1.0
148
0.0
149
0.0
100
AcDbLayout
  1
Layout1
 70
1
 71
1
 10
0.0
 20
0.0
 11
420.0
 21
297.0
 12
0.0
 22
0.0
 32
0.0
 14
1e+20
 24
1e+20
 34
1e+20
 15
-1e+20
 25
-1e+20
 35
-1e+20
146
0.0
 13
0.0
 23
0.0
 33
0.0
 16
1.0
 26
0.0
 36
0.0
 17
0.0
 27
1.0
 37
0.0
 76
1
330
1B
  0
MATERIAL
  5
1F
102
{ACAD_REACTORS
330
E
102
}
330
E
100
AcDbMaterial
  1
ByBlock
  2

 70
0
 40
1.0
 71
1
 41
1.0
 91
-1023410177
 42
1.0
 72
1
  3

 73
1
 74
1
 75
1
 44
0.5
 73
0
 45
1.0
 46
1.0
 77
1
  4

 78
1
 79
1
170
1
 48
1.0
171
1
  6

172
1
173
1
174
1
140
1.0
141
1.0
175
1
  7

176
1
177
1
178
1
143
1.0
179
1
  8

270
1
271
1
272
1
145
1.0
146
1.0
273
1
  9

274
1
275
1
276
1
 42
1.0
 72
1
  3

 73
1
 74
1
 75
1
 94
63
  0
MATERIAL
  5
20
102
{ACAD_REACTORS
330
E
102
}
330
E
100
AcDbMaterial
  1
ByLayer
  2

 70
0
 40
1.0
 71
1
 41
1.0
 91
-1023410177
 42
1.0
 72
1
  3

 73
1
 74
1
 75
1
 44
0.5
 73
0
 45
1.0
 46
1.0
 77
1
  4

 78
1
 79
1
170
1
 48
1.0
171
1
  6

172
1
173
1
174
1
140
1.0
141
1.0
175
1
  7

176
1
177
1
178
1
143
1.0
179
1
  8

270
1
271
1
272
1
145
1.0
146
1.0
273
1
  9

274
1
275
1
276
1
 42
1.0
 72
1
  3

 73
1
 74
1
 75
1
 94
63
  0
MATERIAL
  5
21
102
{ACAD_REACTORS
330
E
102
}
330
E
100
AcDbMaterial
  1
Global
  2

 70
0
 40
1.0
 71
1
 41
1.0
 91
-1023410177
 42
1.0
 72
1
  3

 73
1
 74
1
 75
1
 44
0.5
 73
0
 45
1.0
 46
1.0
 77
1
  4

 78
1
 79
1
170
1
 48
1.0
171
1
  6

172
1
173
1
174
1
140
1.0
141
1.0
175
1
  7

176
1
177
1
178
1
143
1.0
179
1
  8

270
1
271
1
272
1
145
1.0
146
1.0
273
1
  9

274
1
275
1
276
1
 42
1.0
 72
1
  3

 73
1
 74
1
 75
1
 94
63
  0
MLINESTYLE
  5
22
102
{ACAD_REACTORS
330
10
102
}
330
10
100
AcDbMlineStyle
  2
Standard
 70
0
  3

 62
256
 51
90.0
 52
90.0
 71
2
 49
0.5
 62
256
  6
BYLAYER
 49
-0.5
 62
256
  6
BYLAYER
  0
MLEADERSTYLE
  5
2C
102
{ACAD_REACTORS
330
F
102
}
330
F
100
AcDbMLeaderStyle
179
2
170
2
171
1
172
0
 90
2
 40
0.0
 41
0.0
173
1
 91
-1056964608
 92
-2
290
1
 42
2.0
291
1
 43
8.0
  3
Standard
 44
4.0
300

342
29
174
1
175
1
176
0
178
1
 93
-1056964608
 45
4.0
292
0
297
0
 46
4.0
 94
-1056964608
 47
1.0
 49
1.0
140
1.0
294
1
141
0.0
177
0
142
1.0
295
0
296
0
143
3.75
271
0
272
9
273
9
  0
DICTIONARY
  5
2D
330
A
100
AcDbDictionary
280
1
281
1
  3
CREATED_BY_EZDXF
350
2E
  3
WRITTEN_BY_EZDXF
350
273
  0
DICTIONARYVAR
  5
2E
330
2D
100
DictionaryVariables
280
0
  1
1.4.4 @ 2026-05-27T08:16:09.316624+00:00
  0
DICTIONARYVAR
  5
273
330
2D
100
DictionaryVariables
280
0
  1
1.4.4 @ 2026-05-27T08:16:09.340962+00:00
  0
ENDSEC
  0
EOF
